<svg version="1.1" id="Layer_1" xmlns="http://www.w3.org/2000/svg" xmlns:xlink="http://www.w3.org/1999/xlink" x="0px" y="0px"
	 width="100%" viewBox="0 0 3969 850" enable-background="new 0 0 3969 850" xml:space="preserve">
<path fill="#FFFFFF" opacity="1.000000" stroke="none" 
	d="
M2900.000000,851.000000 
	C1933.333374,851.000000 967.166687,851.000000 1.000000,851.000000 
	C1.000000,567.666687 1.000000,284.333344 1.000000,1.000000 
	C1324.000000,1.000000 2647.000000,1.000000 3970.000000,1.000000 
	C3970.000000,284.333344 3970.000000,567.666687 3970.000000,851.000000 
	C3613.500000,851.000000 3257.000000,851.000000 2900.000000,851.000000 
M922.500000,733.000244 
	C931.497070,733.000244 940.496216,733.120911 949.490601,732.966431 
	C958.556213,732.810791 967.255005,726.619995 966.081848,716.756897 
	C965.593140,712.648621 965.927917,708.432129 966.020020,704.267761 
	C966.122498,699.637634 964.054016,696.346558 960.350098,693.711853 
	C953.939941,689.152344 946.018738,689.363525 939.247070,689.347351 
	C756.759216,688.911804 574.270203,689.012634 391.781342,688.921021 
	C387.624817,688.918945 383.476318,687.679565 379.308197,687.139587 
	C378.027283,686.973694 376.675659,687.098022 375.387421,687.293701 
	C372.040009,687.802002 368.715057,688.883301 365.371796,688.921570 
	C349.874786,689.099243 334.369843,689.230469 318.877380,688.910828 
	C310.038849,688.728577 301.214752,687.697449 292.392517,686.949585 
	C288.974579,686.659912 285.509918,686.385559 282.193207,685.581665 
	C278.571350,684.703735 275.162018,682.461853 271.544464,682.148315 
	C262.064362,681.326904 253.518600,677.715393 244.861801,674.347107 
	C241.616577,673.084290 238.534912,671.407654 235.334854,670.020813 
	C230.285019,667.832397 224.834244,666.321289 220.199799,663.471863 
	C209.141403,656.672546 197.561050,650.621765 188.222504,641.215149 
	C183.160904,636.116577 177.118134,632.007324 171.766663,627.176331 
	C167.667648,623.475952 163.528564,619.676331 160.168137,615.332275 
	C153.806168,607.108337 147.856033,598.553345 141.998062,589.956482 
	C138.420776,584.706665 134.915054,579.325867 132.148209,573.629456 
	C129.499557,568.176331 128.993134,561.374817 125.482460,556.722412 
	C120.533195,550.163696 120.808716,542.173462 117.295151,535.274292 
	C114.264030,529.322388 113.537331,522.156189 112.063164,515.466980 
	C111.121178,511.192627 110.435112,506.829987 110.059341,502.470306 
	C109.507149,496.063965 109.122917,489.627380 109.046371,483.199158 
	C108.905373,471.358185 109.614525,459.650635 111.675446,447.864288 
	C113.233154,438.955811 114.414818,430.001099 117.031761,421.330658 
	C119.197754,414.154297 121.401962,406.964600 124.112244,399.983887 
	C127.216919,391.987305 130.048370,383.687500 134.525833,376.466461 
	C141.553619,365.132324 149.418503,354.237213 157.760971,343.822723 
	C164.931747,334.870911 172.688721,326.199432 181.254700,318.609589 
	C189.261139,311.515533 199.105515,306.526428 207.345154,299.656433 
	C215.893921,292.528687 225.797806,288.055817 235.753754,284.034607 
	C243.282150,280.993927 250.281555,276.552887 258.929260,275.628754 
	C266.745148,274.793549 274.177216,270.852203 281.968597,269.150909 
	C288.311951,267.765839 294.936951,267.673248 301.435577,266.993439 
	C302.248138,266.908447 303.047882,266.656860 303.859985,266.618347 
	C315.226837,266.079041 326.612823,264.931152 337.956543,265.253723 
	C346.166931,265.487244 354.323242,267.669678 362.500641,269.001556 
	C368.178772,269.926361 373.886475,270.713684 379.517548,271.871063 
	C385.486969,273.098022 391.427704,274.524719 397.295135,276.170227 
	C402.877838,277.735840 408.581604,279.193481 413.814148,281.605438 
	C421.047760,284.939819 427.942657,289.030426 434.885834,292.967804 
	C443.530945,297.870331 452.714081,302.134216 460.463959,308.206543 
	C466.600220,313.014587 472.690399,314.478210 479.903168,314.016235 
	C483.471191,313.787689 491.191284,306.286255 490.940826,303.060333 
	C490.701660,299.979614 490.435486,296.892242 489.968811,293.840271 
	C489.455719,290.484406 488.793854,287.143646 488.017700,283.838348 
	C487.497955,281.625061 488.540558,273.268127 489.926666,269.881073 
	C490.162201,269.305603 490.051208,268.556000 489.991486,267.896729 
	C488.816742,254.928345 491.698578,242.446198 495.482239,230.300140 
	C499.065735,218.796616 503.594269,207.546524 508.358521,196.465027 
	C512.020325,187.947861 516.325806,179.650925 521.001160,171.638931 
	C528.506042,158.778244 537.402283,146.970383 547.170471,135.600372 
	C557.081177,124.064445 568.519836,114.507431 580.213135,105.171852 
	C586.362061,100.262711 593.632629,96.715355 600.546204,92.818115 
	C608.939392,88.086769 617.154785,82.782059 626.058655,79.280685 
	C636.910522,75.013306 648.270264,71.802620 659.653809,69.199631 
	C668.147400,67.257462 677.016418,66.891701 685.740479,66.055359 
	C689.252075,65.718712 692.822998,65.999901 697.264954,65.999901 
	C695.802856,65.113678 695.195679,64.745667 694.385742,64.254745 
	C701.308594,64.254745 707.839722,64.254745 714.515686,64.254745 
	C714.095642,64.944893 713.830017,65.381439 713.144531,66.507790 
	C728.856628,64.313538 743.391296,67.920708 757.986816,71.028961 
	C760.052490,71.468864 762.254150,71.462326 764.216797,72.158615 
	C770.285095,74.311523 776.315247,76.590477 782.269775,79.040314 
	C786.940063,80.961815 791.559021,83.047958 796.051147,85.352692 
	C802.044128,88.427467 808.050720,91.530029 813.762573,95.084839 
	C821.020325,99.601784 828.483643,104.000130 834.967224,109.500145 
	C845.055969,118.058418 854.927429,127.010155 863.881348,136.725601 
	C871.041687,144.494843 877.112976,153.379822 882.899353,162.269669 
	C887.999512,170.105148 892.301453,178.501556 896.457581,186.896957 
	C899.702087,193.451065 902.458496,200.285416 904.907959,207.181290 
	C906.627930,212.023346 907.394409,217.197662 908.723572,222.187119 
	C909.700378,225.853851 910.950378,229.446915 911.986633,233.098923 
	C913.410950,238.118912 912.273621,243.702911 916.450256,248.161377 
	C920.211060,252.176010 926.454712,254.378265 931.492737,252.190277 
	C942.260681,247.513931 952.749390,241.984680 963.865479,238.392227 
	C971.597595,235.893387 980.168823,235.366882 988.392456,235.183151 
	C997.126282,234.987991 1005.996460,234.892944 1014.549500,237.885956 
	C1018.330933,239.209229 1022.633179,239.040283 1026.419922,240.353439 
	C1031.654785,242.168747 1036.693359,244.605179 1041.691895,247.031479 
	C1047.099487,249.656403 1052.819092,251.966614 1057.577148,255.519531 
	C1063.637939,260.045166 1068.871338,265.678925 1074.459717,270.836853 
	C1087.224487,282.618378 1095.328247,297.295380 1101.026245,313.485321 
	C1101.394409,314.531555 1102.228516,316.219666 1102.876953,316.234375 
	C1108.246582,316.356110 1112.898926,319.985352 1118.857544,318.196747 
	C1127.196533,315.693481 1135.639771,314.538910 1141.821411,307.049713 
	C1145.016235,303.179291 1144.261597,299.733887 1143.860474,295.887726 
	C1143.734985,294.685516 1142.551758,293.624847 1142.002808,292.430450 
	C1138.863647,285.602539 1136.300537,278.445374 1132.544312,271.979614 
	C1125.760986,260.303497 1118.266357,248.994583 1108.246338,239.757812 
	C1100.146484,232.291183 1092.017700,224.759796 1083.202026,218.196960 
	C1076.333252,213.083313 1068.961426,208.544403 1060.601685,205.644821 
	C1052.281250,202.758926 1044.521851,198.287949 1036.278198,195.134628 
	C1031.801025,193.421997 1026.868774,192.681793 1022.069397,192.078644 
	C1014.522034,191.130188 1006.925049,190.383224 999.327881,190.076050 
	C991.008667,189.739670 982.665344,189.995682 974.332520,190.003723 
	C973.169373,190.004852 971.956970,189.861389 970.851257,190.130051 
	C964.421265,191.692444 958.049927,193.525238 951.570251,194.825928 
	C950.476990,195.045410 948.331848,193.399261 947.760742,192.126801 
	C946.654358,189.661667 946.750671,186.644699 945.592529,184.217056 
	C941.248901,175.111801 936.025574,166.387939 932.204346,157.080856 
	C926.820984,143.968903 918.415771,132.866806 910.135254,121.700912 
	C904.449829,114.034492 897.771606,107.096802 891.442200,99.917122 
	C876.337097,82.782928 858.615906,68.803955 839.146057,56.992199 
	C829.813354,51.330345 820.567871,45.549366 810.139343,41.874214 
	C800.240601,38.385735 790.666077,33.977322 780.767517,30.488241 
	C774.845215,28.400707 768.583191,27.265642 762.455261,25.779161 
	C760.406799,25.282255 758.299561,25.028811 756.221008,24.654175 
	C747.623413,23.104528 739.002258,20.128370 730.433960,20.274067 
	C707.554749,20.663103 684.489197,17.250666 661.796326,22.953808 
	C654.164490,24.871826 646.415405,26.326828 638.711304,27.952860 
	C631.132202,29.552519 623.700500,31.366436 616.633972,34.859554 
	C608.887817,38.688633 600.489868,41.205914 592.771484,45.082478 
	C582.292053,50.345779 571.836304,55.817169 562.030945,62.212215 
	C553.651978,67.676941 546.231201,74.603729 538.339111,80.823509 
	C525.751648,90.743690 514.589783,102.134697 504.820679,114.760414 
	C497.457886,124.276268 490.744049,134.324600 484.181305,144.421890 
	C474.878082,158.735672 468.165222,174.405823 462.182953,190.301743 
	C458.707947,199.535477 456.608398,209.298569 454.088287,218.875656 
	C452.536987,224.770966 450.974792,230.710297 450.124420,236.729736 
	C449.298462,242.576355 449.374969,248.550476 449.018433,255.148712 
	C444.812195,252.604050 441.161469,249.982513 437.167755,248.081451 
	C431.907288,245.577408 426.370270,243.656799 420.964905,241.454102 
	C412.463196,237.989624 404.127472,234.029953 395.433136,231.150482 
	C386.598846,228.224609 377.513184,225.804321 368.357666,224.171539 
	C358.887421,222.482620 349.212555,221.308182 339.606537,221.148361 
	C320.931244,220.837616 302.197021,220.026215 283.603638,222.972626 
	C279.568268,223.612091 275.411987,223.586975 271.427826,224.422943 
	C267.489197,225.249359 263.746613,226.973648 259.829712,227.949539 
	C254.851547,229.189865 249.625336,229.598801 244.792221,231.219437 
	C237.148605,233.782486 229.719833,236.998230 222.243042,240.043137 
	C215.503937,242.787598 208.449158,245.027557 202.197952,248.639771 
	C191.239731,254.971863 180.587814,261.893494 170.196884,269.127411 
	C163.088684,274.075989 156.350555,279.656250 149.957199,285.511261 
	C135.656982,298.607391 121.664871,312.029022 111.514816,328.850647 
	C106.770103,336.714020 101.995537,344.572144 96.887497,352.200256 
	C90.812431,361.272522 86.146347,370.915680 82.763786,381.307739 
	C80.023582,389.726349 76.020706,397.750427 73.527420,406.228729 
	C70.502823,416.513702 68.206215,427.039001 66.133476,437.566406 
	C65.124260,442.692230 65.102127,448.056610 65.046822,453.317383 
	C64.906654,466.648438 65.084831,479.982605 64.977615,493.314270 
	C64.859344,508.019989 66.681297,522.416504 70.943398,536.522156 
	C72.852928,542.841797 74.023254,549.391663 76.061394,555.664062 
	C79.140900,565.141235 82.044708,574.763123 86.206146,583.777466 
	C90.768791,593.660950 96.139824,603.276428 102.128914,612.369629 
	C109.719116,623.893860 117.522835,635.448242 126.623329,645.764404 
	C138.492401,659.219116 151.232971,671.832764 166.127853,682.362915 
	C176.402634,689.626709 186.665268,696.834167 197.641068,702.872253 
	C206.227432,707.595825 215.560181,710.940491 224.391068,715.246948 
	C236.220947,721.015808 248.825256,724.176453 261.555359,727.006104 
	C263.933990,727.534851 266.421051,727.662842 268.736786,728.371887 
	C277.970520,731.199402 287.439117,732.928589 297.038147,732.932678 
	C505.192078,733.021484 713.346008,733.000244 922.500000,733.000244 
M1349.000000,664.500000 
	C1349.000000,631.175964 1349.003296,597.851990 1348.990112,564.527954 
	C1348.989380,562.872375 1349.020752,561.186279 1348.739868,559.565918 
	C1345.793579,542.571228 1337.732788,528.414551 1324.663330,517.213501 
	C1313.544434,507.684265 1300.705200,501.197662 1285.974609,501.140503 
	C1208.663940,500.840576 1131.351685,500.998932 1054.039917,501.009735 
	C1052.550659,501.009949 1051.034668,500.998749 1049.576416,501.252502 
	C1032.584961,504.209106 1018.403748,512.242004 1007.226501,525.332886 
	C997.373413,536.872925 991.137329,550.155762 991.075439,565.514099 
	C990.873962,615.499329 990.997803,665.485840 991.009827,715.471863 
	C991.010254,717.127441 990.979492,718.813599 991.260376,720.433960 
	C994.207092,737.428345 1002.244324,751.612488 1015.343018,762.778687 
	C1026.884399,772.617432 1040.153564,778.900208 1055.524780,778.930664 
	C1132.169800,779.082336 1208.815063,779.001404 1285.460327,778.990417 
	C1287.116211,778.990234 1288.805298,779.033020 1290.422974,778.743713 
	C1306.818726,775.812012 1320.675659,768.303589 1331.753418,755.762146 
	C1342.312500,743.808044 1348.711060,730.091919 1348.947754,713.985657 
	C1349.185303,697.827026 1349.000000,681.662170 1349.000000,664.500000 
M1754.149292,548.738281 
	C1753.461060,566.264709 1753.470825,583.670593 1759.806885,600.476807 
	C1775.988159,643.396423 1825.243774,654.185486 1857.687378,621.836182 
	C1857.946411,621.577881 1858.461426,621.576355 1858.937988,621.430176 
	C1858.937988,628.796326 1859.242310,635.966797 1858.878906,643.103210 
	C1857.913940,662.052490 1848.067627,673.290466 1830.119385,675.772156 
	C1824.550171,676.542114 1818.817993,676.578979 1813.184814,676.350098 
	C1800.108887,675.818848 1787.611450,672.560120 1775.427246,666.998047 
	C1773.937134,674.676880 1772.524658,681.955994 1771.036133,689.626648 
	C1798.717163,701.929810 1826.569702,705.900879 1855.050171,694.426941 
	C1871.787842,687.683777 1882.029907,674.641968 1885.827393,657.064514 
	C1887.359497,649.972412 1887.918213,642.548340 1887.943481,635.271973 
	C1888.118530,584.786743 1888.036621,534.300598 1888.036987,483.814789 
	C1888.036987,482.180389 1888.036987,480.545990 1888.036987,478.631714 
	C1880.213135,478.631714 1872.792725,478.631714 1865.031982,478.631714 
	C1863.863770,485.059631 1862.704346,491.438995 1861.489014,498.126312 
	C1860.628418,497.491882 1860.286133,497.352844 1860.116943,497.098663 
	C1840.650635,467.850037 1785.441895,465.008301 1764.894287,507.535034 
	C1758.707764,520.339233 1755.560181,533.791504 1754.149292,548.738281 
M2743.458984,624.480957 
	C2743.458984,552.564819 2743.458984,480.648743 2743.458984,408.654114 
	C2733.496582,408.654114 2724.250000,408.654114 2714.255615,408.654114 
	C2714.255615,437.229004 2714.255615,465.508484 2714.255615,495.098114 
	C2699.540283,477.849670 2681.499512,473.444977 2661.444580,476.317902 
	C2639.682129,479.435364 2626.444824,493.469635 2618.042725,512.760132 
	C2610.147705,530.886230 2608.616455,550.080566 2609.429443,569.531799 
	C2610.142822,586.604065 2614.290283,602.605347 2624.102051,617.032593 
	C2644.816895,647.491333 2695.089844,647.360107 2714.657715,620.008179 
	C2715.208496,619.238220 2715.501465,618.283508 2715.914551,617.414917 
	C2716.292480,617.706177 2716.670410,617.997375 2717.048340,618.288574 
	C2718.439697,624.424316 2719.831055,630.560120 2721.227295,636.717896 
	C2728.644531,636.717896 2735.875244,636.717896 2743.458496,636.717896 
	C2743.458496,632.761169 2743.458496,629.115723 2743.458984,624.480957 
M2274.428467,570.149658 
	C2275.657471,578.027954 2276.150879,586.107361 2278.241211,593.750122 
	C2287.987305,629.385376 2318.468018,647.265381 2352.921631,638.009827 
	C2364.790527,634.821289 2374.035400,627.840149 2381.784912,617.363281 
	C2383.402832,624.373474 2384.833984,630.572693 2386.287842,636.871582 
	C2393.657471,636.871582 2400.789062,636.871582 2408.041260,636.871582 
	C2408.041260,560.691528 2408.041260,484.660645 2408.041260,408.714172 
	C2398.378418,408.714172 2389.132812,408.714172 2379.123535,408.714172 
	C2379.123535,437.325836 2379.123535,465.579193 2379.123535,494.894867 
	C2364.246826,477.689484 2346.050049,473.314148 2325.789795,476.435272 
	C2304.263428,479.751434 2291.274902,493.809357 2282.983398,512.920898 
	C2275.182617,530.901855 2273.809326,549.922424 2274.428467,570.149658 
M1157.355225,375.873291 
	C1166.927979,374.141296 1176.516724,374.187866 1186.047485,376.013367 
	C1207.663086,380.153595 1224.934937,391.321106 1237.954224,408.955597 
	C1249.948364,425.201569 1254.063721,443.937988 1253.889282,463.699524 
	C1253.811646,472.505096 1262.288696,480.047455 1267.669556,480.937073 
	C1278.451538,482.719574 1288.460693,478.238098 1289.689453,469.102570 
	C1291.145142,458.281677 1291.470093,446.850250 1289.642212,436.134247 
	C1284.673340,407.004059 1270.486694,382.850800 1247.479126,363.821808 
	C1228.823364,348.392029 1207.500244,339.331055 1183.712036,337.257812 
	C1164.476929,335.581390 1145.412231,337.389984 1126.938965,344.774261 
	C1098.965454,355.956085 1078.260986,374.868378 1064.096680,401.016235 
	C1053.514648,420.551025 1049.843628,441.754089 1050.933594,463.910187 
	C1051.434937,474.099670 1058.918945,481.006775 1070.366943,480.999908 
	C1080.321289,480.993958 1087.817627,473.519745 1088.039429,463.672668 
	C1088.177002,457.566467 1088.087280,451.359192 1089.158325,445.387146 
	C1092.997681,423.976990 1102.744995,405.866608 1120.182251,392.302094 
	C1130.970215,383.910126 1142.907471,378.147369 1157.355225,375.873291 
M1560.427002,559.130188 
	C1556.277588,550.136475 1549.840820,543.041748 1542.004639,537.157227 
	C1530.112061,528.226501 1516.561646,522.858093 1502.356812,518.940613 
	C1489.034668,515.266602 1475.710815,511.544159 1464.022461,503.801483 
	C1454.146362,497.259186 1448.769653,488.317535 1449.630127,476.055267 
	C1450.537109,463.130646 1456.376343,453.115570 1468.269165,448.181946 
	C1475.295532,445.267120 1483.339966,443.857544 1490.992432,443.578247 
	C1513.865601,442.743378 1531.770142,456.777618 1535.618164,477.588348 
	C1536.060913,479.982697 1536.178223,482.437225 1536.436890,484.777588 
	C1545.874512,484.777588 1554.930298,484.777588 1564.158325,484.777588 
	C1564.786743,465.352234 1556.824097,450.200348 1542.885010,437.966858 
	C1520.570435,418.382843 1479.213989,414.848358 1451.549438,429.499054 
	C1412.710815,450.067413 1409.017334,501.586334 1447.397217,525.075439 
	C1460.173706,532.894897 1474.014282,537.689087 1488.197388,542.113098 
	C1499.384644,545.602539 1510.668701,549.577942 1520.874268,555.213013 
	C1533.235352,562.038208 1537.775513,573.944641 1536.132324,587.984375 
	C1534.609741,600.992920 1526.787231,609.396240 1515.054199,613.475769 
	C1494.531250,620.611511 1474.719849,618.922485 1456.731445,605.712952 
	C1448.818237,599.901978 1444.437988,591.873291 1443.038452,582.205139 
	C1442.738647,580.134705 1442.649658,578.033752 1442.462891,575.939880 
	C1432.985352,575.939880 1424.071899,575.939880 1414.895020,575.939880 
	C1414.016602,594.114746 1420.177856,609.123596 1434.244995,620.047546 
	C1464.187012,643.299194 1497.473633,646.344543 1531.722534,632.178101 
	C1562.102539,619.612122 1572.947632,590.444641 1560.427002,559.130188 
M2475.347168,485.819489 
	C2459.492676,496.587250 2450.817139,511.714661 2454.364502,522.111694 
	C2463.226807,522.111694 2472.021973,522.111694 2481.049561,522.111694 
	C2482.061035,512.136353 2487.470703,505.592438 2496.087158,501.644806 
	C2504.746094,497.677826 2513.866211,497.469330 2522.989990,499.472015 
	C2532.538330,501.567932 2539.560791,506.996735 2543.036377,516.401184 
	C2546.364746,525.407410 2544.702881,534.675232 2545.037598,544.063110 
	C2533.505371,544.063110 2522.685791,543.984497 2511.867676,544.084167 
	C2499.979736,544.193726 2488.265381,545.624878 2477.122559,550.010132 
	C2458.614014,557.294067 2446.596924,569.614502 2445.479004,590.631592 
	C2444.252197,613.695679 2456.061279,632.095764 2476.791992,637.661804 
	C2499.383057,643.727417 2519.661865,639.216431 2536.831787,622.837097 
	C2539.545166,620.248657 2542.003418,617.392639 2544.690918,614.542236 
	C2545.866943,622.163025 2546.994629,629.471619 2548.106934,636.677979 
	C2558.389648,636.677979 2568.077393,636.677979 2576.623047,636.677979 
	C2575.747314,624.832947 2574.330811,613.276489 2574.153076,601.701111 
	C2573.766846,576.549194 2574.163330,551.386292 2573.955566,526.230225 
	C2573.775146,504.379089 2562.732422,487.660095 2542.418945,480.481659 
	C2519.797852,472.487579 2497.318604,473.217224 2475.347168,485.819489 
M3326.816162,632.714294 
	C3356.506592,646.237976 3399.404053,640.468140 3417.356689,620.264709 
	C3413.780029,614.310852 3410.139648,608.251038 3406.321533,601.895447 
	C3404.971680,602.967285 3403.963379,603.798950 3402.923584,604.589111 
	C3387.673828,616.176453 3370.223389,619.552307 3351.847412,616.453247 
	C3330.497803,612.852539 3315.128174,586.861572 3319.646729,563.055176 
	C3353.117676,563.055176 3386.690186,563.055176 3421.432129,563.055176 
	C3420.579590,550.907532 3420.813477,539.152466 3418.768066,527.808472 
	C3411.447266,487.212891 3382.861816,470.642181 3345.080811,476.858490 
	C3319.969482,480.990173 3303.977783,497.678345 3295.290283,520.587830 
	C3285.753662,545.735352 3286.480713,571.636475 3295.485596,596.904907 
	C3301.021729,612.440430 3311.287109,624.558716 3326.816162,632.714294 
M1725.272583,530.196289 
	C1718.802246,489.265747 1690.527710,470.062408 1650.559937,476.973633 
	C1625.514771,481.304443 1609.677856,498.098755 1601.122803,521.079041 
	C1591.802612,546.114563 1592.358398,571.893921 1601.519897,596.896545 
	C1609.188599,617.825256 1624.097046,632.074585 1646.147949,637.556946 
	C1663.308105,641.823425 1680.561279,641.169983 1697.413208,635.790161 
	C1707.102173,632.697083 1716.049927,627.972656 1723.522217,620.466309 
	C1719.714600,614.175049 1716.064087,608.143494 1712.260132,601.858398 
	C1698.238281,614.038452 1682.137573,618.135437 1664.552979,617.278320 
	C1639.314819,616.048279 1619.333740,588.273132 1625.840576,562.914185 
	C1659.260742,562.914185 1692.817261,562.914185 1727.251465,562.914185 
	C1726.634155,551.921997 1726.048096,541.488525 1725.272583,530.196289 
M3905.594971,542.789307 
	C3905.072754,537.991821 3904.837891,533.142517 3903.983154,528.405029 
	C3896.697754,488.020569 3868.489990,470.388031 3829.747314,476.925629 
	C3804.867432,481.123993 3788.952148,497.712250 3780.364502,520.421143 
	C3770.672119,546.050903 3771.196533,572.461060 3781.021973,598.072021 
	C3788.962158,618.768616 3804.046875,632.502014 3825.895996,637.768616 
	C3841.715820,641.581970 3857.684570,641.070007 3873.344727,636.751160 
	C3884.163818,633.767334 3894.032471,628.690430 3902.556885,620.542358 
	C3898.788574,614.293091 3895.140625,608.243286 3891.315186,601.899048 
	C3889.962402,602.971619 3888.953369,603.801392 3887.914062,604.591309 
	C3872.670654,616.177185 3855.227539,619.545166 3836.855957,616.456543 
	C3815.501953,612.866577 3800.243896,587.099792 3804.617432,563.089111 
	C3838.089844,563.089111 3871.657227,563.089111 3905.647705,563.089111 
	C3905.647705,556.311829 3905.647705,550.023438 3905.594971,542.789307 
M3141.492676,500.007751 
	C3117.989502,466.795746 3049.508057,462.821655 3026.139404,514.031250 
	C3013.952148,540.738403 3013.637695,568.430847 3023.593506,595.733704 
	C3034.550293,625.782043 3058.387207,640.663879 3091.654297,640.024841 
	C3120.733643,639.466248 3143.987305,621.924744 3153.985840,593.131104 
	C3158.827393,579.188049 3159.612549,564.795471 3159.002197,550.245117 
	C3158.237549,532.012085 3153.218506,515.203430 3141.492676,500.007751 
M2880.502441,423.774170 
	C2875.412598,423.774170 2870.322754,423.774170 2865.166016,423.774170 
	C2865.166016,495.159973 2865.166016,565.875977 2865.166016,636.718628 
	C2874.789062,636.718628 2884.168945,636.718628 2893.994629,636.718628 
	C2893.994629,605.336914 2893.994629,574.271484 2893.994629,542.616760 
	C2924.141846,542.616760 2953.843262,542.616760 2983.524414,542.616760 
	C2983.524414,534.771973 2983.524414,527.526245 2983.524414,519.753540 
	C2953.490479,519.753540 2923.774902,519.753540 2894.166016,519.753540 
	C2894.166016,495.110229 2894.166016,471.003784 2894.166016,446.277710 
	C2929.133301,446.277710 2963.833740,446.277710 2998.535889,446.277710 
	C2998.535889,438.544037 2998.535889,431.435669 2998.535889,423.774048 
	C2959.355469,423.774048 2920.428223,423.774048 2880.502441,423.774170 
M2058.458984,601.500122 
	C2058.458984,560.570679 2058.458984,519.641235 2058.458984,478.685455 
	C2048.488037,478.685455 2039.250000,478.685455 2029.549927,478.685455 
	C2029.549927,480.814667 2029.550049,482.612793 2029.549927,484.410889 
	C2029.547485,519.072876 2029.605225,553.735229 2029.435425,588.396301 
	C2029.420898,591.379211 2028.515381,594.726685 2026.977539,597.272949 
	C2017.243896,613.389404 2001.955322,617.642029 1984.399658,616.211609 
	C1971.380615,615.150940 1963.772461,608.973877 1961.015869,596.162292 
	C1959.210571,587.772156 1958.388306,579.033508 1958.292114,570.437866 
	C1957.969604,541.612061 1958.170654,512.780396 1958.171265,483.950928 
	C1958.171387,482.201202 1958.171387,480.451508 1958.171387,478.663574 
	C1948.168457,478.663574 1938.917114,478.663574 1929.451172,478.663574 
	C1929.359009,480.261017 1929.219360,481.558197 1929.218872,482.855438 
	C1929.207153,512.351501 1929.092041,541.848328 1929.293701,571.343018 
	C1929.344727,578.809631 1930.031982,586.324036 1931.088013,593.722046 
	C1934.489624,617.547302 1947.857056,633.176819 1968.804810,638.358887 
	C1992.869141,644.311890 2014.080933,636.769104 2028.326538,617.213074 
	C2028.836914,616.512573 2029.504517,615.926758 2030.581787,614.768005 
	C2031.256348,622.617004 2031.861816,629.662109 2032.469238,636.729919 
	C2041.293335,636.729919 2049.691895,636.729919 2058.458496,636.729919 
	C2058.458496,625.118042 2058.458496,613.809143 2058.458984,601.500122 
M3452.963623,566.500000 
	C3452.963623,589.924683 3452.963623,613.349304 3452.963623,636.641113 
	C3463.001709,636.641113 3472.388428,636.641113 3481.937500,636.641113 
	C3481.937500,634.421875 3481.937500,632.598145 3481.937500,630.774353 
	C3481.937500,595.278687 3482.002197,559.782715 3481.849854,524.287720 
	C3481.832275,520.152893 3482.991455,516.889954 3485.574951,513.853577 
	C3497.937744,499.321991 3513.844482,496.788818 3531.401367,500.606140 
	C3542.297607,502.975250 3548.765869,510.308868 3550.813232,521.038330 
	C3552.084229,527.700562 3552.648438,534.587158 3552.692383,541.378479 
	C3552.886230,571.373535 3552.776367,601.370605 3552.776367,631.366943 
	C3552.776367,633.134705 3552.776367,634.902466 3552.776367,636.629028 
	C3562.744141,636.629028 3572.112061,636.629028 3581.591553,636.629028 
	C3581.650391,635.409302 3581.724121,634.591003 3581.724121,633.772766 
	C3581.729492,601.943298 3581.830811,570.113281 3581.647949,538.284912 
	C3581.607910,531.319214 3581.045654,524.274780 3579.867676,517.413574 
	C3576.865723,499.924194 3568.433350,486.022980 3551.085938,479.615997 
	C3528.125488,471.136078 3500.377441,474.476898 3483.230713,498.377930 
	C3482.680664,499.144653 3482.078613,499.874359 3480.875000,501.430542 
	C3480.092529,493.244080 3479.403809,486.037750 3478.702148,478.695374 
	C3470.018311,478.695374 3461.625000,478.695374 3453.316406,478.695374 
	C3453.153564,479.364868 3453.006592,479.687836 3453.006348,480.010925 
	C3452.984863,508.507294 3452.974365,537.003662 3452.963623,566.500000 
M3623.864746,528.624878 
	C3625.257568,538.684387 3630.760986,546.135315 3638.846924,551.829529 
	C3648.780518,558.824646 3660.067383,562.740112 3671.642090,566.014526 
	C3682.018555,568.950134 3692.531006,571.568054 3702.620117,575.306824 
	C3711.031494,578.424072 3716.092529,584.969421 3715.989502,594.473816 
	C3715.884277,604.155518 3710.442871,610.424805 3702.025391,613.914185 
	C3689.818604,618.974426 3677.323486,618.711853 3665.030273,613.941223 
	C3654.287354,609.772095 3648.159912,601.912292 3647.021729,590.324890 
	C3646.947510,589.569824 3646.716797,588.830139 3646.580322,588.183960 
	C3637.278809,588.183960 3628.346924,588.183960 3618.856201,588.183960 
	C3619.063965,591.564087 3618.901367,594.739868 3619.503906,597.763062 
	C3623.030518,615.453857 3634.354980,626.794312 3650.196045,633.929504 
	C3664.561279,640.399902 3679.829834,641.070923 3695.264160,639.379517 
	C3707.764404,638.009460 3719.057129,633.704529 3729.091309,625.890076 
	C3748.416260,610.840027 3754.381348,575.015808 3723.936768,559.220215 
	C3712.857422,553.471802 3700.480957,550.149292 3688.560547,546.121155 
	C3680.395752,543.362000 3671.882080,541.627014 3663.740967,538.807922 
	C3657.968750,536.809143 3654.115234,532.509583 3652.798828,526.201233 
	C3650.475342,515.067505 3656.774902,504.388336 3668.179932,500.404633 
	C3689.946289,492.801758 3708.988281,502.767670 3714.785645,524.770264 
	C3723.847900,524.770264 3732.895996,524.770264 3742.019043,524.770264 
	C3742.803711,511.259003 3737.349365,500.792969 3728.179199,491.985229 
	C3716.104980,480.387360 3701.233154,475.936554 3684.894775,475.592865 
	C3666.258301,475.200836 3649.158691,479.375366 3635.619141,493.204834 
	C3626.222412,502.802734 3621.930176,514.265869 3623.864746,528.624878 
M3251.480713,476.864471 
	C3238.425293,480.076630 3230.094971,489.280212 3222.563232,500.926483 
	C3221.498779,492.657349 3220.599609,485.671753 3219.688721,478.595886 
	C3210.997559,478.595886 3202.734619,478.595886 3194.323242,478.595886 
	C3194.323242,531.509521 3194.323242,584.176514 3194.323242,636.790649 
	C3203.951416,636.790649 3213.217529,636.790649 3222.936768,636.790649 
	C3222.936768,634.762878 3222.936768,632.974426 3222.936768,631.186035 
	C3222.936768,596.706726 3222.923584,562.227478 3222.973389,527.748230 
	C3222.976074,525.803650 3223.043701,523.642578 3223.852783,521.951599 
	C3228.509521,512.221863 3235.848633,505.342834 3246.800293,504.040802 
	C3253.979004,503.187378 3261.341309,503.879669 3268.986084,503.879669 
	C3270.309570,494.935089 3271.609375,486.149567 3273.014893,476.649841 
	C3265.709473,476.649841 3258.992676,476.649841 3251.480713,476.864471 
M2128.935547,552.500000 
	C2128.936279,544.007996 2128.885010,535.515442 2128.979980,527.024536 
	C2128.999756,525.251892 2129.173828,523.295898 2129.933838,521.746826 
	C2134.683838,512.064636 2142.051758,505.249939 2153.009277,504.001892 
	C2160.188721,503.184204 2167.536621,503.847565 2174.990967,503.847565 
	C2176.317139,494.935516 2177.608154,486.259705 2179.091797,476.289001 
	C2172.256592,476.289001 2165.750732,475.425110 2159.564209,476.463959 
	C2145.513184,478.823486 2136.440186,488.460083 2128.578857,501.045349 
	C2127.514648,492.744537 2126.619873,485.763733 2125.714111,478.698181 
	C2117.011963,478.698181 2108.620850,478.698181 2100.241699,478.698181 
	C2100.241699,531.591187 2100.241699,584.135437 2100.241699,636.695129 
	C2109.904297,636.695129 2119.284424,636.695129 2128.935547,636.695129 
	C2128.935547,608.735962 2128.935547,581.117981 2128.935547,552.500000 
M2207.151367,602.500000 
	C2207.151367,613.928528 2207.151367,625.356995 2207.151367,636.801758 
	C2217.123291,636.801758 2226.393555,636.801758 2235.875244,636.801758 
	C2235.875244,584.000671 2235.875244,531.436646 2235.875244,478.711823 
	C2226.236816,478.711823 2216.847900,478.711823 2207.151367,478.711823 
	C2207.151367,519.883789 2207.151367,560.691895 2207.151367,602.500000 
M2221.500488,408.335846 
	C2216.884766,408.335846 2212.269043,408.335846 2207.424805,408.335846 
	C2207.424805,418.454132 2207.424805,427.999237 2207.424805,437.661926 
	C2217.090332,437.661926 2226.469238,437.661926 2235.761719,437.661926 
	C2235.761719,427.789673 2235.761719,418.241638 2235.761719,408.335999 
	C2231.100342,408.335999 2226.797119,408.335999 2221.500488,408.335846 
M650.040161,594.557861 
	C647.411377,597.727173 644.782532,600.896423 642.153687,604.065735 
	C649.519653,601.189941 670.582764,574.684204 671.464661,567.496521 
	C664.150635,576.768005 657.339294,585.402222 650.040161,594.557861 
z"/>
<path fill="#0C426E" opacity="1.000000" stroke="none" 
	d="
M922.000000,733.000244 
	C713.346008,733.000244 505.192078,733.021484 297.038147,732.932678 
	C287.439117,732.928589 277.970520,731.199402 268.736786,728.371887 
	C266.421051,727.662842 263.933990,727.534851 261.555359,727.006104 
	C248.825256,724.176453 236.220947,721.015808 224.391068,715.246948 
	C215.560181,710.940491 206.227432,707.595825 197.641068,702.872253 
	C186.665268,696.834167 176.402634,689.626709 166.127853,682.362915 
	C151.232971,671.832764 138.492401,659.219116 126.623329,645.764404 
	C117.522835,635.448242 109.719116,623.893860 102.128914,612.369629 
	C96.139824,603.276428 90.768791,593.660950 86.206146,583.777466 
	C82.044708,574.763123 79.140900,565.141235 76.061394,555.664062 
	C74.023254,549.391663 72.852928,542.841797 70.943398,536.522156 
	C66.681297,522.416504 64.859344,508.019989 64.977615,493.314270 
	C65.084831,479.982605 64.906654,466.648438 65.046822,453.317383 
	C65.102127,448.056610 65.124260,442.692230 66.133476,437.566406 
	C68.206215,427.039001 70.502823,416.513702 73.527420,406.228729 
	C76.020706,397.750427 80.023582,389.726349 82.763786,381.307739 
	C86.146347,370.915680 90.812431,361.272522 96.887497,352.200256 
	C101.995537,344.572144 106.770103,336.714020 111.514816,328.850647 
	C121.664871,312.029022 135.656982,298.607391 149.957199,285.511261 
	C156.350555,279.656250 163.088684,274.075989 170.196884,269.127411 
	C180.587814,261.893494 191.239731,254.971863 202.197952,248.639771 
	C208.449158,245.027557 215.503937,242.787598 222.243042,240.043137 
	C229.719833,236.998230 237.148605,233.782486 244.792221,231.219437 
	C249.625336,229.598801 254.851547,229.189865 259.829712,227.949539 
	C263.746613,226.973648 267.489197,225.249359 271.427826,224.422943 
	C275.411987,223.586975 279.568268,223.612091 283.603638,222.972626 
	C302.197021,220.026215 320.931244,220.837616 339.606537,221.148361 
	C349.212555,221.308182 358.887421,222.482620 368.357666,224.171539 
	C377.513184,225.804321 386.598846,228.224609 395.433136,231.150482 
	C404.127472,234.029953 412.463196,237.989624 420.964905,241.454102 
	C426.370270,243.656799 431.907288,245.577408 437.167755,248.081451 
	C441.161469,249.982513 444.812195,252.604050 449.018433,255.148712 
	C449.374969,248.550476 449.298462,242.576355 450.124420,236.729736 
	C450.974792,230.710297 452.536987,224.770966 454.088287,218.875656 
	C456.608398,209.298569 458.707947,199.535477 462.182953,190.301743 
	C468.165222,174.405823 474.878082,158.735672 484.181305,144.421890 
	C490.744049,134.324600 497.457886,124.276268 504.820679,114.760414 
	C514.589783,102.134697 525.751648,90.743690 538.339111,80.823509 
	C546.231201,74.603729 553.651978,67.676941 562.030945,62.212215 
	C571.836304,55.817169 582.292053,50.345779 592.771484,45.082478 
	C600.489868,41.205914 608.887817,38.688633 616.633972,34.859554 
	C623.700500,31.366436 631.132202,29.552519 638.711304,27.952860 
	C646.415405,26.326828 654.164490,24.871826 661.796326,22.953808 
	C684.489197,17.250666 707.554749,20.663103 730.433960,20.274067 
	C739.002258,20.128370 747.623413,23.104528 756.221008,24.654175 
	C758.299561,25.028811 760.406799,25.282255 762.455261,25.779161 
	C768.583191,27.265642 774.845215,28.400707 780.767517,30.488241 
	C790.666077,33.977322 800.240601,38.385735 810.139343,41.874214 
	C820.567871,45.549366 829.813354,51.330345 839.146057,56.992199 
	C858.615906,68.803955 876.337097,82.782928 891.442200,99.917122 
	C897.771606,107.096802 904.449829,114.034492 910.135254,121.700912 
	C918.415771,132.866806 926.820984,143.968903 932.204346,157.080856 
	C936.025574,166.387939 941.248901,175.111801 945.592529,184.217056 
	C946.750671,186.644699 946.654358,189.661667 947.760742,192.126801 
	C948.331848,193.399261 950.476990,195.045410 951.570251,194.825928 
	C958.049927,193.525238 964.421265,191.692444 970.851257,190.130051 
	C971.956970,189.861389 973.169373,190.004852 974.332520,190.003723 
	C982.665344,189.995682 991.008667,189.739670 999.327881,190.076050 
	C1006.925049,190.383224 1014.522034,191.130188 1022.069397,192.078644 
	C1026.868774,192.681793 1031.801025,193.421997 1036.278198,195.134628 
	C1044.521851,198.287949 1052.281250,202.758926 1060.601685,205.644821 
	C1068.961426,208.544403 1076.333252,213.083313 1083.202026,218.196960 
	C1092.017700,224.759796 1100.146484,232.291183 1108.246338,239.757812 
	C1118.266357,248.994583 1125.760986,260.303497 1132.544312,271.979614 
	C1136.300537,278.445374 1138.863647,285.602539 1142.002808,292.430450 
	C1142.551758,293.624847 1143.734985,294.685516 1143.860474,295.887726 
	C1144.261597,299.733887 1145.016235,303.179291 1141.821411,307.049713 
	C1135.639771,314.538910 1127.196533,315.693481 1118.857544,318.196747 
	C1112.898926,319.985352 1108.246582,316.356110 1102.876953,316.234375 
	C1102.228516,316.219666 1101.394409,314.531555 1101.026245,313.485321 
	C1095.328247,297.295380 1087.224487,282.618378 1074.459717,270.836853 
	C1068.871338,265.678925 1063.637939,260.045166 1057.577148,255.519531 
	C1052.819092,251.966614 1047.099487,249.656403 1041.691895,247.031479 
	C1036.693359,244.605179 1031.654785,242.168747 1026.419922,240.353439 
	C1022.633179,239.040283 1018.330933,239.209229 1014.549500,237.885956 
	C1005.996460,234.892944 997.126282,234.987991 988.392456,235.183151 
	C980.168823,235.366882 971.597595,235.893387 963.865479,238.392227 
	C952.749390,241.984680 942.260681,247.513931 931.492737,252.190277 
	C926.454712,254.378265 920.211060,252.176010 916.450256,248.161377 
	C912.273621,243.702911 913.410950,238.118912 911.986633,233.098923 
	C910.950378,229.446915 909.700378,225.853851 908.723572,222.187119 
	C907.394409,217.197662 906.627930,212.023346 904.907959,207.181290 
	C902.458496,200.285416 899.702087,193.451065 896.457581,186.896957 
	C892.301453,178.501556 887.999512,170.105148 882.899353,162.269669 
	C877.112976,153.379822 871.041687,144.494843 863.881348,136.725601 
	C854.927429,127.010155 845.055969,118.058418 834.967224,109.500145 
	C828.483643,104.000130 821.020325,99.601784 813.762573,95.084839 
	C808.050720,91.530029 802.044128,88.427467 796.051147,85.352692 
	C791.559021,83.047958 786.940063,80.961815 782.269775,79.040314 
	C776.315247,76.590477 770.285095,74.311523 764.216797,72.158615 
	C762.254150,71.462326 760.052490,71.468864 757.986816,71.028961 
	C743.391296,67.920708 728.856628,64.313538 713.144531,66.507790 
	C713.830017,65.381439 714.095642,64.944893 714.515686,64.254745 
	C707.839722,64.254745 701.308594,64.254745 694.385742,64.254745 
	C695.195679,64.745667 695.802856,65.113678 697.264954,65.999901 
	C692.822998,65.999901 689.252075,65.718712 685.740479,66.055359 
	C677.016418,66.891701 668.147400,67.257462 659.653809,69.199631 
	C648.270264,71.802620 636.910522,75.013306 626.058655,79.280685 
	C617.154785,82.782059 608.939392,88.086769 600.546204,92.818115 
	C593.632629,96.715355 586.362061,100.262711 580.213135,105.171852 
	C568.519836,114.507431 557.081177,124.064445 547.170471,135.600372 
	C537.402283,146.970383 528.506042,158.778244 521.001160,171.638931 
	C516.325806,179.650925 512.020325,187.947861 508.358521,196.465027 
	C503.594269,207.546524 499.065735,218.796616 495.482239,230.300140 
	C491.698578,242.446198 488.816742,254.928345 489.991486,267.896729 
	C490.051208,268.556000 490.162201,269.305603 489.926666,269.881073 
	C488.540558,273.268127 487.497955,281.625061 488.017700,283.838348 
	C488.793854,287.143646 489.455719,290.484406 489.968811,293.840271 
	C490.435486,296.892242 490.701660,299.979614 490.940826,303.060333 
	C491.191284,306.286255 483.471191,313.787689 479.903168,314.016235 
	C472.690399,314.478210 466.600220,313.014587 460.463959,308.206543 
	C452.714081,302.134216 443.530945,297.870331 434.885834,292.967804 
	C427.942657,289.030426 421.047760,284.939819 413.814148,281.605438 
	C408.581604,279.193481 402.877838,277.735840 397.295135,276.170227 
	C391.427704,274.524719 385.486969,273.098022 379.517548,271.871063 
	C373.886475,270.713684 368.178772,269.926361 362.500641,269.001556 
	C354.323242,267.669678 346.166931,265.487244 337.956543,265.253723 
	C326.612823,264.931152 315.226837,266.079041 303.859985,266.618347 
	C303.047882,266.656860 302.248138,266.908447 301.435577,266.993439 
	C294.936951,267.673248 288.311951,267.765839 281.968597,269.150909 
	C274.177216,270.852203 266.745148,274.793549 258.929260,275.628754 
	C250.281555,276.552887 243.282150,280.993927 235.753754,284.034607 
	C225.797806,288.055817 215.893921,292.528687 207.345154,299.656433 
	C199.105515,306.526428 189.261139,311.515533 181.254700,318.609589 
	C172.688721,326.199432 164.931747,334.870911 157.760971,343.822723 
	C149.418503,354.237213 141.553619,365.132324 134.525833,376.466461 
	C130.048370,383.687500 127.216919,391.987305 124.112244,399.983887 
	C121.401962,406.964600 119.197754,414.154297 117.031761,421.330658 
	C114.414818,430.001099 113.233154,438.955811 111.675446,447.864288 
	C109.614525,459.650635 108.905373,471.358185 109.046371,483.199158 
	C109.122917,489.627380 109.507149,496.063965 110.059341,502.470306 
	C110.435112,506.829987 111.121178,511.192627 112.063164,515.466980 
	C113.537331,522.156189 114.264030,529.322388 117.295151,535.274292 
	C120.808716,542.173462 120.533195,550.163696 125.482460,556.722412 
	C128.993134,561.374817 129.499557,568.176331 132.148209,573.629456 
	C134.915054,579.325867 138.420776,584.706665 141.998062,589.956482 
	C147.856033,598.553345 153.806168,607.108337 160.168137,615.332275 
	C163.528564,619.676331 167.667648,623.475952 171.766663,627.176331 
	C177.118134,632.007324 183.160904,636.116577 188.222504,641.215149 
	C197.561050,650.621765 209.141403,656.672546 220.199799,663.471863 
	C224.834244,666.321289 230.285019,667.832397 235.334854,670.020813 
	C238.534912,671.407654 241.616577,673.084290 244.861801,674.347107 
	C253.518600,677.715393 262.064362,681.326904 271.544464,682.148315 
	C275.162018,682.461853 278.571350,684.703735 282.193207,685.581665 
	C285.509918,686.385559 288.974579,686.659912 292.392517,686.949585 
	C301.214752,687.697449 310.038849,688.728577 318.877380,688.910828 
	C334.369843,689.230469 349.874786,689.099243 365.371796,688.921570 
	C368.715057,688.883301 372.040009,687.802002 375.387421,687.293701 
	C376.675659,687.098022 378.027283,686.973694 379.308197,687.139587 
	C383.476318,687.679565 387.624817,688.918945 391.781342,688.921021 
	C574.270203,689.012634 756.759216,688.911804 939.247070,689.347351 
	C946.018738,689.363525 953.939941,689.152344 960.350098,693.711853 
	C964.054016,696.346558 966.122498,699.637634 966.020020,704.267761 
	C965.927917,708.432129 965.593140,712.648621 966.081848,716.756897 
	C967.255005,726.619995 958.556213,732.810791 949.490601,732.966431 
	C940.496216,733.120911 931.497070,733.000244 922.000000,733.000244 
z"/>
<path fill="#4A8ABA" opacity="1.000000" stroke="none" 
	d="
M1349.000000,665.000000 
	C1349.000000,681.662170 1349.185303,697.827026 1348.947754,713.985657 
	C1348.711060,730.091919 1342.312500,743.808044 1331.753418,755.762146 
	C1320.675659,768.303589 1306.818726,775.812012 1290.422974,778.743713 
	C1288.805298,779.033020 1287.116211,778.990234 1285.460327,778.990417 
	C1208.815063,779.001404 1132.169800,779.082336 1055.524780,778.930664 
	C1040.153564,778.900208 1026.884399,772.617432 1015.343018,762.778687 
	C1002.244324,751.612488 994.207092,737.428345 991.260376,720.433960 
	C990.979492,718.813599 991.010254,717.127441 991.009827,715.471863 
	C990.997803,665.485840 990.873962,615.499329 991.075439,565.514099 
	C991.137329,550.155762 997.373413,536.872925 1007.226501,525.332886 
	C1018.403748,512.242004 1032.584961,504.209106 1049.576416,501.252502 
	C1051.034668,500.998749 1052.550659,501.009949 1054.039917,501.009735 
	C1131.351685,500.998932 1208.663940,500.840576 1285.974609,501.140503 
	C1300.705200,501.197662 1313.544434,507.684265 1324.663330,517.213501 
	C1337.732788,528.414551 1345.793579,542.571228 1348.739868,559.565918 
	C1349.020752,561.186279 1348.989380,562.872375 1348.990112,564.527954 
	C1349.003296,597.851990 1349.000000,631.175964 1349.000000,665.000000 
M1028.015259,707.150940 
	C1028.582397,710.527710 1028.836060,713.993835 1029.769531,717.266113 
	C1034.318359,733.211609 1047.557739,741.917847 1064.822266,741.948364 
	C1134.642822,742.071777 1204.463623,742.031738 1274.284302,741.922607 
	C1278.652710,741.915833 1283.209351,741.405579 1287.353394,740.098694 
	C1304.468262,734.701111 1311.824585,722.714783 1311.925903,704.042480 
	C1312.159180,661.051514 1312.041504,618.058228 1311.930176,575.066284 
	C1311.919678,571.007141 1311.457397,566.801819 1310.329346,562.918701 
	C1305.664673,546.860718 1292.743774,538.080994 1274.899902,538.046875 
	C1212.411377,537.927490 1149.922363,537.956055 1087.433838,538.044922 
	C1077.333496,538.059265 1067.206909,538.315918 1057.141479,539.094604 
	C1046.382812,539.927002 1038.602417,545.919556 1033.007080,554.946228 
	C1028.953369,561.485596 1028.100464,568.873047 1028.074829,576.232178 
	C1027.923950,619.557251 1028.002075,662.882996 1028.015259,707.150940 
z"/>
<path fill="#1363A2" opacity="1.000000" stroke="none" 
	d="
M1754.178101,548.268311 
	C1755.560181,533.791504 1758.707764,520.339233 1764.894287,507.535034 
	C1785.441895,465.008301 1840.650635,467.850037 1860.116943,497.098663 
	C1860.286133,497.352844 1860.628418,497.491882 1861.489014,498.126312 
	C1862.704346,491.438995 1863.863770,485.059631 1865.031982,478.631714 
	C1872.792725,478.631714 1880.213135,478.631714 1888.036987,478.631714 
	C1888.036987,480.545990 1888.036987,482.180389 1888.036987,483.814789 
	C1888.036621,534.300598 1888.118530,584.786743 1887.943481,635.271973 
	C1887.918213,642.548340 1887.359497,649.972412 1885.827393,657.064514 
	C1882.029907,674.641968 1871.787842,687.683777 1855.050171,694.426941 
	C1826.569702,705.900879 1798.717163,701.929810 1771.036133,689.626648 
	C1772.524658,681.955994 1773.937134,674.676880 1775.427246,666.998047 
	C1787.611450,672.560120 1800.108887,675.818848 1813.184814,676.350098 
	C1818.817993,676.578979 1824.550171,676.542114 1830.119385,675.772156 
	C1848.067627,673.290466 1857.913940,662.052490 1858.878906,643.103210 
	C1859.242310,635.966797 1858.937988,628.796326 1858.937988,621.430176 
	C1858.461426,621.576355 1857.946411,621.577881 1857.687378,621.836182 
	C1825.243774,654.185486 1775.988159,643.396423 1759.806885,600.476807 
	C1753.470825,583.670593 1753.461060,566.264709 1754.178101,548.268311 
M1782.820312,564.476135 
	C1783.589478,571.398621 1783.747925,578.456543 1785.246826,585.217285 
	C1789.136475,602.762512 1800.008301,613.773926 1814.656616,615.958252 
	C1833.654297,618.791199 1848.088379,612.432190 1857.247925,596.994507 
	C1858.286865,595.243347 1858.977539,592.992920 1858.988647,590.969482 
	C1859.110229,568.667786 1859.101074,546.364929 1859.001099,524.063049 
	C1858.992676,522.184204 1858.499390,520.040649 1857.510986,518.474976 
	C1848.743286,504.587128 1836.102661,497.943390 1819.660767,499.162079 
	C1803.853027,500.333740 1794.484253,509.737762 1788.897705,523.838013 
	C1783.839233,536.605042 1782.632324,549.931763 1782.820312,564.476135 
z"/>
<path fill="#1363A2" opacity="1.000000" stroke="none" 
	d="
M2743.458740,624.975647 
	C2743.458496,629.115723 2743.458496,632.761169 2743.458496,636.717896 
	C2735.875244,636.717896 2728.644531,636.717896 2721.227295,636.717896 
	C2719.831055,630.560120 2718.439697,624.424316 2717.048340,618.288574 
	C2716.670410,617.997375 2716.292480,617.706177 2715.914551,617.414917 
	C2715.501465,618.283508 2715.208496,619.238220 2714.657715,620.008179 
	C2695.089844,647.360107 2644.816895,647.491333 2624.102051,617.032593 
	C2614.290283,602.605347 2610.142822,586.604065 2609.429443,569.531799 
	C2608.616455,550.080566 2610.147705,530.886230 2618.042725,512.760132 
	C2626.444824,493.469635 2639.682129,479.435364 2661.444580,476.317902 
	C2681.499512,473.444977 2699.540283,477.849670 2714.255615,495.098114 
	C2714.255615,465.508484 2714.255615,437.229004 2714.255615,408.654114 
	C2724.250000,408.654114 2733.496582,408.654114 2743.458984,408.654114 
	C2743.458984,480.648743 2743.458984,552.564819 2743.458740,624.975647 
M2694.832275,613.597595 
	C2702.214600,610.308228 2707.957275,605.090210 2712.072021,598.225525 
	C2713.365479,596.067322 2714.322998,593.327087 2714.342041,590.844849 
	C2714.514404,568.526978 2714.518555,546.206604 2714.336182,523.888855 
	C2714.316162,521.430054 2713.327637,518.635864 2711.926025,516.587341 
	C2702.818604,503.278503 2689.943115,497.682892 2674.048828,499.278809 
	C2658.456055,500.844482 2649.212402,510.505493 2644.220947,524.503113 
	C2636.873047,545.108643 2635.948730,566.272766 2641.375000,587.399780 
	C2645.017090,601.580688 2653.109619,612.455994 2668.524170,615.596497 
	C2677.134521,617.350769 2685.747803,616.992004 2694.832275,613.597595 
z"/>
<path fill="#1363A2" opacity="1.000000" stroke="none" 
	d="
M2274.395020,569.680542 
	C2273.809326,549.922424 2275.182617,530.901855 2282.983398,512.920898 
	C2291.274902,493.809357 2304.263428,479.751434 2325.789795,476.435272 
	C2346.050049,473.314148 2364.246826,477.689484 2379.123535,494.894867 
	C2379.123535,465.579193 2379.123535,437.325836 2379.123535,408.714172 
	C2389.132812,408.714172 2398.378418,408.714172 2408.041260,408.714172 
	C2408.041260,484.660645 2408.041260,560.691528 2408.041260,636.871582 
	C2400.789062,636.871582 2393.657471,636.871582 2386.287842,636.871582 
	C2384.833984,630.572693 2383.402832,624.373474 2381.784912,617.363281 
	C2374.035400,627.840149 2364.790527,634.821289 2352.921631,638.009827 
	C2318.468018,647.265381 2287.987305,629.385376 2278.241211,593.750122 
	C2276.150879,586.107361 2275.657471,578.027954 2274.395020,569.680542 
M2306.714355,588.649841 
	C2310.063965,599.132141 2315.339844,608.123413 2325.787354,613.038330 
	C2344.100098,621.653320 2365.891846,615.598694 2376.816162,598.632690 
	C2378.332275,596.277771 2379.305420,593.124573 2379.331055,590.329956 
	C2379.532959,568.347778 2379.524414,546.362183 2379.335449,524.379700 
	C2379.312988,521.753967 2378.389404,518.750244 2376.911377,516.585632 
	C2367.821045,503.274750 2354.939209,497.677826 2339.042236,499.281464 
	C2323.451172,500.854279 2314.204346,510.505585 2309.222412,524.509949 
	C2301.832031,545.284180 2301.267090,566.503235 2306.714355,588.649841 
z"/>
<path fill="#4A8ABA" opacity="1.000000" stroke="none" 
	d="
M1156.916138,375.924469 
	C1142.907471,378.147369 1130.970215,383.910126 1120.182251,392.302094 
	C1102.744995,405.866608 1092.997681,423.976990 1089.158325,445.387146 
	C1088.087280,451.359192 1088.177002,457.566467 1088.039429,463.672668 
	C1087.817627,473.519745 1080.321289,480.993958 1070.366943,480.999908 
	C1058.918945,481.006775 1051.434937,474.099670 1050.933594,463.910187 
	C1049.843628,441.754089 1053.514648,420.551025 1064.096680,401.016235 
	C1078.260986,374.868378 1098.965454,355.956085 1126.938965,344.774261 
	C1145.412231,337.389984 1164.476929,335.581390 1183.712036,337.257812 
	C1207.500244,339.331055 1228.823364,348.392029 1247.479126,363.821808 
	C1270.486694,382.850800 1284.673340,407.004059 1289.642212,436.134247 
	C1291.470093,446.850250 1291.145142,458.281677 1289.689453,469.102570 
	C1288.460693,478.238098 1278.451538,482.719574 1267.669556,480.937073 
	C1262.288696,480.047455 1253.811646,472.505096 1253.889282,463.699524 
	C1254.063721,443.937988 1249.948364,425.201569 1237.954224,408.955597 
	C1224.934937,391.321106 1207.663086,380.153595 1186.047485,376.013367 
	C1176.516724,374.187866 1166.927979,374.141296 1156.916138,375.924469 
z"/>
<path fill="#1363A2" opacity="1.000000" stroke="none" 
	d="
M1560.613525,559.462036 
	C1572.947632,590.444641 1562.102539,619.612122 1531.722534,632.178101 
	C1497.473633,646.344543 1464.187012,643.299194 1434.244995,620.047546 
	C1420.177856,609.123596 1414.016602,594.114746 1414.895020,575.939880 
	C1424.071899,575.939880 1432.985352,575.939880 1442.462891,575.939880 
	C1442.649658,578.033752 1442.738647,580.134705 1443.038452,582.205139 
	C1444.437988,591.873291 1448.818237,599.901978 1456.731445,605.712952 
	C1474.719849,618.922485 1494.531250,620.611511 1515.054199,613.475769 
	C1526.787231,609.396240 1534.609741,600.992920 1536.132324,587.984375 
	C1537.775513,573.944641 1533.235352,562.038208 1520.874268,555.213013 
	C1510.668701,549.577942 1499.384644,545.602539 1488.197388,542.113098 
	C1474.014282,537.689087 1460.173706,532.894897 1447.397217,525.075439 
	C1409.017334,501.586334 1412.710815,450.067413 1451.549438,429.499054 
	C1479.213989,414.848358 1520.570435,418.382843 1542.885010,437.966858 
	C1556.824097,450.200348 1564.786743,465.352234 1564.158325,484.777588 
	C1554.930298,484.777588 1545.874512,484.777588 1536.436890,484.777588 
	C1536.178223,482.437225 1536.060913,479.982697 1535.618164,477.588348 
	C1531.770142,456.777618 1513.865601,442.743378 1490.992432,443.578247 
	C1483.339966,443.857544 1475.295532,445.267120 1468.269165,448.181946 
	C1456.376343,453.115570 1450.537109,463.130646 1449.630127,476.055267 
	C1448.769653,488.317535 1454.146362,497.259186 1464.022461,503.801483 
	C1475.710815,511.544159 1489.034668,515.266602 1502.356812,518.940613 
	C1516.561646,522.858093 1530.112061,528.226501 1542.004639,537.157227 
	C1549.840820,543.041748 1556.277588,550.136475 1560.613525,559.462036 
z"/>
<path fill="#1363A2" opacity="1.000000" stroke="none" 
	d="
M2475.643555,485.607544 
	C2497.318604,473.217224 2519.797852,472.487579 2542.418945,480.481659 
	C2562.732422,487.660095 2573.775146,504.379089 2573.955566,526.230225 
	C2574.163330,551.386292 2573.766846,576.549194 2574.153076,601.701111 
	C2574.330811,613.276489 2575.747314,624.832947 2576.623047,636.677979 
	C2568.077393,636.677979 2558.389648,636.677979 2548.106934,636.677979 
	C2546.994629,629.471619 2545.866943,622.163025 2544.690918,614.542236 
	C2542.003418,617.392639 2539.545166,620.248657 2536.831787,622.837097 
	C2519.661865,639.216431 2499.383057,643.727417 2476.791992,637.661804 
	C2456.061279,632.095764 2444.252197,613.695679 2445.479004,590.631592 
	C2446.596924,569.614502 2458.614014,557.294067 2477.122559,550.010132 
	C2488.265381,545.624878 2499.979736,544.193726 2511.867676,544.084167 
	C2522.685791,543.984497 2533.505371,544.063110 2545.037598,544.063110 
	C2544.702881,534.675232 2546.364746,525.407410 2543.036377,516.401184 
	C2539.560791,506.996735 2532.538330,501.567932 2522.989990,499.472015 
	C2513.866211,497.469330 2504.746094,497.677826 2496.087158,501.644806 
	C2487.470703,505.592438 2482.061035,512.136353 2481.049561,522.111694 
	C2472.021973,522.111694 2463.226807,522.111694 2454.364502,522.111694 
	C2450.817139,511.714661 2459.492676,496.587250 2475.643555,485.607544 
M2544.949463,564.674988 
	C2544.408691,564.368713 2543.866699,563.793396 2543.327393,563.795715 
	C2530.673584,563.849182 2517.990479,563.470032 2505.375732,564.224243 
	C2495.045410,564.841980 2486.302002,569.540649 2479.663086,577.827454 
	C2470.534668,589.221313 2472.194336,612.763794 2494.214600,615.372070 
	C2512.178955,617.500061 2527.307129,611.750000 2539.575439,598.548340 
	C2543.557617,594.263306 2545.683594,589.298645 2545.169189,583.127563 
	C2544.686035,577.338745 2545.054199,571.478943 2544.949463,564.674988 
z"/>
<path fill="#1364A2" opacity="1.000000" stroke="none" 
	d="
M3326.502686,632.514404 
	C3311.287109,624.558716 3301.021729,612.440430 3295.485596,596.904907 
	C3286.480713,571.636475 3285.753662,545.735352 3295.290283,520.587830 
	C3303.977783,497.678345 3319.969482,480.990173 3345.080811,476.858490 
	C3382.861816,470.642181 3411.447266,487.212891 3418.768066,527.808472 
	C3420.813477,539.152466 3420.579590,550.907532 3421.432129,563.055176 
	C3386.690186,563.055176 3353.117676,563.055176 3319.646729,563.055176 
	C3315.128174,586.861572 3330.497803,612.852539 3351.847412,616.453247 
	C3370.223389,619.552307 3387.673828,616.176453 3402.923584,604.589111 
	C3403.963379,603.798950 3404.971680,602.967285 3406.321533,601.895447 
	C3410.139648,608.251038 3413.780029,614.310852 3417.356689,620.264709 
	C3399.404053,640.468140 3356.506592,646.237976 3326.502686,632.514404 
M3391.763672,536.651428 
	C3391.485596,533.836365 3391.318848,531.005005 3390.911865,528.208740 
	C3387.855957,507.212555 3372.502686,495.747070 3351.625977,498.821045 
	C3334.885742,501.285950 3320.079346,520.819702 3320.538574,540.338623 
	C3343.463135,540.338623 3366.402832,540.367310 3389.341553,540.221436 
	C3390.158447,540.216309 3390.964355,538.483032 3391.763672,536.651428 
z"/>
<path fill="#1364A2" opacity="1.000000" stroke="none" 
	d="
M1725.367432,530.625732 
	C1726.048096,541.488525 1726.634155,551.921997 1727.251465,562.914185 
	C1692.817261,562.914185 1659.260742,562.914185 1625.840576,562.914185 
	C1619.333740,588.273132 1639.314819,616.048279 1664.552979,617.278320 
	C1682.137573,618.135437 1698.238281,614.038452 1712.260132,601.858398 
	C1716.064087,608.143494 1719.714600,614.175049 1723.522217,620.466309 
	C1716.049927,627.972656 1707.102173,632.697083 1697.413208,635.790161 
	C1680.561279,641.169983 1663.308105,641.823425 1646.147949,637.556946 
	C1624.097046,632.074585 1609.188599,617.825256 1601.519897,596.896545 
	C1592.358398,571.893921 1591.802612,546.114563 1601.122803,521.079041 
	C1609.677856,498.098755 1625.514771,481.304443 1650.559937,476.973633 
	C1690.527710,470.062408 1718.802246,489.265747 1725.367432,530.625732 
M1633.587646,540.352661 
	C1654.838013,540.352661 1676.088501,540.352661 1697.978271,540.352661 
	C1697.601318,535.956482 1697.432129,532.182861 1696.931030,528.453796 
	C1694.889648,513.260559 1685.751953,502.297333 1672.766357,499.292816 
	C1656.961182,495.635925 1643.640503,500.980011 1634.753418,514.497559 
	C1629.717407,522.157471 1627.149048,530.629883 1626.022217,540.353088 
	C1628.397583,540.353088 1630.507324,540.353088 1633.587646,540.352661 
z"/>
<path fill="#1364A2" opacity="1.000000" stroke="none" 
	d="
M3905.621338,543.262207 
	C3905.647705,550.023438 3905.647705,556.311829 3905.647705,563.089111 
	C3871.657227,563.089111 3838.089844,563.089111 3804.617432,563.089111 
	C3800.243896,587.099792 3815.501953,612.866577 3836.855957,616.456543 
	C3855.227539,619.545166 3872.670654,616.177185 3887.914062,604.591309 
	C3888.953369,603.801392 3889.962402,602.971619 3891.315186,601.899048 
	C3895.140625,608.243286 3898.788574,614.293091 3902.556885,620.542358 
	C3894.032471,628.690430 3884.163818,633.767334 3873.344727,636.751160 
	C3857.684570,641.070007 3841.715820,641.581970 3825.895996,637.768616 
	C3804.046875,632.502014 3788.962158,618.768616 3781.021973,598.072021 
	C3771.196533,572.461060 3770.672119,546.050903 3780.364502,520.421143 
	C3788.952148,497.712250 3804.867432,481.123993 3829.747314,476.925629 
	C3868.489990,470.388031 3896.697754,488.020569 3903.983154,528.405029 
	C3904.837891,533.142517 3905.072754,537.991821 3905.621338,543.262207 
M3809.923584,521.504395 
	C3808.097412,527.485535 3806.271240,533.466675 3804.277588,539.997070 
	C3829.030518,539.997070 3852.730469,539.997070 3876.973145,539.997070 
	C3876.623535,535.996155 3876.432129,532.376465 3875.973633,528.790894 
	C3873.256104,507.532227 3857.770264,495.729279 3836.669678,498.822784 
	C3823.404785,500.767548 3815.809082,509.609192 3809.923584,521.504395 
z"/>
<path fill="#1363A2" opacity="1.000000" stroke="none" 
	d="
M3141.720459,500.283203 
	C3153.218506,515.203430 3158.237549,532.012085 3159.002197,550.245117 
	C3159.612549,564.795471 3158.827393,579.188049 3153.985840,593.131104 
	C3143.987305,621.924744 3120.733643,639.466248 3091.654297,640.024841 
	C3058.387207,640.663879 3034.550293,625.782043 3023.593506,595.733704 
	C3013.637695,568.430847 3013.952148,540.738403 3026.139404,514.031250 
	C3049.508057,462.821655 3117.989502,466.795746 3141.720459,500.283203 
M3047.018799,573.296692 
	C3049.149902,580.600952 3050.526367,588.237793 3053.568359,595.140686 
	C3060.090576,609.940491 3071.816650,617.421448 3088.229736,617.424194 
	C3104.694580,617.427002 3115.935059,609.564331 3122.965088,595.059814 
	C3130.897461,578.694397 3131.560791,561.235413 3129.227295,543.789673 
	C3128.062012,535.079224 3125.236816,526.192261 3121.275391,518.336487 
	C3112.805664,501.539642 3095.635742,494.829926 3077.359863,499.631012 
	C3063.132080,503.368591 3055.721436,513.762451 3050.982422,526.613403 
	C3045.502686,541.472778 3045.188965,556.871094 3047.018799,573.296692 
z"/>
<path fill="#1363A2" opacity="1.000000" stroke="none" 
	d="
M2881.001953,423.774109 
	C2920.428223,423.774048 2959.355469,423.774048 2998.535889,423.774048 
	C2998.535889,431.435669 2998.535889,438.544037 2998.535889,446.277710 
	C2963.833740,446.277710 2929.133301,446.277710 2894.166016,446.277710 
	C2894.166016,471.003784 2894.166016,495.110229 2894.166016,519.753540 
	C2923.774902,519.753540 2953.490479,519.753540 2983.524414,519.753540 
	C2983.524414,527.526245 2983.524414,534.771973 2983.524414,542.616760 
	C2953.843262,542.616760 2924.141846,542.616760 2893.994629,542.616760 
	C2893.994629,574.271484 2893.994629,605.336914 2893.994629,636.718628 
	C2884.168945,636.718628 2874.789062,636.718628 2865.166016,636.718628 
	C2865.166016,565.875977 2865.166016,495.159973 2865.166016,423.774170 
	C2870.322754,423.774170 2875.412598,423.774170 2881.001953,423.774109 
z"/>
<path fill="#1363A2" opacity="1.000000" stroke="none" 
	d="
M2058.458740,602.000122 
	C2058.458496,613.809143 2058.458496,625.118042 2058.458496,636.729919 
	C2049.691895,636.729919 2041.293335,636.729919 2032.469238,636.729919 
	C2031.861816,629.662109 2031.256348,622.617004 2030.581787,614.768005 
	C2029.504517,615.926758 2028.836914,616.512573 2028.326538,617.213074 
	C2014.080933,636.769104 1992.869141,644.311890 1968.804810,638.358887 
	C1947.857056,633.176819 1934.489624,617.547302 1931.088013,593.722046 
	C1930.031982,586.324036 1929.344727,578.809631 1929.293701,571.343018 
	C1929.092041,541.848328 1929.207153,512.351501 1929.218872,482.855438 
	C1929.219360,481.558197 1929.359009,480.261017 1929.451172,478.663574 
	C1938.917114,478.663574 1948.168457,478.663574 1958.171387,478.663574 
	C1958.171387,480.451508 1958.171387,482.201202 1958.171265,483.950928 
	C1958.170654,512.780396 1957.969604,541.612061 1958.292114,570.437866 
	C1958.388306,579.033508 1959.210571,587.772156 1961.015869,596.162292 
	C1963.772461,608.973877 1971.380615,615.150940 1984.399658,616.211609 
	C2001.955322,617.642029 2017.243896,613.389404 2026.977539,597.272949 
	C2028.515381,594.726685 2029.420898,591.379211 2029.435425,588.396301 
	C2029.605225,553.735229 2029.547485,519.072876 2029.549927,484.410889 
	C2029.550049,482.612793 2029.549927,480.814667 2029.549927,478.685455 
	C2039.250000,478.685455 2048.488037,478.685455 2058.458984,478.685455 
	C2058.458984,519.641235 2058.458984,560.570679 2058.458740,602.000122 
z"/>
<path fill="#1363A2" opacity="1.000000" stroke="none" 
	d="
M3452.963379,566.000000 
	C3452.974365,537.003662 3452.984863,508.507294 3453.006348,480.010925 
	C3453.006592,479.687836 3453.153564,479.364868 3453.316406,478.695374 
	C3461.625000,478.695374 3470.018311,478.695374 3478.702148,478.695374 
	C3479.403809,486.037750 3480.092529,493.244080 3480.875000,501.430542 
	C3482.078613,499.874359 3482.680664,499.144653 3483.230713,498.377930 
	C3500.377441,474.476898 3528.125488,471.136078 3551.085938,479.615997 
	C3568.433350,486.022980 3576.865723,499.924194 3579.867676,517.413574 
	C3581.045654,524.274780 3581.607910,531.319214 3581.647949,538.284912 
	C3581.830811,570.113281 3581.729492,601.943298 3581.724121,633.772766 
	C3581.724121,634.591003 3581.650391,635.409302 3581.591553,636.629028 
	C3572.112061,636.629028 3562.744141,636.629028 3552.776367,636.629028 
	C3552.776367,634.902466 3552.776367,633.134705 3552.776367,631.366943 
	C3552.776367,601.370605 3552.886230,571.373535 3552.692383,541.378479 
	C3552.648438,534.587158 3552.084229,527.700562 3550.813232,521.038330 
	C3548.765869,510.308868 3542.297607,502.975250 3531.401367,500.606140 
	C3513.844482,496.788818 3497.937744,499.321991 3485.574951,513.853577 
	C3482.991455,516.889954 3481.832275,520.152893 3481.849854,524.287720 
	C3482.002197,559.782715 3481.937500,595.278687 3481.937500,630.774353 
	C3481.937500,632.598145 3481.937500,634.421875 3481.937500,636.641113 
	C3472.388428,636.641113 3463.001709,636.641113 3452.963623,636.641113 
	C3452.963623,613.349304 3452.963623,589.924683 3452.963379,566.000000 
z"/>
<path fill="#1363A2" opacity="1.000000" stroke="none" 
	d="
M3623.801270,528.197510 
	C3621.930176,514.265869 3626.222412,502.802734 3635.619141,493.204834 
	C3649.158691,479.375366 3666.258301,475.200836 3684.894775,475.592865 
	C3701.233154,475.936554 3716.104980,480.387360 3728.179199,491.985229 
	C3737.349365,500.792969 3742.803711,511.259003 3742.019043,524.770264 
	C3732.895996,524.770264 3723.847900,524.770264 3714.785645,524.770264 
	C3708.988281,502.767670 3689.946289,492.801758 3668.179932,500.404633 
	C3656.774902,504.388336 3650.475342,515.067505 3652.798828,526.201233 
	C3654.115234,532.509583 3657.968750,536.809143 3663.740967,538.807922 
	C3671.882080,541.627014 3680.395752,543.362000 3688.560547,546.121155 
	C3700.480957,550.149292 3712.857422,553.471802 3723.936768,559.220215 
	C3754.381348,575.015808 3748.416260,610.840027 3729.091309,625.890076 
	C3719.057129,633.704529 3707.764404,638.009460 3695.264160,639.379517 
	C3679.829834,641.070923 3664.561279,640.399902 3650.196045,633.929504 
	C3634.354980,626.794312 3623.030518,615.453857 3619.503906,597.763062 
	C3618.901367,594.739868 3619.063965,591.564087 3618.856201,588.183960 
	C3628.346924,588.183960 3637.278809,588.183960 3646.580322,588.183960 
	C3646.716797,588.830139 3646.947510,589.569824 3647.021729,590.324890 
	C3648.159912,601.912292 3654.287354,609.772095 3665.030273,613.941223 
	C3677.323486,618.711853 3689.818604,618.974426 3702.025391,613.914185 
	C3710.442871,610.424805 3715.884277,604.155518 3715.989502,594.473816 
	C3716.092529,584.969421 3711.031494,578.424072 3702.620117,575.306824 
	C3692.531006,571.568054 3682.018555,568.950134 3671.642090,566.014526 
	C3660.067383,562.740112 3648.780518,558.824646 3638.846924,551.829529 
	C3630.760986,546.135315 3625.257568,538.684387 3623.801270,528.197510 
z"/>
<path fill="#1263A2" opacity="1.000000" stroke="none" 
	d="
M3251.878418,476.757141 
	C3258.992676,476.649841 3265.709473,476.649841 3273.014893,476.649841 
	C3271.609375,486.149567 3270.309570,494.935089 3268.986084,503.879669 
	C3261.341309,503.879669 3253.979004,503.187378 3246.800293,504.040802 
	C3235.848633,505.342834 3228.509521,512.221863 3223.852783,521.951599 
	C3223.043701,523.642578 3222.976074,525.803650 3222.973389,527.748230 
	C3222.923584,562.227478 3222.936768,596.706726 3222.936768,631.186035 
	C3222.936768,632.974426 3222.936768,634.762878 3222.936768,636.790649 
	C3213.217529,636.790649 3203.951416,636.790649 3194.323242,636.790649 
	C3194.323242,584.176514 3194.323242,531.509521 3194.323242,478.595886 
	C3202.734619,478.595886 3210.997559,478.595886 3219.688721,478.595886 
	C3220.599609,485.671753 3221.498779,492.657349 3222.563232,500.926483 
	C3230.094971,489.280212 3238.425293,480.076630 3251.878418,476.757141 
z"/>
<path fill="#1363A2" opacity="1.000000" stroke="none" 
	d="
M2128.935547,553.000000 
	C2128.935547,581.117981 2128.935547,608.735962 2128.935547,636.695129 
	C2119.284424,636.695129 2109.904297,636.695129 2100.241699,636.695129 
	C2100.241699,584.135437 2100.241699,531.591187 2100.241699,478.698181 
	C2108.620850,478.698181 2117.011963,478.698181 2125.714111,478.698181 
	C2126.619873,485.763733 2127.514648,492.744537 2128.578857,501.045349 
	C2136.440186,488.460083 2145.513184,478.823486 2159.564209,476.463959 
	C2165.750732,475.425110 2172.256592,476.289001 2179.091797,476.289001 
	C2177.608154,486.259705 2176.317139,494.935516 2174.990967,503.847565 
	C2167.536621,503.847565 2160.188721,503.184204 2153.009277,504.001892 
	C2142.051758,505.249939 2134.683838,512.064636 2129.933838,521.746826 
	C2129.173828,523.295898 2128.999756,525.251892 2128.979980,527.024536 
	C2128.885010,535.515442 2128.936279,544.007996 2128.935547,553.000000 
z"/>
<path fill="#1464A2" opacity="1.000000" stroke="none" 
	d="
M2207.151367,602.000000 
	C2207.151367,560.691895 2207.151367,519.883789 2207.151367,478.711823 
	C2216.847900,478.711823 2226.236816,478.711823 2235.875244,478.711823 
	C2235.875244,531.436646 2235.875244,584.000671 2235.875244,636.801758 
	C2226.393555,636.801758 2217.123291,636.801758 2207.151367,636.801758 
	C2207.151367,625.356995 2207.151367,613.928528 2207.151367,602.000000 
z"/>
<path fill="#1766A3" opacity="1.000000" stroke="none" 
	d="
M2221.997314,408.335938 
	C2226.797119,408.335999 2231.100342,408.335999 2235.761719,408.335999 
	C2235.761719,418.241638 2235.761719,427.789673 2235.761719,437.661926 
	C2226.469238,437.661926 2217.090332,437.661926 2207.424805,437.661926 
	C2207.424805,427.999237 2207.424805,418.454132 2207.424805,408.335846 
	C2212.269043,408.335846 2216.884766,408.335846 2221.997314,408.335938 
z"/>
<path fill="#D3E2EE" opacity="1.000000" stroke="none" 
	d="
M650.284058,594.297119 
	C657.339294,585.402222 664.150635,576.768005 671.464661,567.496521 
	C670.582764,574.684204 649.519653,601.189941 642.153687,604.065735 
	C644.782532,600.896423 647.411377,597.727173 650.284058,594.297119 
z"/>
<path fill="#FFFFFF" opacity="1.000000" stroke="none" 
	d="
M1028.009155,706.679749 
	C1028.002075,662.882996 1027.923950,619.557251 1028.074829,576.232178 
	C1028.100464,568.873047 1028.953369,561.485596 1033.007080,554.946228 
	C1038.602417,545.919556 1046.382812,539.927002 1057.141479,539.094604 
	C1067.206909,538.315918 1077.333496,538.059265 1087.433838,538.044922 
	C1149.922363,537.956055 1212.411377,537.927490 1274.899902,538.046875 
	C1292.743774,538.080994 1305.664673,546.860718 1310.329346,562.918701 
	C1311.457397,566.801819 1311.919678,571.007141 1311.930176,575.066284 
	C1312.041504,618.058228 1312.159180,661.051514 1311.925903,704.042480 
	C1311.824585,722.714783 1304.468262,734.701111 1287.353394,740.098694 
	C1283.209351,741.405579 1278.652710,741.915833 1274.284302,741.922607 
	C1204.463623,742.031738 1134.642822,742.071777 1064.822266,741.948364 
	C1047.557739,741.917847 1034.318359,733.211609 1029.769531,717.266113 
	C1028.836060,713.993835 1028.582397,710.527710 1028.009155,706.679749 
z"/>
<path fill="#FEFEFF" opacity="1.000000" stroke="none" 
	d="
M1782.807373,563.980713 
	C1782.632324,549.931763 1783.839233,536.605042 1788.897705,523.838013 
	C1794.484253,509.737762 1803.853027,500.333740 1819.660767,499.162079 
	C1836.102661,497.943390 1848.743286,504.587128 1857.510986,518.474976 
	C1858.499390,520.040649 1858.992676,522.184204 1859.001099,524.063049 
	C1859.101074,546.364929 1859.110229,568.667786 1858.988647,590.969482 
	C1858.977539,592.992920 1858.286865,595.243347 1857.247925,596.994507 
	C1848.088379,612.432190 1833.654297,618.791199 1814.656616,615.958252 
	C1800.008301,613.773926 1789.136475,602.762512 1785.246826,585.217285 
	C1783.747925,578.456543 1783.589478,571.398621 1782.807373,563.980713 
z"/>
<path fill="#FEFEFF" opacity="1.000000" stroke="none" 
	d="
M2694.469482,613.746277 
	C2685.747803,616.992004 2677.134521,617.350769 2668.524170,615.596497 
	C2653.109619,612.455994 2645.017090,601.580688 2641.375000,587.399780 
	C2635.948730,566.272766 2636.873047,545.108643 2644.220947,524.503113 
	C2649.212402,510.505493 2658.456055,500.844482 2674.048828,499.278809 
	C2689.943115,497.682892 2702.818604,503.278503 2711.926025,516.587341 
	C2713.327637,518.635864 2714.316162,521.430054 2714.336182,523.888855 
	C2714.518555,546.206604 2714.514404,568.526978 2714.342041,590.844849 
	C2714.322998,593.327087 2713.365479,596.067322 2712.072021,598.225525 
	C2707.957275,605.090210 2702.214600,610.308228 2694.469482,613.746277 
z"/>
<path fill="#FEFEFF" opacity="1.000000" stroke="none" 
	d="
M2306.555664,588.278198 
	C2301.267090,566.503235 2301.832031,545.284180 2309.222412,524.509949 
	C2314.204346,510.505585 2323.451172,500.854279 2339.042236,499.281464 
	C2354.939209,497.677826 2367.821045,503.274750 2376.911377,516.585632 
	C2378.389404,518.750244 2379.312988,521.753967 2379.335449,524.379700 
	C2379.524414,546.362183 2379.532959,568.347778 2379.331055,590.329956 
	C2379.305420,593.124573 2378.332275,596.277771 2376.816162,598.632690 
	C2365.891846,615.598694 2344.100098,621.653320 2325.787354,613.038330 
	C2315.339844,608.123413 2310.063965,599.132141 2306.555664,588.278198 
z"/>
<path fill="#FDFEFE" opacity="1.000000" stroke="none" 
	d="
M2544.998779,565.162659 
	C2545.054199,571.478943 2544.686035,577.338745 2545.169189,583.127563 
	C2545.683594,589.298645 2543.557617,594.263306 2539.575439,598.548340 
	C2527.307129,611.750000 2512.178955,617.500061 2494.214600,615.372070 
	C2472.194336,612.763794 2470.534668,589.221313 2479.663086,577.827454 
	C2486.302002,569.540649 2495.045410,564.841980 2505.375732,564.224243 
	C2517.990479,563.470032 2530.673584,563.849182 2543.327393,563.795715 
	C2543.866699,563.793396 2544.408691,564.368713 2544.998779,565.162659 
z"/>
<path fill="#FDFEFE" opacity="1.000000" stroke="none" 
	d="
M3391.769531,537.103333 
	C3390.964355,538.483032 3390.158447,540.216309 3389.341553,540.221436 
	C3366.402832,540.367310 3343.463135,540.338623 3320.538574,540.338623 
	C3320.079346,520.819702 3334.885742,501.285950 3351.625977,498.821045 
	C3372.502686,495.747070 3387.855957,507.212555 3390.911865,528.208740 
	C3391.318848,531.005005 3391.485596,533.836365 3391.769531,537.103333 
z"/>
<path fill="#FDFEFE" opacity="1.000000" stroke="none" 
	d="
M1633.102295,540.352905 
	C1630.507324,540.353088 1628.397583,540.353088 1626.022217,540.353088 
	C1627.149048,530.629883 1629.717407,522.157471 1634.753418,514.497559 
	C1643.640503,500.980011 1656.961182,495.635925 1672.766357,499.292816 
	C1685.751953,502.297333 1694.889648,513.260559 1696.931030,528.453796 
	C1697.432129,532.182861 1697.601318,535.956482 1697.978271,540.352661 
	C1676.088501,540.352661 1654.838013,540.352661 1633.102295,540.352905 
z"/>
<path fill="#FDFEFE" opacity="1.000000" stroke="none" 
	d="
M3810.049316,521.146301 
	C3815.809082,509.609192 3823.404785,500.767548 3836.669678,498.822784 
	C3857.770264,495.729279 3873.256104,507.532227 3875.973633,528.790894 
	C3876.432129,532.376465 3876.623535,535.996155 3876.973145,539.997070 
	C3852.730469,539.997070 3829.030518,539.997070 3804.277588,539.997070 
	C3806.271240,533.466675 3808.097412,527.485535 3810.049316,521.146301 
z"/>
<path fill="#FEFEFE" opacity="1.000000" stroke="none" 
	d="
M3046.981689,572.854126 
	C3045.188965,556.871094 3045.502686,541.472778 3050.982422,526.613403 
	C3055.721436,513.762451 3063.132080,503.368591 3077.359863,499.631012 
	C3095.635742,494.829926 3112.805664,501.539642 3121.275391,518.336487 
	C3125.236816,526.192261 3128.062012,535.079224 3129.227295,543.789673 
	C3131.560791,561.235413 3130.897461,578.694397 3122.965088,595.059814 
	C3115.935059,609.564331 3104.694580,617.427002 3088.229736,617.424194 
	C3071.816650,617.421448 3060.090576,609.940491 3053.568359,595.140686 
	C3050.526367,588.237793 3049.149902,580.600952 3046.981689,572.854126 
z"/>
</svg>