<svg version="1.1" id="Layer_1" xmlns="http://www.w3.org/2000/svg" xmlns:xlink="http://www.w3.org/1999/xlink" x="0px" y="0px"
	 width="100%" viewBox="0 0 3402 1100" enable-background="new 0 0 3402 1100" xml:space="preserve">
<path fill="#FFFFFF" opacity="1.000000" stroke="none" 
	d="
M2260.000000,1101.000000 
	C1506.666626,1101.000000 753.833313,1101.000000 1.000000,1101.000000 
	C1.000000,734.333313 1.000000,367.666656 1.000000,1.000000 
	C1135.000000,1.000000 2269.000000,1.000000 3403.000000,1.000000 
	C3403.000000,367.666656 3403.000000,734.333313 3403.000000,1101.000000 
	C3022.166748,1101.000000 2641.333252,1101.000000 2260.000000,1101.000000 
M315.971252,984.435608 
	C317.764130,984.808716 319.548340,985.231384 321.351227,985.547424 
	C341.161133,989.020386 360.896454,993.058716 380.816254,995.709656 
	C391.973724,997.194458 403.438019,996.561340 414.764130,996.563354 
	C689.581421,996.612854 964.398743,996.631897 1239.216064,996.534485 
	C1244.247437,996.532654 1249.401855,995.498169 1254.281982,994.156494 
	C1262.825439,991.807678 1268.168945,984.547974 1268.440186,975.680420 
	C1268.597900,970.518860 1268.587158,965.345520 1268.449097,960.182983 
	C1268.185425,950.325867 1261.270996,942.152893 1251.591064,940.717651 
	C1245.549194,939.821777 1239.400269,939.214478 1233.299194,939.212708 
	C979.253906,939.139343 725.208679,939.149292 471.163391,939.148315 
	C448.331390,939.148254 425.497925,939.306458 402.667786,939.100037 
	C376.209747,938.860840 350.213318,934.925354 324.919647,927.267395 
	C290.237732,916.767029 258.576233,900.334290 230.167679,877.655396 
	C181.102249,838.485962 148.127792,788.657410 131.730316,728.167542 
	C122.863693,695.458740 120.062042,662.070923 123.487297,628.144531 
	C126.916260,594.181580 135.593109,561.780823 150.661331,531.216248 
	C179.260605,473.205170 222.621048,429.648743 280.375336,400.540192 
	C301.513336,389.886536 323.619476,381.716705 346.972900,377.519562 
	C361.662354,374.879517 376.452057,372.337311 391.307434,371.213806 
	C405.392456,370.148560 419.636383,370.594757 433.782349,371.125122 
	C443.899384,371.504364 454.068176,372.564270 464.036774,374.323853 
	C476.768219,376.571167 489.510651,379.183899 501.901031,382.822113 
	C515.806152,386.905090 529.759460,391.353333 542.910034,397.355469 
	C563.955200,406.960724 583.504822,419.338928 602.463623,432.687592 
	C606.581238,435.586731 612.728027,436.321991 618.021484,436.622559 
	C622.901306,436.899658 626.335571,433.372253 628.876282,428.993347 
	C632.270386,423.143372 631.195557,417.042236 630.377625,411.070862 
	C626.252319,380.954529 629.679260,351.499695 638.617981,322.718811 
	C647.376160,294.518982 660.088684,267.915802 674.727966,242.358505 
	C694.352600,208.097885 720.663513,179.624313 752.553406,156.346725 
	C780.191284,136.172867 810.448120,121.482094 843.460388,112.239693 
	C864.434143,106.367683 885.750916,102.899841 907.404236,101.973778 
	C945.589844,100.340645 982.665283,106.250008 1018.569092,119.618675 
	C1049.737549,131.224167 1077.929565,147.805023 1103.240845,169.279053 
	C1133.685303,195.108093 1157.647705,226.128067 1175.592163,261.711060 
	C1185.980957,282.311554 1193.030884,304.127594 1197.149536,326.875519 
	C1198.298584,333.221405 1199.285889,339.726044 1201.534180,345.712158 
	C1204.656006,354.024506 1215.586182,357.111603 1223.161377,352.542175 
	C1237.243286,344.047913 1252.271851,337.930206 1268.261597,334.034576 
	C1296.021240,327.271484 1323.548462,328.740234 1350.530884,337.313171 
	C1376.322632,345.507843 1398.697998,359.606232 1417.106323,379.673096 
	C1430.599365,394.381775 1441.887573,410.427795 1447.959595,429.734802 
	C1448.842529,432.542053 1449.914185,436.415131 1452.053955,437.485382 
	C1457.866821,440.393127 1463.904541,443.763153 1470.989136,441.985291 
	C1475.827515,440.771118 1480.674561,439.572510 1485.557495,438.559204 
	C1491.312378,437.364899 1495.323730,433.779083 1498.764282,429.356567 
	C1500.192871,427.520477 1501.230225,425.329651 1502.851440,423.705200 
	C1505.656738,420.894287 1505.491333,418.008789 1504.278320,414.564850 
	C1495.842041,390.611633 1483.342896,368.968689 1466.955566,349.645386 
	C1427.528809,303.154358 1377.263672,277.623169 1316.515015,273.194824 
	C1294.487305,271.589142 1272.588867,273.373901 1251.153320,279.234283 
	C1247.463379,280.243103 1244.280029,280.878632 1242.581055,275.659576 
	C1234.887695,252.025879 1224.141724,229.770584 1211.248291,208.541550 
	C1188.859375,171.678223 1160.415405,140.262070 1126.141235,114.118637 
	C1097.116211,91.979149 1065.448120,74.584984 1030.778809,63.182014 
	C1014.244019,57.743607 997.218506,53.585178 980.177917,49.964375 
	C966.891724,47.141335 953.276123,44.896938 939.739685,44.455189 
	C920.369629,43.823055 900.985229,43.120613 881.538086,46.439976 
	C860.038879,50.109585 838.618652,53.615223 817.729614,60.107697 
	C784.318359,70.492195 753.385437,85.768631 724.719055,105.766655 
	C691.065430,129.243866 662.520630,157.780823 639.133362,191.512253 
	C624.009766,213.325012 610.995117,236.371658 602.010559,261.289398 
	C595.213074,280.141388 590.048523,299.647827 585.258484,319.133698 
	C582.333435,331.032990 581.428162,343.435883 579.758179,355.632080 
	C579.285767,359.082550 578.528015,360.581390 574.773621,358.422272 
	C555.584229,347.386566 535.432190,338.550232 514.440063,331.432068 
	C485.540649,321.632690 455.855408,315.943604 425.500519,314.349121 
	C374.791138,311.685364 325.712189,319.486755 278.457367,338.592407 
	C241.072433,353.707550 207.463135,374.758148 177.632370,401.714996 
	C138.662231,436.930786 109.453430,479.003723 89.578186,527.751831 
	C76.639290,559.487061 68.912788,592.450562 65.808525,626.301636 
	C63.547142,650.961365 63.956543,675.890808 67.682762,700.569763 
	C73.380920,738.308960 84.017059,774.469299 101.451706,808.570068 
	C136.406113,876.938049 188.446640,927.904175 257.080444,962.074768 
	C275.718292,971.354004 295.251678,978.313843 315.971252,984.435608 
M1301.896240,964.466064 
	C1302.208618,968.606018 1302.374146,972.763062 1302.855713,976.883240 
	C1308.218384,1022.761047 1349.148682,1058.251221 1396.213989,1058.095825 
	C1492.860718,1057.776733 1589.509277,1058.002930 1686.157104,1057.987915 
	C1689.486572,1057.987427 1692.847168,1058.068970 1696.140747,1057.673340 
	C1746.277222,1051.653198 1780.951782,1009.820007 1780.215332,960.463562 
	C1779.337769,901.654846 1780.035767,842.822876 1779.965820,784.001160 
	C1779.959106,778.361206 1779.608398,772.692749 1778.977905,767.086975 
	C1774.056519,723.332825 1733.751953,686.977356 1689.401733,686.890747 
	C1590.421387,686.697510 1491.440430,686.760132 1392.460083,686.969666 
	C1385.075195,686.985352 1377.497437,688.274536 1370.344238,690.209473 
	C1329.547974,701.244446 1301.417969,739.265503 1301.770264,782.011841 
	C1302.268799,842.495972 1301.895142,902.987183 1301.896240,964.466064 
M1381.984253,630.486450 
	C1382.126221,634.461365 1381.559204,638.621826 1382.541992,642.376648 
	C1385.583740,653.996582 1394.574829,659.981018 1407.884399,659.984680 
	C1421.423828,659.988403 1430.988403,650.165405 1431.307251,636.589844 
	C1431.529663,627.124146 1431.612427,617.518188 1433.272095,608.245972 
	C1442.221558,558.247925 1484.427979,520.164856 1534.782959,517.318726 
	C1573.291138,515.142273 1605.164429,529.501892 1629.371338,559.651794 
	C1646.886597,581.467285 1653.883911,606.836548 1653.163818,634.660767 
	C1652.750977,650.613892 1662.385132,659.986511 1678.212769,659.984253 
	C1692.866943,659.982056 1702.922852,650.119385 1702.673584,635.491516 
	C1702.517944,626.354431 1702.162231,617.176270 1701.115112,608.106750 
	C1696.806152,570.781494 1680.869873,538.839417 1653.889771,513.008240 
	C1617.380005,478.053223 1573.489746,463.358887 1523.098999,468.917603 
	C1489.784180,472.592651 1460.482300,485.876099 1435.752197,508.206787 
	C1399.982666,540.505615 1382.125244,581.182068 1381.984253,630.486450 
M2332.133301,503.508026 
	C2333.654053,515.543823 2333.634277,527.525269 2330.553711,539.343994 
	C2327.385010,551.501038 2319.657471,559.210815 2307.557617,562.631287 
	C2294.228516,566.399231 2280.783936,565.854919 2267.485840,563.063293 
	C2258.164795,561.106567 2249.086670,557.991943 2239.608398,555.311890 
	C2238.363770,561.494446 2237.248291,568.036194 2235.676758,574.466492 
	C2234.752930,578.245544 2235.776123,580.038940 2239.390625,581.628601 
	C2260.000488,590.693359 2281.486816,593.965515 2303.773682,591.524536 
	C2317.864502,589.981079 2331.179199,585.843750 2342.393066,576.692749 
	C2358.750488,563.344421 2364.894287,545.277588 2364.968750,524.948303 
	C2365.184326,466.134888 2365.075684,407.320343 2365.082764,348.506226 
	C2365.083008,347.364777 2364.940430,346.223328 2364.832764,344.605927 
	C2357.887451,344.605927 2351.068115,344.879944 2344.284912,344.504486 
	C2340.127441,344.274353 2338.773926,345.920166 2338.322754,349.722839 
	C2337.670898,355.216003 2336.565430,360.655334 2335.513184,366.959656 
	C2334.237793,365.488129 2333.670410,364.904083 2333.182129,364.260010 
	C2315.536377,340.973694 2286.011230,336.856934 2262.429688,345.000763 
	C2242.264893,351.964508 2230.789551,367.744934 2223.756104,386.844482 
	C2214.013428,413.301300 2212.959961,440.657135 2218.709717,468.047424 
	C2224.272705,494.548859 2241.823730,522.204773 2279.213379,524.391968 
	C2299.781738,525.595215 2317.750732,520.087585 2332.133301,503.508026 
M2943.052734,302.500000 
	C2943.052734,290.717987 2943.052734,278.935974 2943.052734,266.894958 
	C2932.066650,266.894958 2921.682129,266.894958 2910.674805,266.894958 
	C2910.674805,298.644562 2910.674805,330.030029 2910.674805,362.167145 
	C2909.266602,361.169708 2908.541992,360.810791 2908.016113,360.261505 
	C2889.010254,340.410950 2865.901123,337.260132 2840.915283,344.968475 
	C2821.885010,350.839447 2810.536133,365.507782 2803.269775,383.223633 
	C2791.845215,411.077881 2790.740234,440.094666 2797.082520,469.100067 
	C2803.472656,498.323364 2823.126953,522.290527 2856.941895,524.348022 
	C2878.081787,525.634338 2896.496826,520.076416 2910.255127,502.980743 
	C2911.149902,501.869202 2911.616699,500.413391 2912.282959,499.117889 
	C2912.741699,499.550934 2913.200439,499.983978 2913.659180,500.417053 
	C2915.179932,507.184906 2916.700684,513.952820 2918.224609,520.734985 
	C2926.565186,520.734985 2934.625977,520.734985 2943.052979,520.734985 
	C2943.052979,448.074005 2943.052979,375.786987 2943.052734,302.500000 
M3317.049805,298.500000 
	C3317.049805,288.051056 3317.049805,277.602081 3317.049805,266.895630 
	C3306.060059,266.895630 3295.674805,266.895630 3284.668945,266.895630 
	C3284.668945,298.647125 3284.668945,330.035126 3284.668945,362.182159 
	C3283.262939,361.177246 3282.532471,360.821411 3282.020020,360.264923 
	C3266.008789,342.868225 3245.764648,338.736816 3223.550293,342.553101 
	C3202.702637,346.134552 3188.459717,359.139191 3179.855957,377.815430 
	C3164.475342,411.200806 3162.906006,445.942017 3174.706299,480.462158 
	C3183.537842,506.298065 3202.052002,522.182007 3230.427979,524.268127 
	C3251.967285,525.851562 3270.637207,520.074341 3284.564941,502.605591 
	C3285.354736,501.614929 3285.643311,500.224396 3286.165283,499.019989 
	C3286.658447,499.482971 3287.151611,499.945923 3287.644531,500.408905 
	C3289.166260,507.175873 3290.687744,513.942810 3292.215332,520.736450 
	C3300.548584,520.736450 3308.610352,520.736450 3317.049805,520.736450 
	C3317.049805,446.742645 3317.049805,373.121307 3317.049805,298.500000 
M1927.338501,524.582336 
	C1933.955078,523.867554 1940.645752,523.556824 1947.174194,522.360779 
	C1965.396118,519.022156 1981.393799,511.292480 1993.249512,496.625793 
	C2012.827271,472.406311 2008.075562,434.354462 1983.050049,413.118164 
	C1969.428589,401.559143 1953.375610,394.899292 1936.424683,390.082092 
	C1921.062134,385.716278 1905.583984,381.641113 1892.051758,372.643921 
	C1880.334595,364.853302 1874.604126,354.011383 1876.321655,339.884399 
	C1878.070801,325.495850 1885.663330,315.257446 1899.202026,309.635590 
	C1909.356323,305.419098 1919.989258,305.118439 1930.668945,306.129028 
	C1951.176758,308.069550 1967.505859,322.738190 1971.687012,342.728088 
	C1972.319824,345.754303 1972.457031,348.884186 1972.863037,352.299286 
	C1982.385010,352.299286 1991.522583,352.244659 2000.659058,352.328644 
	C2003.898682,352.358398 2004.326660,350.323059 2003.853149,348.036987 
	C2002.177124,339.944397 2001.399170,331.431732 1998.256226,323.925995 
	C1991.810181,308.531860 1980.558594,296.674072 1965.413452,289.695862 
	C1935.505615,275.915527 1905.089844,275.720093 1876.058105,291.615417 
	C1834.742798,314.236176 1832.307617,370.023773 1871.987305,395.362061 
	C1887.070557,404.993774 1903.418945,411.119690 1920.547974,415.654083 
	C1933.120728,418.982361 1945.545654,422.815186 1956.389038,430.322510 
	C1968.706299,438.850189 1974.041138,450.702576 1972.556885,465.626678 
	C1971.136597,479.906830 1963.064941,489.406555 1950.174438,494.287109 
	C1927.405762,502.907715 1905.426514,501.082947 1885.095825,486.915100 
	C1876.192749,480.710785 1870.901611,472.104706 1869.165894,461.366547 
	C1868.720947,458.613983 1868.375977,455.845306 1867.977905,453.034088 
	C1857.763794,453.034088 1847.828857,453.034088 1837.712402,453.034088 
	C1837.547363,454.051849 1837.311279,454.845337 1837.305420,455.640472 
	C1837.175781,473.061310 1843.155518,488.007233 1856.128906,499.708160 
	C1876.046753,517.672607 1899.905762,524.936951 1927.338501,524.582336 
M3003.412598,514.110413 
	C3039.022217,534.053711 3069.167236,525.438049 3095.329834,496.148438 
	C3096.031250,501.762695 3096.501465,507.045502 3097.385254,512.258240 
	C3098.887939,521.124939 3098.997314,521.106689 3108.134033,521.109619 
	C3111.633789,521.110718 3115.133301,521.110107 3118.633057,521.110107 
	C3123.017578,521.110168 3127.402100,521.110107 3132.374023,521.110107 
	C3126.800781,502.802704 3127.855713,484.918854 3127.815186,467.123474 
	C3127.762939,444.126221 3127.922363,421.127747 3127.740967,398.131744 
	C3127.538818,372.530701 3114.105957,354.104248 3089.873291,345.733582 
	C3076.867676,341.241089 3063.493164,340.574402 3049.917969,341.969391 
	C3032.363281,343.773315 3017.179932,350.474213 3005.077148,363.561432 
	C2998.437988,370.740448 2993.908203,378.952576 2993.733643,388.952759 
	C2993.706299,390.521515 2995.385986,393.461121 2996.361816,393.497833 
	C3005.635742,393.847137 3014.928223,393.706116 3024.308105,393.706116 
	C3025.505127,380.903931 3032.532715,373.567261 3043.028076,369.608643 
	C3053.977783,365.478851 3065.281494,365.506409 3076.255859,369.741394 
	C3092.621582,376.056793 3101.256348,398.815979 3094.468262,417.578278 
	C3084.241211,417.578278 3073.915527,417.538452 3063.590576,417.587524 
	C3047.858398,417.662323 3032.322021,418.924713 3017.551270,425.045868 
	C2980.340820,440.466309 2972.322754,488.699829 3003.412598,514.110413 
M3182.899902,816.276855 
	C3183.249512,830.395874 3182.031494,844.769043 3184.271240,858.581604 
	C3189.128418,888.537354 3204.539795,911.598694 3234.725098,921.064575 
	C3258.856445,928.632080 3283.161621,927.062378 3306.279297,916.151184 
	C3313.035400,912.962341 3319.087158,908.281067 3325.623047,904.182800 
	C3320.891602,896.344177 3316.868408,889.678589 3312.584473,882.581055 
	C3299.947266,893.672180 3285.313232,898.829468 3269.084473,899.833313 
	C3251.489014,900.921753 3235.825439,897.387512 3225.595947,881.304993 
	C3218.703613,870.468628 3216.197998,858.374023 3215.418701,845.705994 
	C3215.119141,840.834473 3216.521484,839.571533 3221.375732,839.601868 
	C3255.362549,839.814209 3289.351807,839.645813 3323.339355,839.807129 
	C3327.500244,839.826904 3328.879395,838.686829 3328.647949,834.496338 
	C3328.197998,826.352112 3328.599365,818.150757 3327.942383,810.030151 
	C3326.472412,791.855469 3321.086670,775.014465 3308.470947,761.338440 
	C3287.361084,738.454224 3245.304688,735.048279 3218.380615,754.149414 
	C3197.331055,769.082947 3186.249756,790.042175 3182.899902,816.276855 
M2670.895508,760.408936 
	C2662.237549,768.433838 2654.926758,777.569397 2650.737549,788.631348 
	C2638.646973,820.558899 2638.709717,852.631165 2652.629639,883.857971 
	C2660.828369,902.250244 2675.184570,915.235840 2694.812744,921.066895 
	C2717.364990,927.766663 2739.872803,926.926697 2761.893555,918.336365 
	C2770.607910,914.936890 2778.609131,910.292908 2785.508789,903.375000 
	C2781.291016,896.380859 2777.211426,889.615906 2772.946533,882.543762 
	C2760.086670,893.890808 2745.355957,898.623047 2729.133545,899.906738 
	C2705.009521,901.815857 2688.309570,892.151489 2680.656494,870.248962 
	C2678.004639,862.659607 2677.062988,854.391968 2676.021973,846.345886 
	C2675.171875,839.776978 2675.621338,839.716370 2682.090088,839.716248 
	C2716.082031,839.715820 2750.074463,839.670715 2784.065918,839.786133 
	C2787.598633,839.798096 2789.267334,839.138977 2788.996338,835.162354 
	C2788.205322,823.548767 2788.640869,811.768982 2786.862305,800.323669 
	C2783.796143,780.590698 2775.239746,763.558105 2757.930420,752.138916 
	C2738.591064,739.380432 2697.448486,735.026489 2670.895508,760.408936 
M2090.463135,490.121857 
	C2077.124268,478.069977 2073.342285,462.159393 2072.044678,445.135681 
	C2071.691650,440.505859 2072.710449,438.802643 2077.819580,438.837280 
	C2111.976562,439.068817 2146.135986,438.910461 2180.293945,439.025391 
	C2183.840088,439.037354 2185.416504,438.340668 2185.225342,434.387878 
	C2184.839355,426.404999 2185.291504,418.372192 2184.710938,410.410034 
	C2183.426025,392.778259 2178.620850,376.169495 2166.815674,362.598419 
	C2148.931641,342.039764 2125.270752,338.371948 2100.182129,342.900360 
	C2074.541748,347.528290 2057.181396,364.169220 2047.413208,387.404968 
	C2034.467773,418.198395 2035.007324,449.961456 2047.806885,480.753723 
	C2056.736572,502.235657 2073.282715,516.330322 2096.204834,521.885193 
	C2112.990479,525.952881 2129.916504,525.551819 2146.687256,521.436218 
	C2159.808594,518.216064 2171.505859,512.221313 2181.873535,502.847595 
	C2177.629639,495.808105 2173.551270,489.042969 2169.467773,482.269897 
	C2148.168457,495.720062 2144.785645,497.208588 2128.089844,498.870056 
	C2114.881836,500.184418 2102.093262,499.104553 2090.463135,490.121857 
M2349.155273,882.318909 
	C2362.616455,909.250732 2384.200195,923.556946 2414.436768,925.288574 
	C2447.023682,927.154785 2474.492676,911.221191 2488.103516,881.512329 
	C2499.540039,856.549744 2499.886719,830.424744 2494.398682,804.205627 
	C2486.890625,768.337585 2460.748535,745.105591 2425.349121,742.379211 
	C2392.563232,739.854248 2367.212402,752.194092 2351.022461,781.506042 
	C2345.154053,792.130554 2341.657959,803.583069 2340.435791,815.610046 
	C2338.136719,838.232422 2338.840576,860.542297 2349.155273,882.318909 
M2203.500000,684.206116 
	C2192.887451,684.206116 2182.274658,684.206116 2171.386719,684.206116 
	C2171.386719,763.634705 2171.386719,842.497925 2171.386719,921.541321 
	C2182.096924,921.541321 2192.487305,921.541321 2203.391357,921.541321 
	C2203.391357,886.649109 2203.391357,852.067871 2203.391357,816.810913 
	C2236.932129,816.810913 2269.965088,816.810913 2303.181152,816.810913 
	C2303.181152,808.053833 2303.181152,799.980774 2303.181152,791.231812 
	C2269.819336,791.231812 2236.779541,791.231812 2203.763184,791.231812 
	C2203.763184,763.685181 2203.763184,736.820435 2203.763184,709.473938 
	C2242.635254,709.473938 2281.055176,709.473938 2319.437012,709.473938 
	C2319.437012,700.787781 2319.437012,692.596985 2319.437012,684.206238 
	C2280.801758,684.206238 2242.650879,684.206238 2203.500000,684.206116 
M2554.267334,450.500366 
	C2554.267334,415.393127 2554.267334,380.285889 2554.267334,344.967651 
	C2543.201660,344.967651 2532.658691,344.967651 2521.753662,344.967651 
	C2521.753662,347.135742 2521.753906,348.939423 2521.753906,350.743073 
	C2521.754639,389.566040 2521.821289,428.389343 2521.638184,467.211456 
	C2521.622559,470.508453 2520.589111,474.175018 2518.927490,477.028748 
	C2508.534912,494.878082 2488.597656,500.386780 2469.029541,497.620575 
	C2455.727783,495.740173 2447.733154,487.638275 2445.305176,474.701263 
	C2443.717773,466.243042 2442.822510,457.538025 2442.747314,448.933716 
	C2442.460205,416.111633 2442.631592,383.285583 2442.631592,350.460999 
	C2442.631592,348.682281 2442.631348,346.903595 2442.631348,344.881592 
	C2431.665771,344.881592 2421.258789,344.881592 2410.611328,344.881592 
	C2410.504395,346.265167 2410.341553,347.388428 2410.341797,348.511597 
	C2410.349121,383.668762 2410.130615,418.828400 2410.494141,453.982025 
	C2410.677002,471.652893 2413.679688,488.775543 2424.470703,503.640015 
	C2444.049805,530.610107 2496.598145,533.692139 2519.248291,500.918518 
	C2520.183594,499.565155 2521.217773,498.279907 2522.987061,495.921570 
	C2523.811035,505.225433 2524.496094,512.958618 2525.187256,520.761597 
	C2535.100098,520.761597 2544.490479,520.761597 2554.266846,520.761597 
	C2554.266846,497.442047 2554.266846,474.471222 2554.267334,450.500366 
M2825.974854,921.604675 
	C2836.260498,921.604675 2846.546143,921.604675 2857.441650,921.604675 
	C2857.441650,919.384583 2857.441650,917.433716 2857.441650,915.482788 
	C2857.438965,875.483643 2857.363770,835.484192 2857.570557,795.486145 
	C2857.587158,792.268982 2858.823486,788.537354 2860.717041,785.935913 
	C2872.145508,770.234741 2894.810791,764.009277 2914.764404,770.607117 
	C2923.768799,773.584473 2930.465332,779.253113 2932.678955,788.488586 
	C2934.599121,796.499878 2935.868652,804.862000 2935.953125,813.084167 
	C2936.305908,847.413147 2936.103271,881.747803 2936.104492,916.080383 
	C2936.104492,917.846313 2936.104492,919.612244 2936.104492,921.561707 
	C2947.181396,921.561707 2957.589355,921.561707 2968.281250,921.561707 
	C2968.366211,919.827759 2968.499512,918.367188 2968.500244,916.906677 
	C2968.514404,882.240784 2968.574463,847.574646 2968.462891,812.909119 
	C2968.441895,806.424255 2968.089844,799.893799 2967.251709,793.467651 
	C2965.334473,778.765808 2960.664062,765.219360 2948.924072,755.190613 
	C2923.680908,733.626953 2880.916504,738.725281 2860.093506,765.726624 
	C2859.128174,766.978149 2858.145752,768.216492 2856.246338,770.642151 
	C2855.345215,761.426331 2854.579834,753.599976 2853.804932,745.674866 
	C2844.121826,745.674866 2834.729248,745.674866 2825.219482,745.674866 
	C2825.143555,747.213379 2825.036865,748.366882 2825.036621,749.520386 
	C2825.029297,805.685852 2825.029785,861.851257 2825.042480,918.016724 
	C2825.042725,919.005615 2825.204346,919.994507 2825.974854,921.604675 
M3144.396484,781.197632 
	C3140.506348,774.874878 3137.508301,767.726196 3132.561523,762.381104 
	C3116.435547,744.956787 3095.344482,740.889526 3072.699951,742.320496 
	C3053.807129,743.514404 3037.427979,750.235840 3024.831543,764.893005 
	C3009.870361,782.301208 3008.231689,812.970459 3033.723145,828.599976 
	C3044.633301,835.289307 3056.436768,839.541443 3068.644043,842.997986 
	C3079.982666,846.208496 3091.485840,849.044495 3102.481201,853.198059 
	C3112.116943,856.837952 3117.616211,864.398926 3117.127197,875.314819 
	C3116.650391,885.966675 3110.328125,892.379517 3101.188477,896.301331 
	C3090.748291,900.781128 3079.697021,901.241211 3068.815186,898.697510 
	C3053.394043,895.092590 3042.148438,887.245544 3040.719971,870.019531 
	C3040.481934,867.149231 3038.898682,866.985291 3036.689453,867.004883 
	C3029.524170,867.068481 3022.358154,867.025269 3015.192383,867.030457 
	C3008.635742,867.035217 3008.532959,867.083008 3009.202393,873.815918 
	C3011.077393,892.681519 3021.707764,905.802246 3037.410156,915.008484 
	C3055.959229,925.883911 3076.367432,926.748596 3097.035645,924.047363 
	C3112.097168,922.078979 3125.414307,916.070740 3136.382568,905.172852 
	C3153.138428,888.523865 3155.913574,855.675049 3132.755371,839.190979 
	C3121.732910,831.344971 3109.410156,826.551636 3096.524414,822.979675 
	C3084.517334,819.651367 3072.151367,817.319031 3060.525635,812.986511 
	C3044.527100,807.024292 3041.396484,788.696899 3053.452881,776.411682 
	C3064.864258,764.783752 3090.411621,764.325867 3103.793701,775.448975 
	C3110.610840,781.115173 3114.827393,788.194702 3115.496094,797.107056 
	C3126.048340,797.107056 3136.095703,797.107056 3147.021973,797.107056 
	C3146.200928,791.708374 3145.457764,786.821350 3144.396484,781.197632 
M2572.377686,789.078003 
	C2580.598145,776.806946 2592.311523,772.033813 2606.738281,773.020569 
	C2611.035400,773.314575 2615.341064,773.485962 2620.105713,773.737976 
	C2621.446045,764.902588 2622.630127,756.354553 2624.087646,747.853333 
	C2624.686768,744.357971 2623.457275,743.237366 2620.084473,742.720337 
	C2600.146240,739.663513 2585.031494,747.405884 2573.367676,763.135193 
	C2571.881348,765.139648 2570.526611,767.241638 2568.474121,770.223633 
	C2567.320068,761.097717 2566.348145,753.409424 2565.376221,745.724426 
	C2555.530518,745.724426 2546.167725,745.724426 2536.777832,745.724426 
	C2536.777832,804.567566 2536.777832,862.968140 2536.777832,921.389160 
	C2547.620117,921.389160 2558.145264,921.389160 2568.903809,921.389160 
	C2568.903809,919.271179 2568.903809,917.614136 2568.903809,915.957153 
	C2568.904053,877.636230 2568.818604,839.314819 2569.039795,800.995178 
	C2569.061523,797.232849 2570.966553,793.481445 2572.377686,789.078003 
M2600.589844,490.499786 
	C2600.589844,500.585480 2600.589844,510.671173 2600.589844,520.749634 
	C2611.752686,520.749634 2622.159180,520.749634 2632.990723,520.749634 
	C2632.990723,518.603088 2632.990723,516.802307 2632.990723,515.001526 
	C2632.989746,476.515778 2632.976562,438.029999 2633.021973,399.544281 
	C2633.024658,397.418732 2632.979248,395.028870 2633.871582,393.211670 
	C2639.414062,381.926239 2647.980469,374.114044 2660.875488,372.841400 
	C2668.427979,372.096069 2676.114014,372.705505 2684.260986,372.705505 
	C2685.534180,364.338654 2686.639648,355.945862 2688.151855,347.626984 
	C2688.883301,343.600891 2687.410400,342.456177 2683.650879,341.925232 
	C2662.740479,338.972107 2647.550537,347.816040 2636.026611,364.512482 
	C2635.057129,365.917053 2634.107666,367.335358 2632.582764,369.581024 
	C2631.436035,360.545380 2630.443848,352.728424 2629.474609,345.090271 
	C2619.525635,345.090271 2610.161621,345.090271 2600.590576,345.090271 
	C2600.590576,393.551086 2600.590576,441.525421 2600.589844,490.499786 
M2751.818604,453.500000 
	C2751.818604,417.405090 2751.818604,381.310181 2751.818604,344.964600 
	C2740.788330,344.964600 2730.241943,344.964600 2719.606934,344.964600 
	C2719.606934,403.725494 2719.606934,462.110413 2719.606934,520.733459 
	C2730.384521,520.733459 2740.900635,520.733459 2751.818604,520.733459 
	C2751.818604,498.399750 2751.818604,476.449890 2751.818604,453.500000 
M2728.601074,299.500732 
	C2736.214111,299.500732 2743.827148,299.500732 2751.510254,299.500732 
	C2751.510254,288.263458 2751.510254,277.688873 2751.510254,266.533997 
	C2741.433594,266.533997 2731.654541,266.460999 2721.881104,266.660797 
	C2721.020508,266.678406 2719.484375,268.467957 2719.465820,269.457031 
	C2719.283447,279.241302 2719.355469,289.030304 2719.355469,299.500305 
	C2722.419189,299.500305 2725.029785,299.500305 2728.601074,299.500732 
M874.129333,780.502502 
	C874.757080,779.243591 875.384766,777.984741 876.012512,776.725891 
	C875.511169,776.405823 875.009827,776.085693 874.508484,775.765625 
	C873.409424,776.631348 872.043274,777.304504 871.256409,778.395386 
	C867.361145,783.795776 863.883728,789.515747 859.763428,794.731567 
	C852.833679,803.503784 845.505371,811.960510 838.409485,820.603027 
	C837.353088,821.889709 836.649353,823.466003 835.782410,824.908264 
	C843.938965,821.705627 860.741150,801.431274 874.129333,780.502502 
M1213.173828,675.275452 
	C1219.351929,679.392334 1238.990601,686.692749 1242.586548,685.426270 
	C1223.613159,676.473938 1204.211914,670.170532 1187.401001,658.556946 
	C1193.828979,667.113892 1203.391968,670.683655 1213.173828,675.275452 
M689.982727,674.451538 
	C690.174805,677.574524 690.366821,680.697571 690.558899,683.820557 
	C691.312317,683.757080 692.065674,683.693604 692.819092,683.630066 
	C692.820618,675.505615 693.698853,667.365479 692.333130,659.265381 
	C691.549988,659.236633 690.766846,659.207947 689.983704,659.179199 
	C689.983704,663.942810 689.983704,668.706360 689.982727,674.451538 
M705.997559,670.509705 
	C705.974854,679.869019 705.974854,679.869019 707.882996,681.627747 
	C710.202515,676.164001 709.346375,662.057556 705.999878,659.294739 
	C705.999878,663.007751 705.999878,666.270325 705.997559,670.509705 
z"/>
<path fill="#1464A2" opacity="1.000000" stroke="none" 
	d="
M315.579254,984.318604 
	C295.251678,978.313843 275.718292,971.354004 257.080444,962.074768 
	C188.446640,927.904175 136.406113,876.938049 101.451706,808.570068 
	C84.017059,774.469299 73.380920,738.308960 67.682762,700.569763 
	C63.956543,675.890808 63.547142,650.961365 65.808525,626.301636 
	C68.912788,592.450562 76.639290,559.487061 89.578186,527.751831 
	C109.453430,479.003723 138.662231,436.930786 177.632370,401.714996 
	C207.463135,374.758148 241.072433,353.707550 278.457367,338.592407 
	C325.712189,319.486755 374.791138,311.685364 425.500519,314.349121 
	C455.855408,315.943604 485.540649,321.632690 514.440063,331.432068 
	C535.432190,338.550232 555.584229,347.386566 574.773621,358.422272 
	C578.528015,360.581390 579.285767,359.082550 579.758179,355.632080 
	C581.428162,343.435883 582.333435,331.032990 585.258484,319.133698 
	C590.048523,299.647827 595.213074,280.141388 602.010559,261.289398 
	C610.995117,236.371658 624.009766,213.325012 639.133362,191.512253 
	C662.520630,157.780823 691.065430,129.243866 724.719055,105.766655 
	C753.385437,85.768631 784.318359,70.492195 817.729614,60.107697 
	C838.618652,53.615223 860.038879,50.109585 881.538086,46.439976 
	C900.985229,43.120613 920.369629,43.823055 939.739685,44.455189 
	C953.276123,44.896938 966.891724,47.141335 980.177917,49.964375 
	C997.218506,53.585178 1014.244019,57.743607 1030.778809,63.182014 
	C1065.448120,74.584984 1097.116211,91.979149 1126.141235,114.118637 
	C1160.415405,140.262070 1188.859375,171.678223 1211.248291,208.541550 
	C1224.141724,229.770584 1234.887695,252.025879 1242.581055,275.659576 
	C1244.280029,280.878632 1247.463379,280.243103 1251.153320,279.234283 
	C1272.588867,273.373901 1294.487305,271.589142 1316.515015,273.194824 
	C1377.263672,277.623169 1427.528809,303.154358 1466.955566,349.645386 
	C1483.342896,368.968689 1495.842041,390.611633 1504.278320,414.564850 
	C1505.491333,418.008789 1505.656738,420.894287 1502.851440,423.705200 
	C1501.230225,425.329651 1500.192871,427.520477 1498.764282,429.356567 
	C1495.323730,433.779083 1491.312378,437.364899 1485.557495,438.559204 
	C1480.674561,439.572510 1475.827515,440.771118 1470.989136,441.985291 
	C1463.904541,443.763153 1457.866821,440.393127 1452.053955,437.485382 
	C1449.914185,436.415131 1448.842529,432.542053 1447.959595,429.734802 
	C1441.887573,410.427795 1430.599365,394.381775 1417.106323,379.673096 
	C1398.697998,359.606232 1376.322632,345.507843 1350.530884,337.313171 
	C1323.548462,328.740234 1296.021240,327.271484 1268.261597,334.034576 
	C1252.271851,337.930206 1237.243286,344.047913 1223.161377,352.542175 
	C1215.586182,357.111603 1204.656006,354.024506 1201.534180,345.712158 
	C1199.285889,339.726044 1198.298584,333.221405 1197.149536,326.875519 
	C1193.030884,304.127594 1185.980957,282.311554 1175.592163,261.711060 
	C1157.647705,226.128067 1133.685303,195.108093 1103.240845,169.279053 
	C1077.929565,147.805023 1049.737549,131.224167 1018.569092,119.618675 
	C982.665283,106.250008 945.589844,100.340645 907.404236,101.973778 
	C885.750916,102.899841 864.434143,106.367683 843.460388,112.239693 
	C810.448120,121.482094 780.191284,136.172867 752.553406,156.346725 
	C720.663513,179.624313 694.352600,208.097885 674.727966,242.358505 
	C660.088684,267.915802 647.376160,294.518982 638.617981,322.718811 
	C629.679260,351.499695 626.252319,380.954529 630.377625,411.070862 
	C631.195557,417.042236 632.270386,423.143372 628.876282,428.993347 
	C626.335571,433.372253 622.901306,436.899658 618.021484,436.622559 
	C612.728027,436.321991 606.581238,435.586731 602.463623,432.687592 
	C583.504822,419.338928 563.955200,406.960724 542.910034,397.355469 
	C529.759460,391.353333 515.806152,386.905090 501.901031,382.822113 
	C489.510651,379.183899 476.768219,376.571167 464.036774,374.323853 
	C454.068176,372.564270 443.899384,371.504364 433.782349,371.125122 
	C419.636383,370.594757 405.392456,370.148560 391.307434,371.213806 
	C376.452057,372.337311 361.662354,374.879517 346.972900,377.519562 
	C323.619476,381.716705 301.513336,389.886536 280.375336,400.540192 
	C222.621048,429.648743 179.260605,473.205170 150.661331,531.216248 
	C135.593109,561.780823 126.916260,594.181580 123.487297,628.144531 
	C120.062042,662.070923 122.863693,695.458740 131.730316,728.167542 
	C148.127792,788.657410 181.102249,838.485962 230.167679,877.655396 
	C258.576233,900.334290 290.237732,916.767029 324.919647,927.267395 
	C350.213318,934.925354 376.209747,938.860840 402.667786,939.100037 
	C425.497925,939.306458 448.331390,939.148254 471.163391,939.148315 
	C725.208679,939.149292 979.253906,939.139343 1233.299194,939.212708 
	C1239.400269,939.214478 1245.549194,939.821777 1251.591064,940.717651 
	C1261.270996,942.152893 1268.185425,950.325867 1268.449097,960.182983 
	C1268.587158,965.345520 1268.597900,970.518860 1268.440186,975.680420 
	C1268.168945,984.547974 1262.825439,991.807678 1254.281982,994.156494 
	C1249.401855,995.498169 1244.247437,996.532654 1239.216064,996.534485 
	C964.398743,996.631897 689.581421,996.612854 414.764130,996.563354 
	C403.438019,996.561340 391.973724,997.194458 380.816254,995.709656 
	C360.896454,993.058716 341.161133,989.020386 321.351227,985.547424 
	C319.548340,985.231384 317.764130,984.808716 315.579254,984.318604 
z"/>
<path fill="#6E96D4" opacity="1.000000" stroke="none" 
	d="
M1301.895264,963.970703 
	C1301.895142,902.987183 1302.268799,842.495972 1301.770264,782.011841 
	C1301.417969,739.265503 1329.547974,701.244446 1370.344238,690.209473 
	C1377.497437,688.274536 1385.075195,686.985352 1392.460083,686.969666 
	C1491.440430,686.760132 1590.421387,686.697510 1689.401733,686.890747 
	C1733.751953,686.977356 1774.056519,723.332825 1778.977905,767.086975 
	C1779.608398,772.692749 1779.959106,778.361206 1779.965820,784.001160 
	C1780.035767,842.822876 1779.337769,901.654846 1780.215332,960.463562 
	C1780.951782,1009.820007 1746.277222,1051.653198 1696.140747,1057.673340 
	C1692.847168,1058.068970 1689.486572,1057.987427 1686.157104,1057.987915 
	C1589.509277,1058.002930 1492.860718,1057.776733 1396.213989,1058.095825 
	C1349.148682,1058.251221 1308.218384,1022.761047 1302.855713,976.883240 
	C1302.374146,972.763062 1302.208618,968.606018 1301.895264,963.970703 
M1351.152222,908.500000 
	C1351.153809,926.662659 1351.109375,944.825439 1351.168213,962.987915 
	C1351.253662,989.344910 1370.676270,1008.748718 1396.994019,1008.753418 
	C1492.305176,1008.770508 1587.616211,1008.768860 1682.927368,1008.750488 
	C1712.047363,1008.744873 1730.752197,990.036316 1730.761841,960.926880 
	C1730.781494,901.773987 1730.530151,842.619751 1730.871216,783.468872 
	C1731.037964,754.559021 1709.181763,735.784485 1683.609253,735.903748 
	C1588.466797,736.347473 1493.321167,736.078003 1398.176636,736.082581 
	C1369.926636,736.083923 1351.179199,754.783508 1351.161133,783.028992 
	C1351.134766,824.519348 1351.153198,866.009644 1351.152222,908.500000 
z"/>
<path fill="#6F97D4" opacity="1.000000" stroke="none" 
	d="
M1381.984253,629.990417 
	C1382.125244,581.182068 1399.982666,540.505615 1435.752197,508.206787 
	C1460.482300,485.876099 1489.784180,472.592651 1523.098999,468.917603 
	C1573.489746,463.358887 1617.380005,478.053223 1653.889771,513.008240 
	C1680.869873,538.839417 1696.806152,570.781494 1701.115112,608.106750 
	C1702.162231,617.176270 1702.517944,626.354431 1702.673584,635.491516 
	C1702.922852,650.119385 1692.866943,659.982056 1678.212769,659.984253 
	C1662.385132,659.986511 1652.750977,650.613892 1653.163818,634.660767 
	C1653.883911,606.836548 1646.886597,581.467285 1629.371338,559.651794 
	C1605.164429,529.501892 1573.291138,515.142273 1534.782959,517.318726 
	C1484.427979,520.164856 1442.221558,558.247925 1433.272095,608.245972 
	C1431.612427,617.518188 1431.529663,627.124146 1431.307251,636.589844 
	C1430.988403,650.165405 1421.423828,659.988403 1407.884399,659.984680 
	C1394.574829,659.981018 1385.583740,653.996582 1382.541992,642.376648 
	C1381.559204,638.621826 1382.126221,634.461365 1381.984253,629.990417 
z"/>
<path fill="#1464A2" opacity="1.000000" stroke="none" 
	d="
M2331.805664,503.675293 
	C2317.750732,520.087585 2299.781738,525.595215 2279.213379,524.391968 
	C2241.823730,522.204773 2224.272705,494.548859 2218.709717,468.047424 
	C2212.959961,440.657135 2214.013428,413.301300 2223.756104,386.844482 
	C2230.789551,367.744934 2242.264893,351.964508 2262.429688,345.000763 
	C2286.011230,336.856934 2315.536377,340.973694 2333.182129,364.260010 
	C2333.670410,364.904083 2334.237793,365.488129 2335.513184,366.959656 
	C2336.565430,360.655334 2337.670898,355.216003 2338.322754,349.722839 
	C2338.773926,345.920166 2340.127441,344.274353 2344.284912,344.504486 
	C2351.068115,344.879944 2357.887451,344.605927 2364.832764,344.605927 
	C2364.940430,346.223328 2365.083008,347.364777 2365.082764,348.506226 
	C2365.075684,407.320343 2365.184326,466.134888 2364.968750,524.948303 
	C2364.894287,545.277588 2358.750488,563.344421 2342.393066,576.692749 
	C2331.179199,585.843750 2317.864502,589.981079 2303.773682,591.524536 
	C2281.486816,593.965515 2260.000488,590.693359 2239.390625,581.628601 
	C2235.776123,580.038940 2234.752930,578.245544 2235.676758,574.466492 
	C2237.248291,568.036194 2238.363770,561.494446 2239.608398,555.311890 
	C2249.086670,557.991943 2258.164795,561.106567 2267.485840,563.063293 
	C2280.783936,565.854919 2294.228516,566.399231 2307.557617,562.631287 
	C2319.657471,559.210815 2327.385010,551.501038 2330.553711,539.343994 
	C2333.634277,527.525269 2333.654053,515.543823 2331.805664,503.675293 
M2310.356201,495.111481 
	C2319.776855,491.072998 2326.514160,484.112640 2331.482666,475.359283 
	C2332.406738,473.730865 2332.866699,471.616455 2332.873779,469.723877 
	C2332.965576,444.907806 2332.955078,420.091217 2332.898193,395.274933 
	C2332.894531,393.681458 2332.701660,391.849182 2331.916992,390.533356 
	C2322.721924,375.113739 2309.372314,366.973511 2291.112305,367.574493 
	C2274.090820,368.134705 2262.654297,376.827820 2256.106934,392.100433 
	C2246.896484,413.585541 2246.023438,436.035065 2249.707520,458.753174 
	C2251.633301,470.627777 2255.868164,481.846405 2265.582764,489.597534 
	C2278.907227,500.229034 2294.066895,500.170837 2310.356201,495.111481 
z"/>
<path fill="#1464A2" opacity="1.000000" stroke="none" 
	d="
M2943.052734,303.000000 
	C2943.052979,375.786987 2943.052979,448.074005 2943.052979,520.734985 
	C2934.625977,520.734985 2926.565186,520.734985 2918.224609,520.734985 
	C2916.700684,513.952820 2915.179932,507.184906 2913.659180,500.417053 
	C2913.200439,499.983978 2912.741699,499.550934 2912.282959,499.117889 
	C2911.616699,500.413391 2911.149902,501.869202 2910.255127,502.980743 
	C2896.496826,520.076416 2878.081787,525.634338 2856.941895,524.348022 
	C2823.126953,522.290527 2803.472656,498.323364 2797.082520,469.100067 
	C2790.740234,440.094666 2791.845215,411.077881 2803.269775,383.223633 
	C2810.536133,365.507782 2821.885010,350.839447 2840.915283,344.968475 
	C2865.901123,337.260132 2889.010254,340.410950 2908.016113,360.261505 
	C2908.541992,360.810791 2909.266602,361.169708 2910.674805,362.167145 
	C2910.674805,330.030029 2910.674805,298.644562 2910.674805,266.894958 
	C2921.682129,266.894958 2932.066650,266.894958 2943.052734,266.894958 
	C2943.052734,278.935974 2943.052734,290.717987 2943.052734,303.000000 
M2845.427490,491.156097 
	C2850.946289,493.338013 2856.291504,496.339355 2862.015625,497.551910 
	C2881.046631,501.583282 2898.591309,493.698792 2908.645752,477.100494 
	C2909.868652,475.082062 2910.720703,472.480774 2910.734619,470.143616 
	C2910.883301,444.982330 2910.852783,419.819733 2910.778320,394.657776 
	C2910.773193,392.902893 2910.466309,390.874634 2909.561279,389.438812 
	C2899.962646,374.209412 2886.259521,366.589539 2868.082031,367.622620 
	C2851.292969,368.576721 2840.254395,377.548004 2833.901611,392.664215 
	C2824.905029,414.072235 2824.088867,436.401367 2827.734863,458.917511 
	C2829.733154,471.258392 2834.474609,482.636902 2845.427490,491.156097 
z"/>
<path fill="#1464A2" opacity="1.000000" stroke="none" 
	d="
M3317.049805,299.000000 
	C3317.049805,373.121307 3317.049805,446.742645 3317.049805,520.736450 
	C3308.610352,520.736450 3300.548584,520.736450 3292.215332,520.736450 
	C3290.687744,513.942810 3289.166260,507.175873 3287.644531,500.408905 
	C3287.151611,499.945923 3286.658447,499.482971 3286.165283,499.019989 
	C3285.643311,500.224396 3285.354736,501.614929 3284.564941,502.605591 
	C3270.637207,520.074341 3251.967285,525.851562 3230.427979,524.268127 
	C3202.052002,522.182007 3183.537842,506.298065 3174.706299,480.462158 
	C3162.906006,445.942017 3164.475342,411.200806 3179.855957,377.815430 
	C3188.459717,359.139191 3202.702637,346.134552 3223.550293,342.553101 
	C3245.764648,338.736816 3266.008789,342.868225 3282.020020,360.264923 
	C3282.532471,360.821411 3283.262939,361.177246 3284.668945,362.182159 
	C3284.668945,330.035126 3284.668945,298.647125 3284.668945,266.895630 
	C3295.674805,266.895630 3306.060059,266.895630 3317.049805,266.895630 
	C3317.049805,277.602081 3317.049805,288.051056 3317.049805,299.000000 
M3267.891357,373.486237 
	C3243.545898,359.914276 3217.724365,368.457397 3207.372559,394.145660 
	C3198.125732,417.091827 3197.459473,440.946808 3203.131104,464.805023 
	C3206.265137,477.987518 3212.738770,489.588074 3226.273926,494.882874 
	C3244.060791,501.840881 3268.410645,500.195984 3282.289795,477.658844 
	C3283.766357,475.261322 3284.688721,472.108307 3284.712891,469.295959 
	C3284.905762,446.635437 3284.305176,423.955231 3285.064453,401.318512 
	C3285.387207,391.701843 3281.671875,385.069702 3275.149414,379.153046 
	C3273.061768,377.259399 3270.722656,375.642792 3267.891357,373.486237 
z"/>
<path fill="#1564A3" opacity="1.000000" stroke="none" 
	d="
M1926.862305,524.585083 
	C1899.905762,524.936951 1876.046753,517.672607 1856.128906,499.708160 
	C1843.155518,488.007233 1837.175781,473.061310 1837.305420,455.640472 
	C1837.311279,454.845337 1837.547363,454.051849 1837.712402,453.034088 
	C1847.828857,453.034088 1857.763794,453.034088 1867.977905,453.034088 
	C1868.375977,455.845306 1868.720947,458.613983 1869.165894,461.366547 
	C1870.901611,472.104706 1876.192749,480.710785 1885.095825,486.915100 
	C1905.426514,501.082947 1927.405762,502.907715 1950.174438,494.287109 
	C1963.064941,489.406555 1971.136597,479.906830 1972.556885,465.626678 
	C1974.041138,450.702576 1968.706299,438.850189 1956.389038,430.322510 
	C1945.545654,422.815186 1933.120728,418.982361 1920.547974,415.654083 
	C1903.418945,411.119690 1887.070557,404.993774 1871.987305,395.362061 
	C1832.307617,370.023773 1834.742798,314.236176 1876.058105,291.615417 
	C1905.089844,275.720093 1935.505615,275.915527 1965.413452,289.695862 
	C1980.558594,296.674072 1991.810181,308.531860 1998.256226,323.925995 
	C2001.399170,331.431732 2002.177124,339.944397 2003.853149,348.036987 
	C2004.326660,350.323059 2003.898682,352.358398 2000.659058,352.328644 
	C1991.522583,352.244659 1982.385010,352.299286 1972.863037,352.299286 
	C1972.457031,348.884186 1972.319824,345.754303 1971.687012,342.728088 
	C1967.505859,322.738190 1951.176758,308.069550 1930.668945,306.129028 
	C1919.989258,305.118439 1909.356323,305.419098 1899.202026,309.635590 
	C1885.663330,315.257446 1878.070801,325.495850 1876.321655,339.884399 
	C1874.604126,354.011383 1880.334595,364.853302 1892.051758,372.643921 
	C1905.583984,381.641113 1921.062134,385.716278 1936.424683,390.082092 
	C1953.375610,394.899292 1969.428589,401.559143 1983.050049,413.118164 
	C2008.075562,434.354462 2012.827271,472.406311 1993.249512,496.625793 
	C1981.393799,511.292480 1965.396118,519.022156 1947.174194,522.360779 
	C1940.645752,523.556824 1933.955078,523.867554 1926.862305,524.585083 
z"/>
<path fill="#1464A3" opacity="1.000000" stroke="none" 
	d="
M3003.128418,513.895081 
	C2972.322754,488.699829 2980.340820,440.466309 3017.551270,425.045868 
	C3032.322021,418.924713 3047.858398,417.662323 3063.590576,417.587524 
	C3073.915527,417.538452 3084.241211,417.578278 3094.468262,417.578278 
	C3101.256348,398.815979 3092.621582,376.056793 3076.255859,369.741394 
	C3065.281494,365.506409 3053.977783,365.478851 3043.028076,369.608643 
	C3032.532715,373.567261 3025.505127,380.903931 3024.308105,393.706116 
	C3014.928223,393.706116 3005.635742,393.847137 2996.361816,393.497833 
	C2995.385986,393.461121 2993.706299,390.521515 2993.733643,388.952759 
	C2993.908203,378.952576 2998.437988,370.740448 3005.077148,363.561432 
	C3017.179932,350.474213 3032.363281,343.773315 3049.917969,341.969391 
	C3063.493164,340.574402 3076.867676,341.241089 3089.873291,345.733582 
	C3114.105957,354.104248 3127.538818,372.530701 3127.740967,398.131744 
	C3127.922363,421.127747 3127.762939,444.126221 3127.815186,467.123474 
	C3127.855713,484.918854 3126.800781,502.802704 3132.374023,521.110107 
	C3127.402100,521.110107 3123.017578,521.110168 3118.633057,521.110107 
	C3115.133301,521.110107 3111.633789,521.110718 3108.134033,521.109619 
	C3098.997314,521.106689 3098.887939,521.124939 3097.385254,512.258240 
	C3096.501465,507.045502 3096.031250,501.762695 3095.329834,496.148438 
	C3069.167236,525.438049 3039.022217,534.053711 3003.128418,513.895081 
M3095.670898,456.468994 
	C3095.670898,451.014069 3095.670898,445.559143 3095.670898,440.206970 
	C3094.806152,439.856110 3094.354980,439.511566 3093.906006,439.514221 
	C3079.928955,439.596863 3065.910645,439.085266 3051.987305,440.004761 
	C3038.576416,440.890381 3027.308594,446.821777 3020.374512,458.955627 
	C3011.107910,475.171600 3019.836182,494.318359 3037.708496,496.831573 
	C3050.727051,498.662262 3063.383057,496.912842 3074.776123,490.001404 
	C3086.928223,482.629395 3097.692139,474.061584 3095.670898,456.468994 
z"/>
<path fill="#1565A3" opacity="1.000000" stroke="none" 
	d="
M3182.958008,815.837891 
	C3186.249756,790.042175 3197.331055,769.082947 3218.380615,754.149414 
	C3245.304688,735.048279 3287.361084,738.454224 3308.470947,761.338440 
	C3321.086670,775.014465 3326.472412,791.855469 3327.942383,810.030151 
	C3328.599365,818.150757 3328.197998,826.352112 3328.647949,834.496338 
	C3328.879395,838.686829 3327.500244,839.826904 3323.339355,839.807129 
	C3289.351807,839.645813 3255.362549,839.814209 3221.375732,839.601868 
	C3216.521484,839.571533 3215.119141,840.834473 3215.418701,845.705994 
	C3216.197998,858.374023 3218.703613,870.468628 3225.595947,881.304993 
	C3235.825439,897.387512 3251.489014,900.921753 3269.084473,899.833313 
	C3285.313232,898.829468 3299.947266,893.672180 3312.584473,882.581055 
	C3316.868408,889.678589 3320.891602,896.344177 3325.623047,904.182800 
	C3319.087158,908.281067 3313.035400,912.962341 3306.279297,916.151184 
	C3283.161621,927.062378 3258.856445,928.632080 3234.725098,921.064575 
	C3204.539795,911.598694 3189.128418,888.537354 3184.271240,858.581604 
	C3182.031494,844.769043 3183.249512,830.395874 3182.958008,815.837891 
M3296.095947,806.633484 
	C3295.625488,803.347839 3295.480713,799.974609 3294.625244,796.792419 
	C3291.591553,785.507751 3286.461670,775.680847 3274.987793,770.708435 
	C3247.135742,758.638367 3214.399902,782.999634 3217.364258,813.872681 
	C3243.488037,813.872681 3269.636230,813.872681 3296.137939,813.872681 
	C3296.137939,811.509277 3296.137939,809.543945 3296.095947,806.633484 
z"/>
<path fill="#1565A3" opacity="1.000000" stroke="none" 
	d="
M2671.170410,760.185486 
	C2697.448486,735.026489 2738.591064,739.380432 2757.930420,752.138916 
	C2775.239746,763.558105 2783.796143,780.590698 2786.862305,800.323669 
	C2788.640869,811.768982 2788.205322,823.548767 2788.996338,835.162354 
	C2789.267334,839.138977 2787.598633,839.798096 2784.065918,839.786133 
	C2750.074463,839.670715 2716.082031,839.715820 2682.090088,839.716248 
	C2675.621338,839.716370 2675.171875,839.776978 2676.021973,846.345886 
	C2677.062988,854.391968 2678.004639,862.659607 2680.656494,870.248962 
	C2688.309570,892.151489 2705.009521,901.815857 2729.133545,899.906738 
	C2745.355957,898.623047 2760.086670,893.890808 2772.946533,882.543762 
	C2777.211426,889.615906 2781.291016,896.380859 2785.508789,903.375000 
	C2778.609131,910.292908 2770.607910,914.936890 2761.893555,918.336365 
	C2739.872803,926.926697 2717.364990,927.766663 2694.812744,921.066895 
	C2675.184570,915.235840 2660.828369,902.250244 2652.629639,883.857971 
	C2638.709717,852.631165 2638.646973,820.558899 2650.737549,788.631348 
	C2654.926758,777.569397 2662.237549,768.433838 2671.170410,760.185486 
M2733.412598,769.813843 
	C2719.576416,765.868225 2706.202393,765.954590 2694.810059,776.006836 
	C2683.570557,785.924255 2678.632812,799.002380 2677.075684,814.272644 
	C2679.610840,814.272644 2681.406250,814.272705 2683.201660,814.272705 
	C2704.365723,814.272827 2725.529541,814.272888 2746.693604,814.273071 
	C2757.121582,814.273132 2757.470703,814.229919 2756.187988,803.856018 
	C2754.368164,789.139893 2748.979248,776.459106 2733.412598,769.813843 
z"/>
<path fill="#1565A3" opacity="1.000000" stroke="none" 
	d="
M2090.751465,490.341400 
	C2102.093262,499.104553 2114.881836,500.184418 2128.089844,498.870056 
	C2144.785645,497.208588 2148.168457,495.720062 2169.467773,482.269897 
	C2173.551270,489.042969 2177.629639,495.808105 2181.873535,502.847595 
	C2171.505859,512.221313 2159.808594,518.216064 2146.687256,521.436218 
	C2129.916504,525.551819 2112.990479,525.952881 2096.204834,521.885193 
	C2073.282715,516.330322 2056.736572,502.235657 2047.806885,480.753723 
	C2035.007324,449.961456 2034.467773,418.198395 2047.413208,387.404968 
	C2057.181396,364.169220 2074.541748,347.528290 2100.182129,342.900360 
	C2125.270752,338.371948 2148.931641,342.039764 2166.815674,362.598419 
	C2178.620850,376.169495 2183.426025,392.778259 2184.710938,410.410034 
	C2185.291504,418.372192 2184.839355,426.404999 2185.225342,434.387878 
	C2185.416504,438.340668 2183.840088,439.037354 2180.293945,439.025391 
	C2146.135986,438.910461 2111.976562,439.068817 2077.819580,438.837280 
	C2072.710449,438.802643 2071.691650,440.505859 2072.044678,445.135681 
	C2073.342285,462.159393 2077.124268,478.069977 2090.751465,490.341400 
M2136.494629,413.711426 
	C2140.819092,413.712860 2145.146729,413.616821 2149.466797,413.752258 
	C2152.056885,413.833496 2152.972656,412.843018 2152.963623,410.260468 
	C2152.927002,399.888641 2150.716553,390.163177 2144.994629,381.369781 
	C2140.936768,375.134033 2135.427246,370.853821 2128.285645,368.708527 
	C2099.995605,360.210327 2072.468506,382.592346 2073.864990,413.711182 
	C2094.381348,413.711182 2114.939209,413.711182 2136.494629,413.711426 
z"/>
<path fill="#1464A2" opacity="1.000000" stroke="none" 
	d="
M2349.024658,881.967163 
	C2338.840576,860.542297 2338.136719,838.232422 2340.435791,815.610046 
	C2341.657959,803.583069 2345.154053,792.130554 2351.022461,781.506042 
	C2367.212402,752.194092 2392.563232,739.854248 2425.349121,742.379211 
	C2460.748535,745.105591 2486.890625,768.337585 2494.398682,804.205627 
	C2499.886719,830.424744 2499.540039,856.549744 2488.103516,881.512329 
	C2474.492676,911.221191 2447.023682,927.154785 2414.436768,925.288574 
	C2384.200195,923.556946 2362.616455,909.250732 2349.024658,881.967163 
M2461.938477,862.273560 
	C2465.573730,849.082092 2465.879150,835.597412 2464.831055,822.117981 
	C2463.759766,808.342590 2460.142090,795.218262 2451.864502,783.839172 
	C2435.009521,760.668701 2398.718750,761.863464 2383.358154,786.023010 
	C2377.168945,795.757446 2373.707764,806.483154 2372.563477,817.866455 
	C2370.578857,837.613892 2370.991455,857.151550 2379.906982,875.522461 
	C2391.089355,898.564087 2418.081543,907.259827 2439.904297,894.716980 
	C2452.124023,887.693542 2457.814941,875.940857 2461.938477,862.273560 
z"/>
<path fill="#1665A3" opacity="1.000000" stroke="none" 
	d="
M2204.000000,684.206177 
	C2242.650879,684.206238 2280.801758,684.206238 2319.437012,684.206238 
	C2319.437012,692.596985 2319.437012,700.787781 2319.437012,709.473938 
	C2281.055176,709.473938 2242.635254,709.473938 2203.763184,709.473938 
	C2203.763184,736.820435 2203.763184,763.685181 2203.763184,791.231812 
	C2236.779541,791.231812 2269.819336,791.231812 2303.181152,791.231812 
	C2303.181152,799.980774 2303.181152,808.053833 2303.181152,816.810913 
	C2269.965088,816.810913 2236.932129,816.810913 2203.391357,816.810913 
	C2203.391357,852.067871 2203.391357,886.649109 2203.391357,921.541321 
	C2192.487305,921.541321 2182.096924,921.541321 2171.386719,921.541321 
	C2171.386719,842.497925 2171.386719,763.634705 2171.386719,684.206116 
	C2182.274658,684.206116 2192.887451,684.206116 2204.000000,684.206177 
z"/>
<path fill="#1565A3" opacity="1.000000" stroke="none" 
	d="
M2554.267090,451.000397 
	C2554.266846,474.471222 2554.266846,497.442047 2554.266846,520.761597 
	C2544.490479,520.761597 2535.100098,520.761597 2525.187256,520.761597 
	C2524.496094,512.958618 2523.811035,505.225433 2522.987061,495.921570 
	C2521.217773,498.279907 2520.183594,499.565155 2519.248291,500.918518 
	C2496.598145,533.692139 2444.049805,530.610107 2424.470703,503.640015 
	C2413.679688,488.775543 2410.677002,471.652893 2410.494141,453.982025 
	C2410.130615,418.828400 2410.349121,383.668762 2410.341797,348.511597 
	C2410.341553,347.388428 2410.504395,346.265167 2410.611328,344.881592 
	C2421.258789,344.881592 2431.665771,344.881592 2442.631348,344.881592 
	C2442.631348,346.903595 2442.631592,348.682281 2442.631592,350.460999 
	C2442.631592,383.285583 2442.460205,416.111633 2442.747314,448.933716 
	C2442.822510,457.538025 2443.717773,466.243042 2445.305176,474.701263 
	C2447.733154,487.638275 2455.727783,495.740173 2469.029541,497.620575 
	C2488.597656,500.386780 2508.534912,494.878082 2518.927490,477.028748 
	C2520.589111,474.175018 2521.622559,470.508453 2521.638184,467.211456 
	C2521.821289,428.389343 2521.754639,389.566040 2521.753906,350.743073 
	C2521.753906,348.939423 2521.753662,347.135742 2521.753662,344.967651 
	C2532.658691,344.967651 2543.201660,344.967651 2554.267334,344.967651 
	C2554.267334,380.285889 2554.267334,415.393127 2554.267090,451.000397 
z"/>
<path fill="#1565A3" opacity="1.000000" stroke="none" 
	d="
M2825.632812,921.294067 
	C2825.204346,919.994507 2825.042725,919.005615 2825.042480,918.016724 
	C2825.029785,861.851257 2825.029297,805.685852 2825.036621,749.520386 
	C2825.036865,748.366882 2825.143555,747.213379 2825.219482,745.674866 
	C2834.729248,745.674866 2844.121826,745.674866 2853.804932,745.674866 
	C2854.579834,753.599976 2855.345215,761.426331 2856.246338,770.642151 
	C2858.145752,768.216492 2859.128174,766.978149 2860.093506,765.726624 
	C2880.916504,738.725281 2923.680908,733.626953 2948.924072,755.190613 
	C2960.664062,765.219360 2965.334473,778.765808 2967.251709,793.467651 
	C2968.089844,799.893799 2968.441895,806.424255 2968.462891,812.909119 
	C2968.574463,847.574646 2968.514404,882.240784 2968.500244,916.906677 
	C2968.499512,918.367188 2968.366211,919.827759 2968.281250,921.561707 
	C2957.589355,921.561707 2947.181396,921.561707 2936.104492,921.561707 
	C2936.104492,919.612244 2936.104492,917.846313 2936.104492,916.080383 
	C2936.103271,881.747803 2936.305908,847.413147 2935.953125,813.084167 
	C2935.868652,804.862000 2934.599121,796.499878 2932.678955,788.488586 
	C2930.465332,779.253113 2923.768799,773.584473 2914.764404,770.607117 
	C2894.810791,764.009277 2872.145508,770.234741 2860.717041,785.935913 
	C2858.823486,788.537354 2857.587158,792.268982 2857.570557,795.486145 
	C2857.363770,835.484192 2857.438965,875.483643 2857.441650,915.482788 
	C2857.441650,917.433716 2857.441650,919.384583 2857.441650,921.604675 
	C2846.546143,921.604675 2836.260498,921.604675 2825.632812,921.294067 
z"/>
<path fill="#1564A3" opacity="1.000000" stroke="none" 
	d="
M3144.555664,781.565979 
	C3145.457764,786.821350 3146.200928,791.708374 3147.021973,797.107056 
	C3136.095703,797.107056 3126.048340,797.107056 3115.496094,797.107056 
	C3114.827393,788.194702 3110.610840,781.115173 3103.793701,775.448975 
	C3090.411621,764.325867 3064.864258,764.783752 3053.452881,776.411682 
	C3041.396484,788.696899 3044.527100,807.024292 3060.525635,812.986511 
	C3072.151367,817.319031 3084.517334,819.651367 3096.524414,822.979675 
	C3109.410156,826.551636 3121.732910,831.344971 3132.755371,839.190979 
	C3155.913574,855.675049 3153.138428,888.523865 3136.382568,905.172852 
	C3125.414307,916.070740 3112.097168,922.078979 3097.035645,924.047363 
	C3076.367432,926.748596 3055.959229,925.883911 3037.410156,915.008484 
	C3021.707764,905.802246 3011.077393,892.681519 3009.202393,873.815918 
	C3008.532959,867.083008 3008.635742,867.035217 3015.192383,867.030457 
	C3022.358154,867.025269 3029.524170,867.068481 3036.689453,867.004883 
	C3038.898682,866.985291 3040.481934,867.149231 3040.719971,870.019531 
	C3042.148438,887.245544 3053.394043,895.092590 3068.815186,898.697510 
	C3079.697021,901.241211 3090.748291,900.781128 3101.188477,896.301331 
	C3110.328125,892.379517 3116.650391,885.966675 3117.127197,875.314819 
	C3117.616211,864.398926 3112.116943,856.837952 3102.481201,853.198059 
	C3091.485840,849.044495 3079.982666,846.208496 3068.644043,842.997986 
	C3056.436768,839.541443 3044.633301,835.289307 3033.723145,828.599976 
	C3008.231689,812.970459 3009.870361,782.301208 3024.831543,764.893005 
	C3037.427979,750.235840 3053.807129,743.514404 3072.699951,742.320496 
	C3095.344482,740.889526 3116.435547,744.956787 3132.561523,762.381104 
	C3137.508301,767.726196 3140.506348,774.874878 3144.555664,781.565979 
z"/>
<path fill="#1565A3" opacity="1.000000" stroke="none" 
	d="
M2572.187500,789.401489 
	C2570.966553,793.481445 2569.061523,797.232849 2569.039795,800.995178 
	C2568.818604,839.314819 2568.904053,877.636230 2568.903809,915.957153 
	C2568.903809,917.614136 2568.903809,919.271179 2568.903809,921.389160 
	C2558.145264,921.389160 2547.620117,921.389160 2536.777832,921.389160 
	C2536.777832,862.968140 2536.777832,804.567566 2536.777832,745.724426 
	C2546.167725,745.724426 2555.530518,745.724426 2565.376221,745.724426 
	C2566.348145,753.409424 2567.320068,761.097717 2568.474121,770.223633 
	C2570.526611,767.241638 2571.881348,765.139648 2573.367676,763.135193 
	C2585.031494,747.405884 2600.146240,739.663513 2620.084473,742.720337 
	C2623.457275,743.237366 2624.686768,744.357971 2624.087646,747.853333 
	C2622.630127,756.354553 2621.446045,764.902588 2620.105713,773.737976 
	C2615.341064,773.485962 2611.035400,773.314575 2606.738281,773.020569 
	C2592.311523,772.033813 2580.598145,776.806946 2572.187500,789.401489 
z"/>
<path fill="#1464A3" opacity="1.000000" stroke="none" 
	d="
M2600.590332,489.999756 
	C2600.590576,441.525421 2600.590576,393.551086 2600.590576,345.090271 
	C2610.161621,345.090271 2619.525635,345.090271 2629.474609,345.090271 
	C2630.443848,352.728424 2631.436035,360.545380 2632.582764,369.581024 
	C2634.107666,367.335358 2635.057129,365.917053 2636.026611,364.512482 
	C2647.550537,347.816040 2662.740479,338.972107 2683.650879,341.925232 
	C2687.410400,342.456177 2688.883301,343.600891 2688.151855,347.626984 
	C2686.639648,355.945862 2685.534180,364.338654 2684.260986,372.705505 
	C2676.114014,372.705505 2668.427979,372.096069 2660.875488,372.841400 
	C2647.980469,374.114044 2639.414062,381.926239 2633.871582,393.211670 
	C2632.979248,395.028870 2633.024658,397.418732 2633.021973,399.544281 
	C2632.976562,438.029999 2632.989746,476.515778 2632.990723,515.001526 
	C2632.990723,516.802307 2632.990723,518.603088 2632.990723,520.749634 
	C2622.159180,520.749634 2611.752686,520.749634 2600.589844,520.749634 
	C2600.589844,510.671173 2600.589844,500.585480 2600.590332,489.999756 
z"/>
<path fill="#1867A4" opacity="1.000000" stroke="none" 
	d="
M2751.818604,454.000000 
	C2751.818604,476.449890 2751.818604,498.399750 2751.818604,520.733459 
	C2740.900635,520.733459 2730.384521,520.733459 2719.606934,520.733459 
	C2719.606934,462.110413 2719.606934,403.725494 2719.606934,344.964600 
	C2730.241943,344.964600 2740.788330,344.964600 2751.818604,344.964600 
	C2751.818604,381.310181 2751.818604,417.405090 2751.818604,454.000000 
z"/>
<path fill="#1867A4" opacity="1.000000" stroke="none" 
	d="
M2728.120605,299.500519 
	C2725.029785,299.500305 2722.419189,299.500305 2719.355469,299.500305 
	C2719.355469,289.030304 2719.283447,279.241302 2719.465820,269.457031 
	C2719.484375,268.467957 2721.020508,266.678406 2721.881104,266.660797 
	C2731.654541,266.460999 2741.433594,266.533997 2751.510254,266.533997 
	C2751.510254,277.688873 2751.510254,288.263458 2751.510254,299.500732 
	C2743.827148,299.500732 2736.214111,299.500732 2728.120605,299.500519 
z"/>
<path fill="#DCE8F1" opacity="1.000000" stroke="none" 
	d="
M873.861145,780.765625 
	C860.741150,801.431274 843.938965,821.705627 835.782410,824.908264 
	C836.649353,823.466003 837.353088,821.889709 838.409485,820.603027 
	C845.505371,811.960510 852.833679,803.503784 859.763428,794.731567 
	C863.883728,789.515747 867.361145,783.795776 871.256409,778.395386 
	C872.043274,777.304504 873.409424,776.631348 874.508484,775.765625 
	C875.009827,776.085693 875.511169,776.405823 876.012512,776.725891 
	C875.384766,777.984741 874.757080,779.243591 873.861145,780.765625 
z"/>
<path fill="#DCE8F1" opacity="1.000000" stroke="none" 
	d="
M1212.801758,675.169922 
	C1203.391968,670.683655 1193.828979,667.113892 1187.401001,658.556946 
	C1204.211914,670.170532 1223.613159,676.473938 1242.586548,685.426270 
	C1238.990601,686.692749 1219.351929,679.392334 1212.801758,675.169922 
z"/>
<path fill="#DCE8F1" opacity="1.000000" stroke="none" 
	d="
M689.983215,673.960754 
	C689.983704,668.706360 689.983704,663.942810 689.983704,659.179199 
	C690.766846,659.207947 691.549988,659.236633 692.333130,659.265381 
	C693.698853,667.365479 692.820618,675.505615 692.819092,683.630066 
	C692.065674,683.693604 691.312317,683.757080 690.558899,683.820557 
	C690.366821,680.697571 690.174805,677.574524 689.983215,673.960754 
z"/>
<path fill="#DCE8F1" opacity="1.000000" stroke="none" 
	d="
M705.998718,670.021362 
	C705.999878,666.270325 705.999878,663.007751 705.999878,659.294739 
	C709.346375,662.057556 710.202515,676.164001 707.882996,681.627747 
	C705.974854,679.869019 705.974854,679.869019 705.998718,670.021362 
z"/>
<path fill="#FEFFFF" opacity="1.000000" stroke="none" 
	d="
M1351.152344,908.000000 
	C1351.153198,866.009644 1351.134766,824.519348 1351.161133,783.028992 
	C1351.179199,754.783508 1369.926636,736.083923 1398.176636,736.082581 
	C1493.321167,736.078003 1588.466797,736.347473 1683.609253,735.903748 
	C1709.181763,735.784485 1731.037964,754.559021 1730.871216,783.468872 
	C1730.530151,842.619751 1730.781494,901.773987 1730.761841,960.926880 
	C1730.752197,990.036316 1712.047363,1008.744873 1682.927368,1008.750488 
	C1587.616211,1008.768860 1492.305176,1008.770508 1396.994019,1008.753418 
	C1370.676270,1008.748718 1351.253662,989.344910 1351.168213,962.987915 
	C1351.109375,944.825439 1351.153809,926.662659 1351.152344,908.000000 
z"/>
<path fill="#FDFEFE" opacity="1.000000" stroke="none" 
	d="
M2310.000244,495.271515 
	C2294.066895,500.170837 2278.907227,500.229034 2265.582764,489.597534 
	C2255.868164,481.846405 2251.633301,470.627777 2249.707520,458.753174 
	C2246.023438,436.035065 2246.896484,413.585541 2256.106934,392.100433 
	C2262.654297,376.827820 2274.090820,368.134705 2291.112305,367.574493 
	C2309.372314,366.973511 2322.721924,375.113739 2331.916992,390.533356 
	C2332.701660,391.849182 2332.894531,393.681458 2332.898193,395.274933 
	C2332.955078,420.091217 2332.965576,444.907806 2332.873779,469.723877 
	C2332.866699,471.616455 2332.406738,473.730865 2331.482666,475.359283 
	C2326.514160,484.112640 2319.776855,491.072998 2310.000244,495.271515 
z"/>
<path fill="#FDFEFE" opacity="1.000000" stroke="none" 
	d="
M2845.141602,490.935486 
	C2834.474609,482.636902 2829.733154,471.258392 2827.734863,458.917511 
	C2824.088867,436.401367 2824.905029,414.072235 2833.901611,392.664215 
	C2840.254395,377.548004 2851.292969,368.576721 2868.082031,367.622620 
	C2886.259521,366.589539 2899.962646,374.209412 2909.561279,389.438812 
	C2910.466309,390.874634 2910.773193,392.902893 2910.778320,394.657776 
	C2910.852783,419.819733 2910.883301,444.982330 2910.734619,470.143616 
	C2910.720703,472.480774 2909.868652,475.082062 2908.645752,477.100494 
	C2898.591309,493.698792 2881.046631,501.583282 2862.015625,497.551910 
	C2856.291504,496.339355 2850.946289,493.338013 2845.141602,490.935486 
z"/>
<path fill="#FDFEFE" opacity="1.000000" stroke="none" 
	d="
M3268.195068,373.692841 
	C3270.722656,375.642792 3273.061768,377.259399 3275.149414,379.153046 
	C3281.671875,385.069702 3285.387207,391.701843 3285.064453,401.318512 
	C3284.305176,423.955231 3284.905762,446.635437 3284.712891,469.295959 
	C3284.688721,472.108307 3283.766357,475.261322 3282.289795,477.658844 
	C3268.410645,500.195984 3244.060791,501.840881 3226.273926,494.882874 
	C3212.738770,489.588074 3206.265137,477.987518 3203.131104,464.805023 
	C3197.459473,440.946808 3198.125732,417.091827 3207.372559,394.145660 
	C3217.724365,368.457397 3243.545898,359.914276 3268.195068,373.692841 
z"/>
<path fill="#FBFDFD" opacity="1.000000" stroke="none" 
	d="
M3095.670898,456.960510 
	C3097.692139,474.061584 3086.928223,482.629395 3074.776123,490.001404 
	C3063.383057,496.912842 3050.727051,498.662262 3037.708496,496.831573 
	C3019.836182,494.318359 3011.107910,475.171600 3020.374512,458.955627 
	C3027.308594,446.821777 3038.576416,440.890381 3051.987305,440.004761 
	C3065.910645,439.085266 3079.928955,439.596863 3093.906006,439.514221 
	C3094.354980,439.511566 3094.806152,439.856110 3095.670898,440.206970 
	C3095.670898,445.559143 3095.670898,451.014069 3095.670898,456.960510 
z"/>
<path fill="#FCFDFE" opacity="1.000000" stroke="none" 
	d="
M3296.116943,807.106018 
	C3296.137939,809.543945 3296.137939,811.509277 3296.137939,813.872681 
	C3269.636230,813.872681 3243.488037,813.872681 3217.364258,813.872681 
	C3214.399902,782.999634 3247.135742,758.638367 3274.987793,770.708435 
	C3286.461670,775.680847 3291.591553,785.507751 3294.625244,796.792419 
	C3295.480713,799.974609 3295.625488,803.347839 3296.116943,807.106018 
z"/>
<path fill="#FCFDFE" opacity="1.000000" stroke="none" 
	d="
M2733.774658,769.963196 
	C2748.979248,776.459106 2754.368164,789.139893 2756.187988,803.856018 
	C2757.470703,814.229919 2757.121582,814.273132 2746.693604,814.273071 
	C2725.529541,814.272888 2704.365723,814.272827 2683.201660,814.272705 
	C2681.406250,814.272705 2679.610840,814.272644 2677.075684,814.272644 
	C2678.632812,799.002380 2683.570557,785.924255 2694.810059,776.006836 
	C2706.202393,765.954590 2719.576416,765.868225 2733.774658,769.963196 
z"/>
<path fill="#FAFBFD" opacity="1.000000" stroke="none" 
	d="
M2135.995605,413.711304 
	C2114.939209,413.711182 2094.381348,413.711182 2073.864990,413.711182 
	C2072.468506,382.592346 2099.995605,360.210327 2128.285645,368.708527 
	C2135.427246,370.853821 2140.936768,375.134033 2144.994629,381.369781 
	C2150.716553,390.163177 2152.927002,399.888641 2152.963623,410.260468 
	C2152.972656,412.843018 2152.056885,413.833496 2149.466797,413.752258 
	C2145.146729,413.616821 2140.819092,413.712860 2135.995605,413.711304 
z"/>
<path fill="#FDFEFE" opacity="1.000000" stroke="none" 
	d="
M2461.799805,862.656494 
	C2457.814941,875.940857 2452.124023,887.693542 2439.904297,894.716980 
	C2418.081543,907.259827 2391.089355,898.564087 2379.906982,875.522461 
	C2370.991455,857.151550 2370.578857,837.613892 2372.563477,817.866455 
	C2373.707764,806.483154 2377.168945,795.757446 2383.358154,786.023010 
	C2398.718750,761.863464 2435.009521,760.668701 2451.864502,783.839172 
	C2460.142090,795.218262 2463.759766,808.342590 2464.831055,822.117981 
	C2465.879150,835.597412 2465.573730,849.082092 2461.799805,862.656494 
z"/>
</svg>