<?xml version="1.0" encoding="utf-8"?>
<!-- Svg Vector Icons : http://www.onlinewebfonts.com/icon -->
<!DOCTYPE svg PUBLIC "-//W3C//DTD SVG 1.1//EN" "http://www.w3.org/Graphics/SVG/1.1/DTD/svg11.dtd">
<svg version="1.1" xmlns="http://www.w3.org/2000/svg" xmlns:xlink="http://www.w3.org/1999/xlink" x="0px" y="0px" viewBox="0 0 1000 1000" enable-background="new 0 0 1000 1000" xml:space="preserve">
<metadata> Svg Vector Icons : http://www.onlinewebfonts.com/icon </metadata>
<g><g transform="translate(0.000000,511.000000) scale(0.100000,-0.100000)"><path d="M1478.9,4998.5C922,4926.6,478.1,4675.9,266.5,4312.1c-28.8-47.3-78.1-160.3-108.9-248.7L100,3901.2V109.8v-3791.3l63.7-174.7c168.5-476.7,517.8-750,1140.5-895.9c133.6-30.8,310.3-37,1456.9-43.2c875.4-6.2,1368.6-2,1500.1,14.4c285.6,32.9,499.3,92.5,719.2,201.4c371.9,182.9,616.5,495.3,690.4,881.6c24.7,137.7,28.8,676.1,24.7,3890l-6.2,3729.7l-55.5,150c-80.1,219.9-172.6,361.7-335,511.7c-238.4,221.9-585.7,363.7-1017.2,417.1C4070.1,5025.2,1682.3,5023.2,1478.9,4998.5z M4261.2,4649.1c369.9-45.2,606.2-137.7,797.3-316.5c65.8-59.6,143.8-156.2,174.7-211.7c57.5-106.9,117.1-320.6,117.1-429.5v-67.8H2892.7H435l14.4,129.5c28.8,242.5,129.5,445.9,300,598c162.3,148,499.3,273.3,819.9,306.2C1752.2,4675.9,4101,4669.7,4261.2,4649.1z M5350.4,109.8v-3164.6H2894.7H439.1V109.8v3164.6h2455.6h2455.6V109.8z M5350.4-3469.9c0-111-59.6-324.7-117.1-431.5c-30.8-55.5-108.9-152.1-174.7-211.7c-191.1-178.8-427.4-271.3-797.3-316.5c-228.1-28.8-2500.9-28.8-2733.1-2.1c-649.4,78.1-1023.4,390.4-1080.9,902.1l-14.4,125.3h2459.8h2457.7V-3469.9z"/><path d="M2292.6,4301.9c-55.5-22.6-113-145.9-92.5-199.3c6.2-20.6,30.8-57.5,53.4-82.2c41.1-47.3,45.2-47.3,639.1-47.3c437.7,2.1,606.2,8.2,630.9,26.7c94.5,71.9,96.6,207.6,4.1,281.5c-49.3,39-82.2,41.1-620.6,39C2594.7,4320.4,2319.3,4312.1,2292.6,4301.9z"/><path d="M2600.9-3800.7c-57.5-59.6-59.6-176.7-6.2-242.5c37-47.3,51.4-49.3,298-49.3c238.4,0,261,4.1,304.1,45.2c61.7,63.7,61.7,172.6-4.1,242.5c-47.3,49.3-57.5,51.4-298,51.4C2660.5-3753.5,2642-3755.5,2600.9-3800.7z"/><path d="M8019.7,3839.5c-63.7-34.9-111-133.6-90.4-193.2c6.2-22.6,111-137.7,230.2-252.8c400.7-392.5,690.4-789.1,930.9-1280.2c215.8-441.8,341.1-838.4,423.3-1356.3c55.5-345.2,51.4-1000.7-10.3-1366.5c-166.4-978.2-579.5-1785.7-1284.3-2502.9c-147.9-150-277.4-293.9-285.6-322.6c-41.1-119.2,108.9-246.6,230.2-195.2c86.3,34.9,579.5,546.6,754.2,780.9c408.9,546.6,706.9,1179.5,856.9,1818.6C9873.3-613.5,9900-366.9,9900,109.8c0,476.8-26.7,723.3-125.4,1140.5C9618.5,1912,9273.2,2623,8847.9,3161.4c-170.6,215.8-600,647.3-676.1,680.2C8091.7,3876.5,8087.5,3876.5,8019.7,3839.5z"/><path d="M7333.4,3044.2c-65.8-37-90.4-82.2-92.5-158.2c0-59.6,18.5-86.3,125.4-184.9c1019.3-928.8,1401.5-2426.9,951.4-3723.5c-191.1-552.8-536.3-1080.9-951.4-1459c-104.8-94.5-125.4-125.4-125.4-180.8c0-37,8.2-82.2,20.6-102.7c26.7-51.4,131.5-92.5,195.2-76c71.9,18.5,353.5,289.7,544.6,528.1c1006.9,1251.5,1136.4,3000.2,324.7,4375c-203.4,345.2-534.3,748-762.4,926.8C7460.8,3071,7405.3,3085.3,7333.4,3044.2z"/><path d="M6593.6,2201.7c-84.2-100.7-61.6-154.1,160.3-384.3c464.4-480.8,692.5-1039.8,692.5-1701.5c0-300-18.5-439.8-94.5-698.7c-113-388.4-300-706.9-598-1015.1c-221.9-230.1-244.5-283.6-160.3-384.3c111-131.5,244.6-67.8,509.6,236.3c341.1,392.5,575.4,881.6,661.7,1383c45.2,254.8,45.2,690.4,0,945.3c-86.3,501.4-320.6,990.5-661.7,1383C6838.1,2269.5,6704.6,2333.2,6593.6,2201.7z"/></g></g>
</svg>