<?xml version="1.0" encoding="utf-8"?>
<svg version="1.1" id="Capa_1" xmlns="http://www.w3.org/2000/svg" xmlns:xlink="http://www.w3.org/1999/xlink" x="0px" y="0px"
width="360" height="362" viewBox="0 0 360 362" style="enable-background:new 0 0 1600 992;" xml:space="preserve">
	 <defs>
		<linearGradient id="grad1" x1="0%" y1="0%" x2="100%" y2="0%">
		  <stop offset="0%" style="stop-color:rgb(98,170,224);stop-opacity:1" />
		  <stop offset="100%" style="stop-color:rgb(11,67,110);stop-opacity:1" />
		</linearGradient>
	  </defs>
	<style type="text/css">
		.st0{fill:url(#grad1);}
	</style>
<path class="st0" d="M81.6,181c0-15.7,4.9-30.7,14.1-43.4c1.9-2.7,1.3-6.3-1.3-8.3c-2.7-1.9-6.3-1.3-8.3,1.3c-10.7,14.7-16.3,32.1-16.3,50.3
	s5.6,35.6,16.3,50.3c1.1,1.6,2.9,2.4,4.8,2.4c1.2,0,2.4-0.4,3.5-1.1c2.6-1.9,3.2-5.6,1.3-8.2C86.4,211.7,81.6,196.7,81.6,181z M102.2,181c0-9.9,2.7-19.6,7.9-27.9c1.7-2.8,0.9-6.4-1.9-8.1c-2.8-1.7-6.4-0.9-8.1,1.9c-6.3,10.2-9.7,22.1-9.7,34.1
	c0,12.2,3.4,24.1,9.9,34.4c1.1,1.8,3,2.8,5,2.8c1.1,0,2.2-0.3,3.1-0.9c2.8-1.7,3.6-5.4,1.9-8.1C105,200.7,102.2,191,102.2,181z M273.9,130.7c-1.9-2.6-5.6-3.2-8.3-1.3c-2.6,1.9-3.2,5.6-1.3,8.3c9.2,12.7,14.1,27.7,14.1,43.4s-4.9,30.7-14.1,43.4
	c-1.9,2.7-1.3,6.3,1.3,8.2c1.1,0.8,2.3,1.1,3.5,1.1c1.8,0,3.6-0.9,4.8-2.4c10.7-14.7,16.3-32.1,16.3-50.3S284.6,145.4,273.9,130.7z M259.9,146.9c-1.7-2.8-5.3-3.6-8.1-1.9c-2.8,1.7-3.6,5.4-1.9,8.1c5.2,8.4,7.9,18,7.9,27.9c0,10-2.8,19.7-8.1,28.1
	c-1.7,2.8-0.9,6.4,1.9,8.1c1,0.6,2,0.9,3.1,0.9c2,0,3.9-1,5-2.8c6.4-10.3,9.9-22.2,9.9-34.4C269.6,168.9,266.2,157.1,259.9,146.9z M223.3,70.8h-86.6c-8.7,0-15.8,7-15.8,15.8v189c0,8.7,7,15.8,15.8,15.8h86.6c8.7,0,15.8-7,15.8-15.8v-189
	C239.1,77.8,232,70.8,223.3,70.8z M168.2,82.6h23.6c2.2,0,3.9,1.8,3.9,3.9c0,2.2-1.8,3.9-3.9,3.9h-23.6c-2.2,0-3.9-1.8-3.9-3.9
	C164.2,84.3,166,82.6,168.2,82.6z M180,283.4c-6.5,0-11.8-5.3-11.8-11.8s5.3-11.8,11.8-11.8s11.8,5.3,11.8,11.8
	S186.5,283.4,180,283.4z M229.2,251.9h-98.4V102.2h98.4V251.9z M81.6,181c0-15.7,4.9-30.7,14.1-43.4c1.9-2.7,1.3-6.3-1.3-8.3c-2.7-1.9-6.3-1.3-8.3,1.3c-10.7,14.7-16.3,32.1-16.3,50.3
	s5.6,35.6,16.3,50.3c1.1,1.6,2.9,2.4,4.8,2.4c1.2,0,2.4-0.4,3.5-1.1c2.6-1.9,3.2-5.6,1.3-8.2C86.4,211.7,81.6,196.7,81.6,181z M102.2,181c0-9.9,2.7-19.6,7.9-27.9c1.7-2.8,0.9-6.4-1.9-8.1c-2.8-1.7-6.4-0.9-8.1,1.9c-6.3,10.2-9.7,22.1-9.7,34.1
	c0,12.2,3.4,24.1,9.9,34.4c1.1,1.8,3,2.8,5,2.8c1.1,0,2.2-0.3,3.1-0.9c2.8-1.7,3.6-5.4,1.9-8.1C105,200.7,102.2,191,102.2,181z M273.9,130.7c-1.9-2.6-5.6-3.2-8.3-1.3c-2.6,1.9-3.2,5.6-1.3,8.3c9.2,12.7,14.1,27.7,14.1,43.4s-4.9,30.7-14.1,43.4
	c-1.9,2.7-1.3,6.3,1.3,8.2c1.1,0.8,2.3,1.1,3.5,1.1c1.8,0,3.6-0.9,4.8-2.4c10.7-14.7,16.3-32.1,16.3-50.3S284.6,145.4,273.9,130.7z M259.9,146.9c-1.7-2.8-5.3-3.6-8.1-1.9c-2.8,1.7-3.6,5.4-1.9,8.1c5.2,8.4,7.9,18,7.9,27.9c0,10-2.8,19.7-8.1,28.1
	c-1.7,2.8-0.9,6.4,1.9,8.1c1,0.6,2,0.9,3.1,0.9c2,0,3.9-1,5-2.8c6.4-10.3,9.9-22.2,9.9-34.4C269.6,168.9,266.2,157.1,259.9,146.9z"
	/>
	<!-- <path d="M81.6,181c0-15.7,4.9-30.7,14.1-43.4c1.9-2.7,1.3-6.3-1.3-8.3c-2.7-1.9-6.3-1.3-8.3,1.3c-10.7,14.7-16.3,32.1-16.3,50.3
	s5.6,35.6,16.3,50.3c1.1,1.6,2.9,2.4,4.8,2.4c1.2,0,2.4-0.4,3.5-1.1c2.6-1.9,3.2-5.6,1.3-8.2C86.4,211.7,81.6,196.7,81.6,181z"/>
<path d="M102.2,181c0-9.9,2.7-19.6,7.9-27.9c1.7-2.8,0.9-6.4-1.9-8.1c-2.8-1.7-6.4-0.9-8.1,1.9c-6.3,10.2-9.7,22.1-9.7,34.1
	c0,12.2,3.4,24.1,9.9,34.4c1.1,1.8,3,2.8,5,2.8c1.1,0,2.2-0.3,3.1-0.9c2.8-1.7,3.6-5.4,1.9-8.1C105,200.7,102.2,191,102.2,181z"/>
<path d="M273.9,130.7c-1.9-2.6-5.6-3.2-8.3-1.3c-2.6,1.9-3.2,5.6-1.3,8.3c9.2,12.7,14.1,27.7,14.1,43.4s-4.9,30.7-14.1,43.4
	c-1.9,2.7-1.3,6.3,1.3,8.2c1.1,0.8,2.3,1.1,3.5,1.1c1.8,0,3.6-0.9,4.8-2.4c10.7-14.7,16.3-32.1,16.3-50.3S284.6,145.4,273.9,130.7z"
	/>
<path d="M259.9,146.9c-1.7-2.8-5.3-3.6-8.1-1.9c-2.8,1.7-3.6,5.4-1.9,8.1c5.2,8.4,7.9,18,7.9,27.9c0,10-2.8,19.7-8.1,28.1
	c-1.7,2.8-0.9,6.4,1.9,8.1c1,0.6,2,0.9,3.1,0.9c2,0,3.9-1,5-2.8c6.4-10.3,9.9-22.2,9.9-34.4C269.6,168.9,266.2,157.1,259.9,146.9z"
	/>
<path d="M223.3,70.8h-86.6c-8.7,0-15.8,7-15.8,15.8v189c0,8.7,7,15.8,15.8,15.8h86.6c8.7,0,15.8-7,15.8-15.8v-189
	C239.1,77.8,232,70.8,223.3,70.8z M168.2,82.6h23.6c2.2,0,3.9,1.8,3.9,3.9c0,2.2-1.8,3.9-3.9,3.9h-23.6c-2.2,0-3.9-1.8-3.9-3.9
	C164.2,84.3,166,82.6,168.2,82.6z M180,283.4c-6.5,0-11.8-5.3-11.8-11.8s5.3-11.8,11.8-11.8s11.8,5.3,11.8,11.8
	S186.5,283.4,180,283.4z M229.2,251.9h-98.4V102.2h98.4V251.9z"/>
<path d="M81.6,181c0-15.7,4.9-30.7,14.1-43.4c1.9-2.7,1.3-6.3-1.3-8.3c-2.7-1.9-6.3-1.3-8.3,1.3c-10.7,14.7-16.3,32.1-16.3,50.3
	s5.6,35.6,16.3,50.3c1.1,1.6,2.9,2.4,4.8,2.4c1.2,0,2.4-0.4,3.5-1.1c2.6-1.9,3.2-5.6,1.3-8.2C86.4,211.7,81.6,196.7,81.6,181z"/>
<path d="M102.2,181c0-9.9,2.7-19.6,7.9-27.9c1.7-2.8,0.9-6.4-1.9-8.1c-2.8-1.7-6.4-0.9-8.1,1.9c-6.3,10.2-9.7,22.1-9.7,34.1
	c0,12.2,3.4,24.1,9.9,34.4c1.1,1.8,3,2.8,5,2.8c1.1,0,2.2-0.3,3.1-0.9c2.8-1.7,3.6-5.4,1.9-8.1C105,200.7,102.2,191,102.2,181z"/>
<path d="M273.9,130.7c-1.9-2.6-5.6-3.2-8.3-1.3c-2.6,1.9-3.2,5.6-1.3,8.3c9.2,12.7,14.1,27.7,14.1,43.4s-4.9,30.7-14.1,43.4
	c-1.9,2.7-1.3,6.3,1.3,8.2c1.1,0.8,2.3,1.1,3.5,1.1c1.8,0,3.6-0.9,4.8-2.4c10.7-14.7,16.3-32.1,16.3-50.3S284.6,145.4,273.9,130.7z"
	/>
<path d="M259.9,146.9c-1.7-2.8-5.3-3.6-8.1-1.9c-2.8,1.7-3.6,5.4-1.9,8.1c5.2,8.4,7.9,18,7.9,27.9c0,10-2.8,19.7-8.1,28.1
	c-1.7,2.8-0.9,6.4,1.9,8.1c1,0.6,2,0.9,3.1,0.9c2,0,3.9-1,5-2.8c6.4-10.3,9.9-22.2,9.9-34.4C269.6,168.9,266.2,157.1,259.9,146.9z"
	/>-->
</svg>
