<?xml version="1.0" encoding="utf-8"?>
<!-- Generator: Adobe Illustrator 27.2.0, SVG Export Plug-In . SVG Version: 6.00 Build 0)  -->
<svg version="1.1" id="Capa_1" xmlns="http://www.w3.org/2000/svg" xmlns:xlink="http://www.w3.org/1999/xlink" x="0px" y="0px"
	 viewBox="0 0 1600 992" style="enable-background:new 0 0 1600 992;" xml:space="preserve">
	 <defs>
    <linearGradient id="grad1" x1="0%" y1="0%" x2="100%" y2="0%">
      <stop offset="0%" style="stop-color:rgb(208,229,249);stop-opacity:1" />
      <stop offset="100%" style="stop-color:rgb(153,192,229);stop-opacity:1" />
    </linearGradient>
	    <linearGradient id="grad2" x1="0%" y1="0%" x2="100%" y2="0%">
      <stop offset="0%" style="stop-color:rgb(80,145,195);stop-opacity:1" />
      <stop offset="100%" style="stop-color:rgb(11,67,110);stop-opacity:1" />
    </linearGradient>
  </defs>
<style type="text/css">
	.st0{fill:url(#grad1);}
	.st1{fill:#ECF0F1;} <!-- trozo blanco pantallita superior-->
	.st2{fill:url(#grad2);}
</style>
<g>
	<path class="st0" d="M522.46,672H452.7c-12.29,0-22.26-9.97-22.26-22.26V435.69c0-12.29,9.97-22.26,22.26-22.26h69.77
		c12.29,0,22.26,9.97,22.26,22.26v214.04C544.72,662.03,534.75,672,522.46,672z"/>
	<rect x="459.19" y="409.53" class="st1" width="56.72" height="16.02"/>
	<path class="st2" d="M517.78,392.99h-59.33c-25.63,0-46.41,20.78-46.41,46.41v202.8c0,25.64,20.79,46.41,46.41,46.41h59.33
		c25.64,0,46.41-20.79,46.41-46.41V439.4C564.19,413.76,543.41,392.99,517.78,392.99z M508.66,413.43c2.25,0,4.07,1.83,4.07,4.08
		c0,2.25-1.83,4.07-4.07,4.07c-2.25,0-4.08-1.83-4.08-4.07C504.58,415.26,506.41,413.43,508.66,413.43z M465.27,413.94h31.1
		c1.98,0,3.58,1.6,3.58,3.58c0,1.98-1.61,3.57-3.58,3.57h-31.1c-1.98,0-3.58-1.6-3.58-3.58S463.3,413.94,465.27,413.94z
		 M536.88,642.2c0,10.53-8.57,19.1-19.1,19.1h-59.33c-10.53,0-19.1-8.57-19.1-19.1V439.4c0-7.31,4.17-13.59,10.22-16.81
		c1.99,5.9,6.46,10.05,11.64,10.05h53.82c5.18,0,9.65-4.15,11.64-10.05c6.05,3.21,10.22,9.5,10.22,16.81V642.2z"/>
</g>
<g>
	<path class="st0" d="M922.19,601.46V407.72c0-45.38,36.92-82.29,82.29-82.29h83.01v-87.34H473.07v133.74h29.66
		c45.68,0,82.83,37.16,82.83,82.83v146.8L922.19,601.46L922.19,601.46z"/>
	<path class="st2" d="M853.47,641.65h68.72v-85.59H585.56v85.59h117.2c-4.39,20.74-13.2,41.47-26.47,62.21
		c-2.74,4.28,0.36,9.91,5.44,9.91h36.43h20.75h36.43h5.56h36.43h20.75h36.43c5.08,0,8.18-5.62,5.44-9.91
		C866.67,683.12,857.86,662.39,853.47,641.65z"/>
	<path class="st2" d="M1072.42,325.42h27.31v-75.07c0-13.88-11.26-25.15-25.15-25.15H481.65c-13.88,0-25.15,11.26-25.15,25.15
		v121.47h27.31v-119.3h588.61V325.42z"/>
</g>
<g>
	<rect x="959.05" y="364.28" class="st0" width="219.78" height="292.25"/>
	<rect x="1042.17" y="656.53" class="st1" width="56.72" height="29.23"/>
	<path class="st2" d="M1149.98,345.76H983.96c-25.23,0-45.88,20.65-45.88,45.88v257.44c0,25.23,20.65,45.88,45.88,45.88h166.02
		c25.23,0,45.88-20.65,45.88-45.88V391.63C1195.86,366.4,1175.21,345.76,1149.98,345.76z M1066.97,681.9
		c-5.93,0-10.72-4.81-10.72-10.73s4.81-10.72,10.72-10.72c5.93,0,10.73,4.81,10.73,10.72C1077.7,677.1,1072.89,681.9,1066.97,681.9z
		 M1168.54,646.16H965.4V391.63c0-10.06,8.5-18.56,18.56-18.56h166.02c10.06,0,18.56,8.5,18.56,18.56V646.16z"/>
	<path class="st2" d="M1149.98,345.76H983.96c-25.23,0-45.88,20.65-45.88,45.88v257.44c0,25.23,20.65,45.88,45.88,45.88h166.02
		c25.23,0,45.88-20.65,45.88-45.88V391.63C1195.86,366.4,1175.21,345.76,1149.98,345.76z M1066.97,681.9
		c-5.93,0-10.72-4.81-10.72-10.73s4.81-10.72,10.72-10.72c5.93,0,10.73,4.81,10.73,10.72C1077.7,677.1,1072.89,681.9,1066.97,681.9z
		 M1168.54,646.16H965.4V391.63c0-10.06,8.5-18.56,18.56-18.56h166.02c10.06,0,18.56,8.5,18.56,18.56V646.16z"/>
</g>
</svg>
