<?xml version="1.0" encoding="utf-8"?>
<!-- Generator: Adobe Illustrator 27.2.0, SVG Export Plug-In . SVG Version: 6.00 Build 0)  -->
<svg version="1.1" id="Capa_1" xmlns="http://www.w3.org/2000/svg" xmlns:xlink="http://www.w3.org/1999/xlink" x="0px" y="0px"
	 viewBox="0 0 1600 992" style="enable-background:new 0 0 1600 992;" xml:space="preserve">
	 <defs>
		<linearGradient id="grad1" x1="0%" y1="0%" x2="100%" y2="0%">
		  <stop offset="0%" style="stop-color:rgb(98,170,224);stop-opacity:1" />
		  <stop offset="100%" style="stop-color:rgb(11,67,110);stop-opacity:1" />
		</linearGradient>
	  </defs>
	<style type="text/css">
		.st0{fill:url(#grad1);}
	</style>
<g>
	<g>
		<g>
			<path class="st0" d="M1085.2,367.78l-72.87-52.63v-56.34c0-7.5-7.1-13.62-15.99-13.62h-81.2c-0.38-0.32-69.27-50.13-69.27-50.13
				c-17.98-12.98-44.1-12.98-62.08,0l-69.46,50.13h-81.01c-8.8,0-15.99,6.05-15.99,13.62v56.34l-72.96,52.63
				c-10.6,7.74-16.85,19.1-16.85,31.19v234.86c0,22.57,21.58,40.94,48.08,40.94h322.66c1.17-0.75,2.32-1.54,3.37-2.44
				c2.03-1.75,3.6-3.85,4.3-6.47c0.77-2.86,0.65-6.09,0.02-8.97c-0.56-2.57-1.64-5.02-3.57-6.85c-1.18-1.12-2.6-1.86-4.11-2.34
				H587.98l128.9-93.01l66.81,48.28c9.09,6.45,20.06,9.75,31.14,9.75c11.07,0,22.05-3.31,31.14-9.75l72.49-52.31l15.88,11.46
				c2.94-9.76,11.42-17.61,21.25-20.39l-12.52-9.04l127.19-91.72v79.29c1.14,1.39,2.06,2.89,2.86,4.48c2.35,1.86,5,3.19,7.85,4.1
				c2.53,0.13,5.09-0.01,7.47-0.1c3.65-0.14,7.04-0.75,9.99-3c0.32-0.24,0.63-0.49,0.94-0.74c0.82-1.75,1.71-3.46,2.78-5.07V398.97
				C1102.14,386.89,1095.89,375.52,1085.2,367.78z M804.41,215.86c5.96-4.35,14.86-4.35,20.82,0l40.69,29.42H763.72L804.41,215.86z
				 M559.49,398.97c0-4.11,2.08-7.82,5.68-10.48l52.24-37.72v96.32l-52.24-37.64c-3.6-2.58-5.68-6.37-5.68-10.4V398.97z
				 M559.39,632.63v-49.97h29.34c8.8,0,15.99-6.04,15.99-13.62c0-7.58-7.19-13.62-15.99-13.62h-29.34v-20.07h59.43
				c8.8,0,15.99-6.05,15.99-13.62c0-7.5-7.1-13.62-15.99-13.62h-59.43v-67.22l132.78,95.75L559.39,632.63z M980.34,470.14
				L825.23,582.09c-5.96,4.35-14.86,4.35-20.92,0L649.3,470.22V272.36h331.04V470.14z M1064.47,409.45l-52.24,37.64v-96.32
				l52.24,37.72c3.69,2.66,5.68,6.37,5.68,10.48S1068.07,406.79,1064.47,409.45z"/>
		</g>
	</g>
	<g>
		<g>
			<path class="st0" d="M935.96,311.77H693.68c-8.8,0-15.99,6.05-15.99,13.62c0,7.58,7.19,13.62,15.99,13.62h242.27
				c8.8,0,15.99-6.05,15.99-13.62C951.95,317.89,944.85,311.77,935.96,311.77z"/>
		</g>
	</g>
	<g>
		<g>
			<path class="st0" d="M935.96,380.2H693.68c-8.8,0-15.99,6.05-15.99,13.62c0,7.58,7.19,13.62,15.99,13.62h242.27
				c8.8,0,15.99-6.05,15.99-13.62C951.95,386.32,944.85,380.2,935.96,380.2z"/>
		</g>
	</g>
	<g>
		<g>
			<path class="st0" d="M903.78,448.7H725.86c-8.8,0-15.99,6.04-15.99,13.62c0,7.58,7.1,13.62,15.99,13.62h177.92
				c8.8,0,15.99-6.04,15.99-13.62C919.77,454.75,912.58,448.7,903.78,448.7z"/>
		</g>
	</g>
	<g id="Bold-Outline">
		<g id="check">
			<path id="shape" class="st0" d="M1113.75,582.91l-96.04,102.68c-3.22,3.44-8.65,3.65-12.12,0.45c-0.25-0.23-0.48-0.47-0.7-0.73
				l-36.01-42c-3.07-3.58-8.48-4.01-12.09-0.97c-3.61,3.04-4.05,8.41-0.98,11.99l36.01,42c0.66,0.77,1.37,1.5,2.11,2.19
				c10.42,9.58,26.7,8.97,36.37-1.36l96.04-102.68c3.22-3.44,3.02-8.82-0.46-12.02C1122.4,579.27,1116.97,579.47,1113.75,582.91z"/>
		</g>
	</g>
	<g>
		<path class="st0" d="M1174.05,576.28c-1.51-2.58-2.63-5.76-3.67-8c-0.35-0.76-0.72-1.47-1.15-2.17c-0.03,0.08-2.42-3.29-1.71-2.31
			c-0.52-0.71-0.93-1.41-1.28-2.13c-0.54-0.57-1.01-1.22-1.35-1.99c-0.11-0.19-0.19-0.38-0.29-0.58c-2.71-3.19-5.54-6.27-8.01-9.67
			h-0.08c-26.92-32.55-67.6-53.33-113.05-53.33c-45.45,0-86.12,20.78-113.05,53.33h-0.49c-0.32,0.47-0.69,0.91-1.14,1.3
			c-3.75,3.32-5.78,8.12-8.4,12.3c-2.66,4.25-4.93,8.71-7.42,13.06h0.02c-10.28,20.03-16.19,42.65-16.19,66.67
			c0,80.87,65.79,146.67,146.67,146.67c80.87,0,146.67-65.79,146.67-146.67C1190.15,618.81,1184.27,596.26,1174.05,576.28z
			 M1043.48,762.75c-66.17,0-120-53.83-120-120s53.83-120,120-120c66.17,0,120,53.83,120,120S1109.65,762.75,1043.48,762.75z"/>
	</g>
</g>
</svg>
