<?xml version="1.0" encoding="utf-8"?>
<!-- Generator: Adobe Illustrator 27.2.0, SVG Export Plug-In . SVG Version: 6.00 Build 0)  -->
<svg version="1.1" id="Capa_1" xmlns="http://www.w3.org/2000/svg" xmlns:xlink="http://www.w3.org/1999/xlink" x="0px" y="0px"
	 viewBox="0 0 1600 992" style="enable-background:new 0 0 1600 992;" xml:space="preserve">
<defs>
    <linearGradient id="grad1" x1="0%" y1="0%" x2="100%" y2="0%">
      <stop offset="0%" style="stop-color:rgb(98,170,224);stop-opacity:1" />
      <stop offset="100%" style="stop-color:rgb(11,67,110);stop-opacity:1" />
    </linearGradient>
  </defs>
<style type="text/css">
	.st0{fill:url(#grad1);}
</style>
<g>
	<g>
		<polygon class="st0" points="869.98,611.09 773.27,700.55 730.03,660.55 709.57,679.48 773.27,738.41 890.44,630.02 		"/>
	</g>
</g>
<g>
	<g>
		<path class="st0" d="M1147.25,174.74H452.75v428.35h205.66c-11.15,20.11-17.57,42.82-17.57,66.93
			c0,81.19,71.4,147.25,159.16,147.25s159.16-66.05,159.16-147.25c0-24.11-6.42-46.82-17.57-66.93h205.66V174.74z M1090.2,201.51
			L800,400.92L509.81,201.51H1090.2z M481.68,215.53l208.7,143.41l-208.7,197.88V215.53z M800,790.49
			c-71.8,0-130.22-54.05-130.22-120.47S728.2,549.54,800,549.54s130.22,54.05,130.22,120.47S871.8,790.49,800,790.49z
			 M922.68,576.32c-29.22-32.68-73.36-53.54-122.68-53.54s-93.46,20.86-122.68,53.54H501.55l212.28-201.27L800,434.27l86.18-59.22
			l212.27,201.27H922.68z M1118.32,556.82L909.62,358.94l208.69-143.41V556.82z"/>
	</g>
</g>
</svg>
