<?xml version="1.0" encoding="utf-8"?>
<!-- Generator: Adobe Illustrator 27.2.0, SVG Export Plug-In . SVG Version: 6.00 Build 0)  -->
<svg version="1.1" id="Capa_1" xmlns="http://www.w3.org/2000/svg" xmlns:xlink="http://www.w3.org/1999/xlink" x="0px" y="0px"
	 viewBox="0 0 1600 992" style="enable-background:new 0 0 1600 992;" xml:space="preserve">
<defs>
    <linearGradient id="grad1" x1="0%" y1="0%" x2="100%" y2="0%">
      <stop offset="0%" style="stop-color:rgb(98,170,224);stop-opacity:1" />
      <stop offset="100%" style="stop-color:rgb(11,67,110);stop-opacity:1" />
    </linearGradient>
  </defs>
<style type="text/css">
	.st0{fill:url(#grad1);}
</style>
<g>
	<g>
		<path class="st0" d="M1138.14,543.74v-390.9H450.83v390.9l-79.38,177.83v65.72h846.07v-65.72L1138.14,543.74z M1191.75,762.54
			H397.22v-25.27h53.65v-24.74h-47.35L472,559.13h561.3v-24.74H476.6V177.58h635.76v356.81h-53.3v24.74h57.91l68.48,153.4H636.42
			v24.74h555.33L1191.75,762.54L1191.75,762.54z"/>
	</g>
</g>
<g>
	<g>
		<rect x="476.64" y="712.53" class="st0" width="27.49" height="24.74"/>
	</g>
</g>
<g>
	<g>
		<rect x="529.9" y="712.53" class="st0" width="25.77" height="24.74"/>
	</g>
</g>
<g>
	<g>
		<rect x="583.16" y="712.53" class="st0" width="25.77" height="24.74"/>
	</g>
</g>
<g>
	<g>
		<rect x="490.39" y="585.53" class="st0" width="25.77" height="24.74"/>
	</g>
</g>
<g>
	<g>
		<rect x="529.9" y="585.53" class="st0" width="25.77" height="24.74"/>
	</g>
</g>
<g>
	<g>
		<rect x="569.42" y="585.53" class="st0" width="25.77" height="24.74"/>
	</g>
</g>
<g>
	<g>
		<rect x="608.93" y="585.53" class="st0" width="27.49" height="24.74"/>
	</g>
</g>
<g>
	<g>
		<rect x="648.45" y="585.53" class="st0" width="27.49" height="24.74"/>
	</g>
</g>
<g>
	<g>
		<rect x="687.97" y="585.53" class="st0" width="27.49" height="24.74"/>
	</g>
</g>
<g>
	<g>
		<rect x="727.48" y="585.53" class="st0" width="27.49" height="24.74"/>
	</g>
</g>
<g>
	<g>
		<rect x="768.72" y="585.53" class="st0" width="25.77" height="24.74"/>
	</g>
</g>
<g>
	<g>
		<rect x="808.23" y="585.53" class="st0" width="25.77" height="24.74"/>
	</g>
</g>
<g>
	<g>
		<rect x="847.75" y="585.53" class="st0" width="25.77" height="24.74"/>
	</g>
</g>
<g>
	<g>
		<rect x="887.26" y="585.53" class="st0" width="25.77" height="24.74"/>
	</g>
</g>
<g>
	<g>
		<rect x="926.78" y="585.53" class="st0" width="25.77" height="24.74"/>
	</g>
</g>
<g>
	<g>
		<rect x="462.9" y="623.47" class="st0" width="27.49" height="24.74"/>
	</g>
</g>
<g>
	<g>
		<rect x="504.13" y="623.47" class="st0" width="25.77" height="24.74"/>
	</g>
</g>
<g>
	<g>
		<rect x="543.65" y="623.47" class="st0" width="25.77" height="24.74"/>
	</g>
</g>
<g>
	<g>
		<rect x="583.16" y="623.47" class="st0" width="25.77" height="24.74"/>
	</g>
</g>
<g>
	<g>
		<rect x="622.68" y="623.47" class="st0" width="25.77" height="24.74"/>
	</g>
</g>
<g>
	<g>
		<rect x="662.2" y="623.47" class="st0" width="25.77" height="24.74"/>
	</g>
</g>
<g>
	<g>
		<rect x="701.71" y="623.47" class="st0" width="25.77" height="24.74"/>
	</g>
</g>
<g>
	<g>
		<rect x="741.23" y="623.47" class="st0" width="27.49" height="24.74"/>
	</g>
</g>
<g>
	<g>
		<rect x="780.74" y="623.47" class="st0" width="27.49" height="24.74"/>
	</g>
</g>
<g>
	<g>
		<rect x="820.26" y="623.47" class="st0" width="27.49" height="24.74"/>
	</g>
</g>
<g>
	<g>
		<rect x="861.49" y="623.47" class="st0" width="25.77" height="24.74"/>
	</g>
</g>
<g>
	<g>
		<rect x="901.01" y="623.47" class="st0" width="25.77" height="24.74"/>
	</g>
</g>
<g>
	<g>
		<rect x="940.52" y="623.47" class="st0" width="25.77" height="24.74"/>
	</g>
</g>
<g>
	<g>
		<rect x="993.78" y="585.53" class="st0" width="25.77" height="24.74"/>
	</g>
</g>
<g>
	<g>
		<rect x="1033.3" y="585.53" class="st0" width="25.77" height="24.74"/>
	</g>
</g>
<g>
	<g>
		<rect x="1072.81" y="585.53" class="st0" width="25.77" height="24.74"/>
	</g>
</g>
<g>
	<g>
		<rect x="1019.55" y="623.47" class="st0" width="25.77" height="24.74"/>
	</g>
</g>
<g>
	<g>
		<rect x="1059.07" y="623.47" class="st0" width="25.77" height="24.74"/>
	</g>
</g>
<g>
	<g>
		<rect x="1098.59" y="623.47" class="st0" width="27.49" height="24.74"/>
	</g>
</g>
<g>
	<g>
		<rect x="1045.32" y="661.4" class="st0" width="27.49" height="24.74"/>
	</g>
</g>
<g>
	<g>
		<rect x="1084.84" y="661.4" class="st0" width="27.49" height="24.74"/>
	</g>
</g>
<g>
	<g>
		<rect x="1126.08" y="661.4" class="st0" width="25.77" height="24.74"/>
	</g>
</g>
<g>
	<g>
		<rect x="583.16" y="661.4" class="st0" width="264.58" height="24.74"/>
	</g>
</g>
<g>
	<g>
		<rect x="861.49" y="661.4" class="st0" width="51.54" height="24.74"/>
	</g>
</g>
<g>
	<g>
		<rect x="926.78" y="661.4" class="st0" width="53.26" height="24.74"/>
	</g>
</g>
<g>
	<g>
		<rect x="450.87" y="661.4" class="st0" width="53.26" height="24.74"/>
	</g>
</g>
<g>
	<g>
		<rect x="516.16" y="661.4" class="st0" width="53.26" height="24.74"/>
	</g>
</g>
<g>
	<g>
		<rect x="780.74" y="191.31" class="st0" width="27.49" height="24.74"/>
	</g>
</g>
<g>
	<g>
		<polygon class="st0" points="834,191.31 834,216.05 1072.81,216.05 1072.81,496.46 516.16,496.46 516.16,216.05 754.97,216.05 
			754.97,191.31 490.39,191.31 490.39,521.2 1098.58,521.2 1098.58,191.31 		"/>
	</g>
</g>
<g>
	<g>
		<polygon class="st0" points="555.67,458.52 555.67,394.19 529.9,394.19 529.9,483.26 595.19,483.26 595.19,458.52 		"/>
	</g>
</g>
<g>
	<g>
		<rect x="622.68" y="458.52" class="st0" width="25.77" height="24.74"/>
	</g>
</g>
</svg>
