<?xml version="1.0" encoding="utf-8"?>
<!-- Generator: Adobe Illustrator 27.2.0, SVG Export Plug-In . SVG Version: 6.00 Build 0)  -->
<svg version="1.1" id="Capa_1" xmlns="http://www.w3.org/2000/svg" xmlns:xlink="http://www.w3.org/1999/xlink" x="0px" y="0px"
	 viewBox="0 0 1600 992" style="enable-background:new 0 0 1600 992;" xml:space="preserve">
	 <defs>
		<linearGradient id="grad1" x1="0%" y1="0%" x2="100%" y2="0%">
		  <stop offset="0%" style="stop-color:rgb(98,170,224);stop-opacity:1" />
		  <stop offset="100%" style="stop-color:rgb(11,67,110);stop-opacity:1" />
		</linearGradient>
	  </defs>
	<style type="text/css">
		.st0{fill:url(#grad1);}
	</style>
<path class="st0" d="M1146.4,152.2C1054.5,60.2,932.3,9.5,802.1,9.5c-268.4,0-486.8,218.4-486.9,486.8c0,85.8,22.4,169.6,65,243.4
	L311.1,992l258.1-67.7c71.1,38.8,151.2,59.2,232.7,59.3h0.2c268.3,0,486.8-218.4,486.9-486.9C1289,366.6,1238.4,244.3,1146.4,152.2
	L1146.4,152.2z M802.1,901.3h-0.2c-72.6,0-143.8-19.5-206-56.4l-14.8-8.8L428,876.3L468.9,727l-9.6-15.3
	c-40.5-64.4-61.9-138.9-61.9-215.4C397.5,273.2,579,91.7,802.2,91.7c108.1,0,209.7,42.2,286.1,118.7
	c76.4,76.5,118.5,178.2,118.4,286.3C1206.6,719.8,1025.1,901.3,802.1,901.3L802.1,901.3z M1024,598.3c-12.2-6.1-72-35.5-83.1-39.6
	c-11.2-4.1-19.3-6.1-27.4,6.1c-8.1,12.2-31.4,39.6-38.5,47.7c-7.1,8.1-14.2,9.1-26.4,3c-12.2-6.1-51.4-18.9-97.8-60.4
	c-36.2-32.3-60.6-72.1-67.7-84.3c-7.1-12.2-0.7-18.8,5.3-24.8c5.5-5.5,12.2-14.2,18.3-21.3c6.1-7.1,8.1-12.2,12.2-20.3
	c4.1-8.1,2-15.2-1-21.3c-3-6.1-27.4-66-37.5-90.3c-9.9-23.7-19.9-20.5-27.4-20.9c-7.1-0.4-15.2-0.4-23.3-0.4
	c-8.1,0-21.3,3-32.5,15.2c-11.2,12.2-42.6,41.6-42.6,101.5s43.6,117.7,49.7,125.9c6.1,8.1,85.8,131,207.8,183.7
	c29,12.5,51.7,20,69.4,25.6c29.1,9.3,55.7,8,76.6,4.8c23.4-3.5,72-29.4,82.1-57.8c10.1-28.4,10.1-52.8,7.1-57.8
	C1044.3,607.5,1036.2,604.4,1024,598.3L1024,598.3z"/>
</svg>
