<?xml version="1.0" encoding="utf-8"?>
<!-- Generator: Adobe Illustrator 27.2.0, SVG Export Plug-In . SVG Version: 6.00 Build 0)  -->
<svg version="1.1" id="Capa_1" xmlns="http://www.w3.org/2000/svg" xmlns:xlink="http://www.w3.org/1999/xlink" x="0px" y="0px"
	 viewBox="0 0 1600 992" style="enable-background:new 0 0 1600 992;" xml:space="preserve">
<defs>
    <linearGradient id="grad1" x1="0%" y1="0%" x2="100%" y2="0%">
      <stop offset="0%" style="stop-color:rgb(98,170,224);stop-opacity:1" />
      <stop offset="100%" style="stop-color:rgb(11,67,110);stop-opacity:1" />
    </linearGradient>
  </defs>
<style type="text/css">
	.st0{fill:url(#grad1);}
</style>
<path class="st0" d="M223.2,306.42c-94.29,0-171.04,76.74-171.08,171.06c-0.01,30.15,7.87,59.58,22.84,85.52l-24.27,88.66
	l90.69-23.79c24.99,13.63,53.12,20.81,81.75,20.82h0.07c94.28,0,171.03-76.75,171.07-171.07c0.02-45.71-17.76-88.69-50.06-121.02
	C311.91,324.26,268.96,306.44,223.2,306.42z M223.2,619.8h-0.06c-25.51,0-50.54-6.87-72.37-19.82l-5.19-3.08l-53.81,14.12
	l14.36-52.47l-3.38-5.38C88.52,530.53,81,504.36,81.01,477.5c0.03-78.4,63.82-142.18,142.25-142.18
	c37.98,0.01,73.68,14.82,100.52,41.7c26.85,26.87,41.62,62.6,41.61,100.59C365.36,556.01,301.57,619.8,223.2,619.8L223.2,619.8z
	 M301.19,513.31c-4.27-2.14-25.29-12.48-29.21-13.91c-3.92-1.43-6.77-2.14-9.62,2.14c-2.85,4.28-11.04,13.91-13.53,16.76
	c-2.49,2.86-4.99,3.21-9.26,1.07c-4.27-2.14-18.05-6.66-34.37-21.22c-12.71-11.33-21.29-25.33-23.78-29.61s-0.27-6.59,1.88-8.72
	c1.92-1.91,4.27-4.99,6.41-7.49s2.85-4.28,4.27-7.14c1.42-2.85,0.71-5.35-0.36-7.49c-1.07-2.14-9.62-23.18-13.18-31.74
	c-3.47-8.33-6.99-7.21-9.62-7.34c-2.49-0.13-5.34-0.15-8.19-0.15c-2.85,0-7.48,1.07-11.4,5.35s-14.96,14.62-14.96,35.66
	s15.32,41.37,17.45,44.22c2.14,2.85,30.14,46.03,73.02,64.54c10.2,4.4,18.16,7.03,24.37,9c10.24,3.25,19.56,2.79,26.92,1.69
	c8.21-1.23,25.29-10.34,28.85-20.33c3.56-9.98,3.56-18.54,2.49-20.33c-1.07-1.78-3.92-2.85-8.19-4.99L301.19,513.31z M603.83,510.7
	h-0.46l-28.36-114.42h-34.18L512,509.3h-0.46l-26.27-113.02h-36.5l43.94,166.05h36.97l27.66-113.03h0.47l28.13,113.03h36.27
	l44.64-166.05h-35.8L603.84,510.7H603.83z M778.2,452.44c-3.25-4.26-7.71-7.59-13.36-10c-5.66-2.39-12.91-3.59-21.74-3.59
	c-6.2,0-12.55,1.58-19.07,4.77c-6.51,3.17-11.85,8.25-16.04,15.23h-0.7v-62.57h-33.01v166.04h33.01V499.3
	c0-12.25,2.01-21.04,6.05-26.4c4.03-5.34,10.54-8.02,19.53-8.02c7.9,0,13.4,2.44,16.51,7.33c3.1,4.88,4.65,12.28,4.65,22.2v67.91
	h33.02v-73.95c0-7.44-0.67-14.22-1.98-20.35c-1.32-6.11-3.6-11.31-6.86-15.58L778.2,452.44z M914.21,535.58v-62.55
	c0-7.3-1.62-13.15-4.89-17.56c-3.25-4.42-7.43-7.87-12.54-10.35c-5.12-2.48-10.78-4.15-16.98-5c-6.2-0.85-12.32-1.28-18.36-1.28
	c-6.66,0-13.29,0.65-19.87,1.98c-6.6,1.32-12.52,3.53-17.79,6.63c-5.27,3.1-9.62,7.21-13.01,12.32c-3.42,5.12-5.36,11.55-5.82,19.31
	h33.01c0.62-6.51,2.8-11.17,6.52-13.96c3.72-2.79,8.83-4.18,15.34-4.18c2.94,0,5.69,0.19,8.25,0.58c2.55,0.39,4.8,1.15,6.74,2.32
	c1.94,1.16,3.49,2.79,4.65,4.89c1.16,2.09,1.74,4.93,1.74,8.48c0.15,3.42-0.86,6-3.02,7.79c-2.18,1.79-5.12,3.15-8.84,4.07
	c-3.72,0.94-7.98,1.64-12.79,2.09c-4.81,0.48-9.69,1.11-14.64,1.87c-4.97,0.78-9.89,1.82-14.76,3.14c-4.88,1.31-9.24,3.3-13.03,5.92
	c-3.8,2.65-6.9,6.17-9.31,10.59c-2.4,4.42-3.6,10.05-3.6,16.86c0,6.2,1.05,11.55,3.14,16.04c2.09,4.51,5,8.22,8.72,11.17
	c3.72,2.95,8.06,5.12,13.02,6.52c4.95,1.39,10.31,2.09,16.04,2.09c7.44,0,14.73-1.09,21.85-3.25c7.13-2.19,13.34-5.97,18.61-11.41
	c0.15,2.02,0.42,4,0.81,5.93s0.89,3.84,1.51,5.69h33.48c-1.55-2.47-2.64-6.19-3.26-11.16c-0.63-4.96-0.94-10.14-0.94-15.58
	L914.21,535.58z M881.2,515.81c0,1.88-0.19,4.36-0.58,7.45c-0.38,3.11-1.43,6.16-3.14,9.19c-1.71,3.02-4.35,5.63-7.91,7.79
	c-3.56,2.18-8.6,3.26-15.12,3.26c-2.63,0-5.19-0.23-7.67-0.71c-2.48-0.46-4.65-1.28-6.51-2.44c-1.86-1.16-3.33-2.75-4.42-4.77
	c-1.08-2.02-1.63-4.49-1.63-7.43c0-3.1,0.55-5.67,1.63-7.68c1.09-2.01,2.52-3.68,4.31-5c1.77-1.32,3.87-2.36,6.27-3.14
	c2.4-0.77,4.84-1.39,7.33-1.86c2.63-0.46,5.27-0.86,7.9-1.16c2.65-0.3,5.16-0.7,7.56-1.16c2.41-0.47,4.65-1.05,6.75-1.75
	c2.09-0.7,3.83-1.65,5.23-2.9L881.2,515.81L881.2,515.81z M975.83,406.05h-33.02v36.04h-19.99v22.09h19.99v70.94
	c0,6.05,1.02,10.93,3.03,14.65c2.02,3.72,4.77,6.6,8.25,8.61c3.49,2.02,7.52,3.37,12.1,4.06c4.56,0.69,9.42,1.05,14.53,1.05
	c3.27,0,6.59-0.08,10.01-0.22c3.4-0.16,6.5-0.46,9.3-0.94v-25.58c-1.56,0.31-3.18,0.56-4.89,0.7c-1.7,0.16-3.48,0.24-5.34,0.24
	c-5.57,0-9.3-0.94-11.16-2.8c-1.85-1.86-2.78-5.58-2.78-11.17v-59.54h24.18v-22.09h-24.18v-36.04H975.83z M1112.29,509.66
	c-2.17-3.8-5.04-6.98-8.6-9.54c-3.56-2.55-7.64-4.61-12.2-6.17c-4.58-1.54-9.27-2.85-14.07-3.94c-4.65-1.09-9.21-2.1-13.71-3.03
	s-8.49-1.98-11.98-3.13c-3.48-1.17-6.3-2.67-8.47-4.54c-2.18-1.86-3.25-4.25-3.25-7.21c0-2.48,0.6-4.46,1.85-5.93
	c1.24-1.47,2.76-2.59,4.54-3.38c1.79-0.77,3.75-1.27,5.92-1.51c2.17-0.23,4.19-0.34,6.04-0.34c5.89,0,11.01,1.12,15.36,3.37
	c4.33,2.25,6.74,6.55,7.19,12.9h31.39c-0.62-7.44-2.52-13.6-5.69-18.49c-3.17-4.88-7.17-8.79-11.97-11.74
	c-4.8-2.95-10.26-5.04-16.4-6.28c-6.12-1.24-12.43-1.86-18.93-1.86s-12.88,0.58-19.06,1.73c-6.21,1.17-11.79,3.19-16.74,6.06
	c-4.97,2.87-8.95,6.78-11.98,11.74c-3.03,4.96-4.54,11.32-4.54,19.07c0,5.27,1.09,9.74,3.27,13.38c2.15,3.65,5.03,6.66,8.58,9.07
	c3.58,2.4,7.65,4.35,12.22,5.81c4.57,1.49,9.26,2.76,14.06,3.85c11.79,2.48,20.98,4.96,27.56,7.45c6.59,2.48,9.88,6.2,9.88,11.16
	c0,2.95-0.69,5.37-2.09,7.31c-1.4,1.95-3.14,3.49-5.23,4.65c-2.1,1.17-4.43,2.03-6.98,2.56c-2.56,0.55-5.01,0.82-7.33,0.82
	c-3.26,0-6.39-0.39-9.41-1.16c-3.03-0.78-5.7-1.98-8.03-3.61c-2.32-1.63-4.23-3.72-5.7-6.28c-1.46-2.56-2.21-5.61-2.21-9.19h-31.38
	c0.32,8.06,2.13,14.77,5.47,20.12c3.32,5.35,7.58,9.65,12.78,12.91c5.19,3.25,11.13,5.58,17.8,6.98c6.65,1.39,13.47,2.09,20.44,2.09
	s13.53-0.66,20.12-1.97c6.59-1.32,12.44-3.61,17.55-6.87c5.13-3.25,9.25-7.55,12.44-12.9c3.17-5.36,4.76-11.98,4.76-19.89
	c0-5.59-1.08-10.27-3.25-14.06L1112.29,509.66z M1177.85,396.28l-62.77,166.05h36.73l13.01-36.98h62.08l12.54,36.98h37.91
	l-62.07-166.05H1177.85L1177.85,396.28z M1174.37,498.15l21.62-60.93h0.46l20.93,60.93H1174.37L1174.37,498.15z M1391.51,458.38
	c-4.49-5.89-10.15-10.62-16.97-14.18c-6.82-3.57-14.95-5.35-24.4-5.35c-7.45,0-14.26,1.47-20.46,4.41
	c-6.22,2.95-11.32,7.68-15.34,14.19h-0.47v-15.36h-31.4v162.34h33.04v-56.98h0.45c4.03,5.9,9.19,10.35,15.48,13.36
	c6.26,3.02,13.13,4.54,20.57,4.54c8.84,0,16.55-1.72,23.13-5.12c6.59-3.41,12.09-7.99,16.51-13.73s7.7-12.32,9.89-19.76
	c2.15-7.45,3.25-15.2,3.25-23.26c0-8.53-1.1-16.7-3.25-24.54c-2.19-7.82-5.51-14.69-10.01-20.58L1391.51,458.38z M1370.36,516.75
	c-0.94,4.66-2.53,8.72-4.77,12.21c-2.25,3.49-5.19,6.33-8.85,8.49c-3.63,2.17-8.17,3.27-13.59,3.27s-9.75-1.09-13.47-3.27
	c-3.72-2.16-6.71-5-8.96-8.49c-2.25-3.49-3.87-7.55-4.88-12.21c-1.01-4.65-1.5-9.38-1.5-14.17c0-4.79,0.45-9.78,1.38-14.42
	c0.94-4.65,2.52-8.76,4.78-12.34c2.23-3.56,5.19-6.46,8.84-8.71c3.64-2.25,8.16-3.39,13.59-3.39s9.74,1.14,13.37,3.39
	c3.64,2.24,6.63,5.18,8.95,8.83c2.32,3.65,3.98,7.8,5,12.44c1.02,4.65,1.5,9.39,1.5,14.2s-0.45,9.53-1.38,14.17H1370.36z
	 M1533.09,478.96c-2.17-7.82-5.5-14.69-10-20.58c-4.5-5.89-10.14-10.62-16.96-14.18c-6.83-3.57-14.97-5.35-24.42-5.35
	c-7.43,0-14.26,1.47-20.45,4.41c-6.2,2.95-11.32,7.68-15.35,14.19h-0.45v-15.36h-31.39v162.34h33.01v-56.98h0.47
	c4.03,5.9,9.19,10.35,15.46,13.36c6.27,3.02,13.14,4.54,20.58,4.54c8.83,0,16.53-1.72,23.13-5.12c6.58-3.41,12.09-7.99,16.5-13.73
	c4.43-5.74,7.71-12.32,9.88-19.76c2.18-7.45,3.26-15.2,3.26-23.26c0-8.53-1.08-16.7-3.26-24.54L1533.09,478.96z M1501.93,516.75
	c-0.92,4.66-2.51,8.72-4.76,12.21c-2.26,3.49-5.2,6.33-8.84,8.49c-3.64,2.17-8.17,3.27-13.6,3.27s-9.77-1.09-13.49-3.27
	c-3.73-2.16-6.7-5-8.96-8.49c-2.24-3.49-3.87-7.55-4.88-12.21c-1.01-4.65-1.51-9.38-1.51-14.17c0-4.79,0.47-9.78,1.4-14.42
	c0.93-4.65,2.52-8.76,4.77-12.34c2.24-3.56,5.19-6.46,8.84-8.71c3.63-2.25,8.17-3.39,13.6-3.39s9.72,1.14,13.36,3.39
	c3.65,2.24,6.63,5.18,8.96,8.83c2.33,3.65,4,7.8,5,12.44c1.02,4.65,1.51,9.39,1.51,14.2S1502.86,512.11,1501.93,516.75z"/>
</svg>
